<svg width="24" height="24" viewBox="0 0 24 24" fill="none" xmlns="http://www.w3.org/2000/svg">
<path d="M20.3967 12.3714C20.0452 12.0199 19.4753 12.0199 19.1239 12.3714C18.7724 12.7229 18.7724 13.2927 19.1239 13.6442L20.3967 12.3714ZM21.0063 14.2538L20.3699 14.8902C20.7213 15.2417 21.2912 15.2417 21.6427 14.8902L21.0063 14.2538ZM22.8887 13.6442C23.2401 13.2927 23.2401 12.7229 22.8887 12.3714C22.5372 12.0199 21.9673 12.0199 21.6159 12.3714L22.8887 13.6442ZM3.60219 11.6285C3.95366 11.98 4.52351 11.98 4.87498 11.6285C5.22645 11.277 5.22645 10.7072 4.87498 10.3557L3.60219 11.6285ZM2.99258 9.74609L3.62898 9.1097C3.4602 8.94092 3.23128 8.84609 2.99258 8.84609C2.75389 8.84609 2.52497 8.94092 2.35619 9.1097L2.99258 9.74609ZM1.11019 10.3557C0.758714 10.7072 0.758714 11.277 1.11019 11.6285C1.46166 11.98 2.03151 11.98 2.38298 11.6285L1.11019 10.3557ZM6.68643 10.7307C6.68643 11.2278 7.08937 11.6307 7.58643 11.6307C8.08348 11.6307 8.48643 11.2278 8.48643 10.7307H6.68643ZM7.58743 14.7407H6.68743C6.68743 15.2378 7.09037 15.6407 7.58743 15.6407V14.7407ZM10.5244 15.6407C11.0215 15.6407 11.4244 15.2378 11.4244 14.7407C11.4244 14.2437 11.0215 13.8407 10.5244 13.8407V15.6407ZM15.8848 12.9307C16.3818 12.936 16.7891 12.5374 16.7944 12.0404C16.7998 11.5434 16.4012 11.1361 15.9042 11.1308L15.8848 12.9307ZM13.3825 12.0037L13.3698 12.9036L13.3728 12.9037L13.3825 12.0037ZM14.0255 9.26172C14.0255 8.76466 13.6225 8.36172 13.1255 8.36172C12.6284 8.36172 12.2255 8.76466 12.2255 9.26172H14.0255ZM16.7892 9.32031C16.7892 8.82326 16.3862 8.42031 15.8892 8.42031C15.3921 8.42031 14.9892 8.82326 14.9892 9.32031H16.7892ZM14.9892 14.7403C14.9892 15.2374 15.3921 15.6403 15.8892 15.6403C16.3862 15.6403 16.7892 15.2374 16.7892 14.7403H14.9892ZM19.7242 18.1903C20.0356 17.8029 19.9739 17.2364 19.5865 16.925C19.1991 16.6136 18.6326 16.6752 18.3212 17.0626L19.7242 18.1903ZM4.10486 10.1819C4.21608 9.6974 3.91351 9.21451 3.42906 9.10329C2.94461 8.99207 2.46172 9.29463 2.3505 9.77908L4.10486 10.1819ZM4.27931 5.80836C3.96802 6.19587 4.02981 6.76236 4.41732 7.07365C4.80483 7.38494 5.37131 7.32315 5.6826 6.93564L4.27931 5.80836ZM19.8948 13.8166C19.7836 14.3011 20.0861 14.784 20.5706 14.8952C21.055 15.0064 21.5379 14.7038 21.6491 14.2194L19.8948 13.8166ZM19.1239 13.6442L20.3699 14.8902L21.6427 13.6174L20.3967 12.3714L19.1239 13.6442ZM21.6427 14.8902L22.8887 13.6442L21.6159 12.3714L20.3699 13.6174L21.6427 14.8902ZM4.87498 10.3557L3.62898 9.1097L2.35619 10.3825L3.60219 11.6285L4.87498 10.3557ZM2.35619 9.1097L1.11019 10.3557L2.38298 11.6285L3.62898 10.3825L2.35619 9.1097ZM8.48643 10.7307C8.48643 10.4168 8.74148 10.1617 9.05543 10.1617V8.36172C7.74737 8.36172 6.68643 9.42266 6.68643 10.7307H8.48643ZM9.05543 10.1617C9.36937 10.1617 9.62443 10.4168 9.62443 10.7307H11.4244C11.4244 9.42266 10.3635 8.36172 9.05543 8.36172V10.1617ZM9.62443 10.7307C9.62443 10.9091 9.56752 11.0423 9.41056 11.2089C9.21831 11.4128 8.95102 11.5909 8.54849 11.8657C7.83805 12.3507 6.68743 13.1355 6.68743 14.7407H8.48743C8.48743 14.1719 8.8053 13.8698 9.56336 13.3523C9.89508 13.1258 10.362 12.8237 10.7205 12.4434C11.1142 12.0256 11.4244 11.4704 11.4244 10.7307H9.62443ZM7.58743 15.6407H10.5244V13.8407H7.58743V15.6407ZM15.9042 11.1308L13.3922 11.1038L13.3728 12.9037L15.8848 12.9307L15.9042 11.1308ZM13.3952 11.1038C13.7401 11.1087 14.0255 11.3895 14.0255 11.7437H12.2255C12.2255 12.3839 12.7409 12.8948 13.3698 12.9036L13.3952 11.1038ZM14.0255 11.7437V9.26172H12.2255V11.7437H14.0255ZM14.9892 9.32031V14.7403H16.7892V9.32031H14.9892ZM18.3212 17.0626C16.8329 18.9142 14.5573 20.0985 12.0017 20.0985V21.8985C15.128 21.8985 17.9104 20.4468 19.7242 18.1903L18.3212 17.0626ZM11.9977 20.0985C7.52047 20.0985 3.89268 16.4712 3.89268 11.9965H2.09268C2.09268 17.4658 6.52688 21.8985 11.9977 21.8985V20.0985ZM3.89268 11.9965C3.89268 11.3773 3.96936 10.772 4.10486 10.1819L2.3505 9.77908C2.18799 10.4869 2.09268 11.2277 2.09268 11.9965H3.89268ZM5.6826 6.93564C7.16972 5.0844 9.44617 3.9 12.002 3.9V2.1C8.87575 2.1 6.09219 3.5516 4.27931 5.80836L5.6826 6.93564ZM12.002 3.9C16.4792 3.9 20.107 7.52732 20.107 12.002H21.907C21.907 6.53268 17.4728 2.1 12.002 2.1V3.9ZM20.107 12.002C20.107 12.6212 20.0303 13.2264 19.8948 13.8166L21.6491 14.2194C21.8116 13.5116 21.907 12.7708 21.907 12.002H20.107ZM12.0017 20.0985H11.9977V21.8985H12.0017V20.0985Z" fill="url(#paint0_linear_1_5585)"/>
<defs>
<linearGradient id="paint0_linear_1_5585" x1="11.9994" y1="3" x2="11.9994" y2="20.9985" gradientUnits="userSpaceOnUse">
<stop stop-color="#E95814"/>
<stop offset="1" stop-color="#F08A5B"/>
</linearGradient>
</defs>
</svg>
