<svg width="152" height="64" viewBox="0 0 152 64" fill="none" xmlns="http://www.w3.org/2000/svg">
<path d="M0 12C0 5.37258 5.37258 0 12 0H140C146.627 0 152 5.37258 152 12V52C152 58.6274 146.627 64 140 64H12C5.37258 64 0 58.6274 0 52V12Z" fill="white" fill-opacity="0.1"/>
<path d="M0.5 12C0.5 5.64873 5.64873 0.5 12 0.5H140C146.351 0.5 151.5 5.64873 151.5 12V52C151.5 58.3513 146.351 63.5 140 63.5H12C5.64873 63.5 0.5 58.3513 0.5 52V12Z" stroke="white" stroke-opacity="0.3"/>
<path d="M40.4957 32.7561C40.4672 29.7292 43.0059 28.2534 43.12 28.1876C41.6842 26.1196 39.4593 25.8376 38.6701 25.8094C36.797 25.612 34.981 26.9186 34.0301 26.9186C33.0603 26.9186 31.5961 25.8282 30.0082 25.8658C27.9734 25.894 26.0718 27.0596 25.0259 28.8738C22.8675 32.5587 24.4744 37.9825 26.5377 40.9624C27.5741 42.4194 28.7721 44.055 30.36 43.9986C31.9003 43.9328 32.4803 43.021 34.3439 43.021C36.1885 43.021 36.7305 43.9986 38.3469 43.961C40.0013 43.9328 41.0472 42.4946 42.0455 41.0188C43.2341 39.3455 43.719 37.7005 43.738 37.6159C43.7095 37.5877 40.5337 36.3845 40.4957 32.7561Z" fill="white"/>
<path d="M37.4522 23.8446C38.2794 22.82 38.8499 21.4194 38.6978 20C37.4997 20.0564 35.9879 20.8178 35.1227 21.8236C34.3525 22.7072 33.6679 24.1643 33.8486 25.5273C35.1987 25.6307 36.5869 24.8599 37.4522 23.8446Z" fill="white"/>
<path d="M64.4244 39.39H62.3172L61.1662 35.8018H57.1561L56.0515 39.39H54L57.973 27.1753H60.4329L64.4244 39.39ZM60.8134 34.2967L59.7738 31.1123C59.6624 30.7819 59.4582 30.0202 59.1519 28.8088H59.1147C58.9941 29.3319 58.7991 30.0936 58.5299 31.1123L57.4995 34.2967H60.8134Z" fill="white"/>
<path d="M74.6362 34.8736C74.6362 36.3694 74.2278 37.5533 73.4016 38.4251C72.6683 39.196 71.7493 39.5814 70.654 39.5814C69.4751 39.5814 68.6211 39.1684 68.1105 38.3333V42.9586H66.1333V33.4786C66.1333 32.5334 66.1055 31.5698 66.0591 30.5878H67.8042L67.9156 31.9828H67.9527C68.6118 30.9274 69.6143 30.4043 70.9603 30.4043C72.0092 30.4043 72.8911 30.8173 73.5873 31.634C74.2835 32.46 74.6362 33.5337 74.6362 34.8736ZM72.6219 34.947C72.6219 34.0935 72.427 33.3869 72.0371 32.8271C71.6101 32.2489 71.0346 31.9552 70.3105 31.9552C69.8185 31.9552 69.3823 32.1204 68.9831 32.4324C68.5839 32.7536 68.324 33.1758 68.2034 33.6897C68.1384 33.9283 68.1105 34.1302 68.1105 34.2862V35.7546C68.1105 36.397 68.3055 36.9384 68.7046 37.3789C69.1038 37.8194 69.6143 38.0397 70.2548 38.0397C70.9974 38.0397 71.5822 37.7552 72 37.1862C72.4084 36.6264 72.6219 35.883 72.6219 34.947Z" fill="white"/>
<path d="M84.8828 34.8736C84.8828 36.3694 84.4744 37.5533 83.6482 38.4251C82.9149 39.196 81.9959 39.5814 80.9006 39.5814C79.7217 39.5814 78.877 39.1684 78.3571 38.3333V42.9586H76.3799V33.4786C76.3799 32.5334 76.3521 31.5698 76.3057 30.5878H78.0508L78.1622 31.9828H78.1993C78.8584 30.9274 79.8609 30.4043 81.2069 30.4043C82.2558 30.4043 83.1377 30.8173 83.8339 31.634C84.5301 32.46 84.8828 33.5337 84.8828 34.8736ZM82.8592 34.947C82.8592 34.0935 82.6643 33.3869 82.2744 32.8271C81.8474 32.2489 81.2719 31.9552 80.5571 31.9552C80.0651 31.9552 79.6288 32.1204 79.2297 32.4324C78.8305 32.7536 78.5706 33.1758 78.45 33.6897C78.385 33.9283 78.3571 34.1302 78.3571 34.2862V35.7546C78.3571 36.397 78.5521 36.9384 78.9512 37.3789C79.3504 37.8194 79.8609 38.0397 80.5014 38.0397C81.244 38.0397 81.8288 37.7552 82.2465 37.1862C82.655 36.6264 82.8592 35.883 82.8592 34.947Z" fill="white"/>
<path d="M96.3379 35.966C96.3379 37.0031 95.9665 37.8474 95.2425 38.4989C94.4349 39.2147 93.3117 39.5727 91.8822 39.5727C90.5548 39.5727 89.4873 39.3157 88.6797 38.811L89.1345 37.1774C89.9978 37.6822 90.9539 37.9391 91.9936 37.9391C92.7362 37.9391 93.321 37.7739 93.7387 37.4436C94.1564 37.1132 94.3607 36.6635 94.3607 36.1129C94.3607 35.6173 94.1843 35.2043 93.8501 34.8648C93.5067 34.5252 92.9404 34.2132 92.1421 33.9195C89.9793 33.1211 88.8932 31.9556 88.8932 30.4231C88.8932 29.4228 89.2738 28.5968 90.0349 27.9636C90.7961 27.3212 91.8079 27 93.0704 27C94.1936 27 95.1311 27.1927 95.8737 27.5782L95.3725 29.175C94.6763 28.7987 93.8872 28.6152 92.9961 28.6152C92.2999 28.6152 91.7522 28.7895 91.3624 29.1199C91.0375 29.4228 90.8611 29.7898 90.8611 30.2303C90.8611 30.7167 91.056 31.1114 91.4273 31.4234C91.7522 31.717 92.3556 32.0291 93.2189 32.3686C94.2864 32.7908 95.0661 33.2863 95.5674 33.8553C96.0872 34.4151 96.3379 35.1218 96.3379 35.966Z" fill="white"/>
<path d="M102.893 32.0472H100.711V36.3237C100.711 37.4066 101.092 37.9572 101.862 37.9572C102.215 37.9572 102.512 37.9297 102.744 37.8655L102.8 39.3522C102.41 39.499 101.9 39.5724 101.259 39.5724C100.479 39.5724 99.8666 39.3338 99.421 38.8658C98.9848 38.3977 98.762 37.5993 98.762 36.4889V32.0472H97.4624V30.5788H98.762V28.9637L100.702 28.3855V30.5788H102.883V32.0472H102.893Z" fill="white"/>
<path d="M112.721 34.9103C112.721 36.2593 112.331 37.3789 111.552 38.2416C110.735 39.1317 109.649 39.5814 108.293 39.5814C106.985 39.5814 105.945 39.1501 105.165 38.2966C104.385 37.4431 104.005 36.3602 104.005 35.0571C104.005 33.6897 104.404 32.5701 105.202 31.7074C106.001 30.8356 107.077 30.4043 108.442 30.4043C109.751 30.4043 110.8 30.8356 111.598 31.6891C112.341 32.5242 112.721 33.5979 112.721 34.9103ZM110.661 34.9561C110.661 34.1486 110.484 33.4603 110.131 32.8821C109.714 32.1847 109.12 31.8359 108.349 31.8359C107.56 31.8359 106.947 32.1847 106.53 32.8821C106.177 33.4603 106.001 34.1669 106.001 34.9929C106.001 35.8004 106.177 36.4979 106.53 37.0669C106.957 37.7643 107.551 38.1131 108.331 38.1131C109.082 38.1131 109.677 37.7552 110.113 37.0485C110.484 36.4612 110.661 35.7637 110.661 34.9561Z" fill="white"/>
<path d="M119.156 32.3045C118.961 32.2678 118.747 32.2495 118.534 32.2495C117.837 32.2495 117.299 32.5064 116.918 33.0295C116.594 33.4884 116.426 34.0666 116.426 34.764V39.3893H114.449V33.3599C114.449 32.3504 114.431 31.4235 114.394 30.5884H116.12L116.194 32.277H116.25C116.464 31.6989 116.788 31.2308 117.243 30.8821C117.689 30.5701 118.162 30.4141 118.673 30.4141C118.858 30.4141 119.026 30.4232 119.165 30.4508L119.156 32.3045Z" fill="white"/>
<path d="M128 34.5706C128 34.9193 127.972 35.213 127.926 35.4608H121.985C122.004 36.3326 122.291 36.9934 122.848 37.4522C123.35 37.8652 123.999 38.0671 124.788 38.0671C125.67 38.0671 126.468 37.9294 127.193 37.6541L127.499 39.0123C126.654 39.3794 125.661 39.5538 124.51 39.5538C123.127 39.5538 122.041 39.15 121.252 38.3516C120.463 37.544 120.073 36.4703 120.073 35.1212C120.073 33.7906 120.435 32.6893 121.177 31.8083C121.948 30.8631 122.987 30.395 124.296 30.395C125.577 30.395 126.552 30.8631 127.211 31.8083C127.74 32.5425 128 33.4694 128 34.5706ZM126.116 34.0659C126.125 33.4877 126.004 32.983 125.735 32.5608C125.392 32.0194 124.863 31.7441 124.157 31.7441C123.507 31.7441 122.987 32.0102 122.579 32.5425C122.254 32.9646 122.05 33.4785 121.994 34.0659H126.116Z" fill="white"/>
</svg>
