<svg width="156" height="13" viewBox="0 0 156 13" fill="none" xmlns="http://www.w3.org/2000/svg">
<path d="M6.56 12.112C8.56 12.112 10.096 11.184 11.072 9.968L9.424 8.544C8.736 9.392 7.744 9.984 6.56 9.984C4.528 9.984 3.12 8.464 3.12 6.352C3.12 4.08 4.592 2.64 6.528 2.64C7.696 2.64 8.656 3.184 9.392 4.08L11.056 2.688C9.84 1.2 8.16 0.495999 6.528 0.495999C2.848 0.495999 0.768 3.104 0.768 6.352C0.768 10.096 3.392 12.112 6.56 12.112ZM37.8288 8.016C37.8288 5.728 36.2928 4.064 34.0848 4.064C31.7648 4.064 30.1168 5.696 30.1168 8.08C30.1168 10.528 31.8128 12.144 34.2128 12.144C35.9568 12.144 36.9648 11.504 37.6208 10.656L36.2608 9.392C35.8448 9.904 35.2368 10.272 34.3568 10.272C33.3008 10.272 32.5488 9.712 32.2928 8.768H37.7808C37.7968 8.64 37.8288 8.272 37.8288 8.016ZM34.0688 5.888C34.9808 5.888 35.5408 6.432 35.7488 7.264H32.3088C32.5488 6.368 33.2208 5.888 34.0688 5.888ZM42.735 12.144C44.399 12.144 45.471 11.552 46.143 10.72L44.783 9.408C44.367 9.92 43.743 10.256 42.943 10.256C41.695 10.256 40.831 9.392 40.831 8.096C40.831 6.816 41.679 5.936 42.943 5.936C43.679 5.936 44.319 6.256 44.735 6.768L46.111 5.472C45.295 4.512 44.015 4.064 42.799 4.064C40.383 4.064 38.703 5.696 38.703 8.112C38.703 10.512 40.399 12.144 42.735 12.144ZM49.6841 12.144C50.7401 12.144 51.2521 11.92 51.7481 11.648L51.2201 9.968C50.8681 10.144 50.4841 10.24 50.2281 10.24C49.7321 10.24 49.5561 9.92 49.5561 9.232V5.92H51.6681V4.176H49.5561V1.408L47.4601 1.632V4.176H46.5321V5.92H47.4601V9.536C47.4601 11.296 48.3401 12.144 49.6841 12.144ZM55.775 12.144C56.799 12.144 57.583 11.76 58.127 11.056L58.159 11.072V12H60.159V4.176H58.063V5.072L58.031 5.088C57.471 4.416 56.639 4.064 55.727 4.064C53.631 4.064 52.047 5.744 52.047 8.112C52.047 10.528 53.631 12.144 55.775 12.144ZM56.175 10.256C54.991 10.256 54.175 9.376 54.175 8.128C54.175 6.784 55.039 5.936 56.175 5.936C57.295 5.936 58.159 6.864 58.159 8.128C58.159 9.408 57.247 10.256 56.175 10.256ZM65.1272 12.144C66.1832 12.144 66.9992 11.744 67.5432 11.04H67.5592V12H69.5592V0.223999H67.4792V5.088H67.4472C66.8712 4.416 66.0392 4.064 65.0792 4.064C62.9832 4.064 61.3832 5.744 61.3832 8.112C61.3832 10.528 62.9672 12.144 65.1272 12.144ZM65.5112 10.256C64.3432 10.256 63.5112 9.376 63.5112 8.128C63.5112 6.784 64.3912 5.936 65.5112 5.936C66.7112 5.936 67.5592 6.864 67.5592 8.128C67.5592 9.408 66.6632 10.256 65.5112 10.256ZM75.0518 12.144C77.4838 12.144 79.1958 10.48 79.1958 8.096C79.1958 5.696 77.4838 4.064 75.0518 4.064C72.5558 4.064 70.8918 5.76 70.8918 8.096C70.8918 10.432 72.5558 12.144 75.0518 12.144ZM75.0518 10.256C73.8518 10.256 73.0198 9.312 73.0198 8.096C73.0198 6.864 73.8358 5.936 75.0518 5.936C76.2038 5.936 77.0678 6.816 77.0678 8.096C77.0678 9.376 76.1718 10.256 75.0518 10.256ZM87.9088 12.144C89.5728 12.144 90.6448 11.552 91.3168 10.72L89.9568 9.408C89.5408 9.92 88.9168 10.256 88.1168 10.256C86.8688 10.256 86.0048 9.392 86.0048 8.096C86.0048 6.816 86.8528 5.936 88.1168 5.936C88.8528 5.936 89.4928 6.256 89.9088 6.768L91.2848 5.472C90.4688 4.512 89.1888 4.064 87.9728 4.064C85.5568 4.064 83.8768 5.696 83.8768 8.112C83.8768 10.512 85.5728 12.144 87.9088 12.144ZM96.1699 12.144C98.6019 12.144 100.314 10.48 100.314 8.096C100.314 5.696 98.6019 4.064 96.1699 4.064C93.6739 4.064 92.0099 5.76 92.0099 8.096C92.0099 10.432 93.6739 12.144 96.1699 12.144ZM96.1699 10.256C94.9699 10.256 94.1379 9.312 94.1379 8.096C94.1379 6.864 94.9539 5.936 96.1699 5.936C97.3219 5.936 98.1859 6.816 98.1859 8.096C98.1859 9.376 97.2899 10.256 96.1699 10.256ZM101.638 12H103.734V8.096C103.734 6.688 104.438 5.936 105.382 5.936C106.342 5.936 106.758 6.72 106.758 7.968V12H108.854V8.096C108.854 6.688 109.574 5.936 110.454 5.936C111.43 5.936 111.814 6.72 111.814 7.968V12H113.91V7.472C113.91 5.072 112.838 4.064 111.158 4.064C110.038 4.064 109.062 4.48 108.422 5.296H108.39C107.926 4.448 107.11 4.064 106.086 4.064C105.222 4.064 104.374 4.448 103.75 5.2H103.734V4.176H101.638V12ZM121.613 12H123.565L126.637 4.176H124.445L122.605 9.424H122.589L120.781 4.176H118.541L121.613 12ZM130.843 12.144C133.275 12.144 134.987 10.48 134.987 8.096C134.987 5.696 133.275 4.064 130.843 4.064C128.347 4.064 126.683 5.76 126.683 8.096C126.683 10.432 128.347 12.144 130.843 12.144ZM130.843 10.256C129.643 10.256 128.811 9.312 128.811 8.096C128.811 6.864 129.627 5.936 130.843 5.936C131.995 5.936 132.859 6.816 132.859 8.096C132.859 9.376 131.963 10.256 130.843 10.256ZM139.911 12.144C141.575 12.144 142.647 11.552 143.319 10.72L141.959 9.408C141.543 9.92 140.919 10.256 140.119 10.256C138.871 10.256 138.007 9.392 138.007 8.096C138.007 6.816 138.855 5.936 140.119 5.936C140.855 5.936 141.495 6.256 141.911 6.768L143.287 5.472C142.471 4.512 141.191 4.064 139.975 4.064C137.559 4.064 135.879 5.696 135.879 8.112C135.879 10.512 137.575 12.144 139.911 12.144ZM147.98 1.984H148.012L148.812 3.184H150.732L149.116 0.832H146.892L145.244 3.184H147.18L147.98 1.984ZM151.724 8.016C151.724 5.728 150.188 4.064 147.98 4.064C145.66 4.064 144.012 5.696 144.012 8.08C144.012 10.528 145.708 12.144 148.108 12.144C149.852 12.144 150.86 11.504 151.516 10.656L150.156 9.392C149.74 9.904 149.132 10.272 148.252 10.272C147.196 10.272 146.444 9.712 146.188 8.768H151.676C151.692 8.64 151.724 8.272 151.724 8.016ZM147.964 5.888C148.876 5.888 149.436 6.432 149.644 7.264H146.204C146.444 6.368 147.116 5.888 147.964 5.888ZM153.462 8.272H155.03L155.382 0.223999H153.094L153.462 8.272ZM154.23 12.144C154.934 12.144 155.526 11.568 155.526 10.848C155.526 10.144 154.934 9.568 154.23 9.568C153.494 9.568 152.902 10.144 152.902 10.848C152.902 11.568 153.494 12.144 154.23 12.144Z" fill="#002FA7"/>
<path d="M15.9949 12.144C18.4269 12.144 20.1389 10.48 20.1389 8.096C20.1389 5.696 18.4269 4.064 15.9949 4.064C13.4989 4.064 11.8349 5.76 11.8349 8.096C11.8349 10.432 13.4989 12.144 15.9949 12.144ZM15.9949 10.256C14.7949 10.256 13.9629 9.312 13.9629 8.096C13.9629 6.864 14.7789 5.936 15.9949 5.936C17.1469 5.936 18.0109 6.816 18.0109 8.096C18.0109 9.376 17.1149 10.256 15.9949 10.256ZM21.4625 12H23.5585V8.08C23.5585 6.672 24.2625 5.936 25.3185 5.936C26.2945 5.936 26.8225 6.4 26.8225 7.888V12H28.9185V7.36C28.9185 4.96 27.7505 4.064 26.0865 4.064C25.1105 4.064 24.2145 4.448 23.5905 5.184H23.5585V4.176H21.4625V12Z" fill="#F57821"/>
</svg>
