<svg width="24" height="24" viewBox="0 0 24 24" fill="none" xmlns="http://www.w3.org/2000/svg">
<path d="M9.52439 7.3294C9.12457 7.0341 8.56105 7.11883 8.26575 7.51865C7.97044 7.91848 8.05517 8.48199 8.45499 8.7773L9.52439 7.3294ZM8.45484 15.3067C8.05508 15.6021 7.97047 16.1657 8.26586 16.5654C8.56125 16.9652 9.12478 17.0498 9.52454 16.7544L8.45484 15.3067ZM7.01517 9.79419C6.61534 9.49889 6.05183 9.58362 5.75652 9.98344C5.46122 10.3833 5.54595 10.9468 5.94577 11.2421L7.01517 9.79419ZM5.94562 12.5854C5.54586 12.8808 5.46125 13.4443 5.75664 13.844C6.05203 14.2438 6.61556 14.3284 7.01532 14.033L5.94562 12.5854ZM12.0538 4.82386C11.6696 4.50843 11.1025 4.56413 10.7871 4.94827C10.4716 5.33241 10.5273 5.89953 10.9115 6.21497L12.0538 4.82386ZM10.9115 17.7858C10.5273 18.1013 10.4716 18.6684 10.7871 19.0525C11.1025 19.4367 11.6696 19.4924 12.0538 19.177L10.9115 17.7858ZM14.5626 2.34507C14.1865 2.02005 13.6182 2.06143 13.2931 2.4375C12.9681 2.81357 13.0095 3.38191 13.3856 3.70693L14.5626 2.34507ZM13.3856 20.293C13.0095 20.618 12.9681 21.1863 13.2931 21.5624C13.6182 21.9385 14.1865 21.9798 14.5626 21.6548L13.3856 20.293ZM8.45499 8.7773C9.75527 9.73766 10.3263 10.9289 10.3262 12.0417C10.3262 13.1546 9.75498 14.346 8.45484 15.3067L9.52454 16.7544C11.2062 15.5118 12.1261 13.816 12.1262 12.0418C12.1263 10.2675 11.2064 8.57174 9.52439 7.3294L8.45499 8.7773ZM5.94577 11.2421C6.27661 11.4864 6.36299 11.7392 6.36298 11.9136C6.36297 12.088 6.27651 12.3409 5.94562 12.5854L7.01532 14.033C7.72768 13.5067 8.16294 12.7494 8.16298 11.9136C8.16302 11.0778 7.72777 10.3205 7.01517 9.79419L5.94577 11.2421ZM10.9115 6.21497C12.9004 7.84818 13.8517 9.94627 13.8517 12.0004C13.8517 14.0545 12.9004 16.1526 10.9115 17.7858L12.0538 19.177C14.4235 17.231 15.6517 14.6377 15.6517 12.0004C15.6517 9.3631 14.4235 6.76976 12.0538 4.82386L10.9115 6.21497ZM13.3856 3.70693C18.7054 8.30463 18.7054 15.6953 13.3856 20.293L14.5626 21.6548C20.713 16.3392 20.713 7.66067 14.5626 2.34507L13.3856 3.70693Z" fill="url(#paint0_linear_1_5581)"/>
<defs>
<linearGradient id="paint0_linear_1_5581" x1="12.3779" y1="3.026" x2="12.3779" y2="20.9739" gradientUnits="userSpaceOnUse">
<stop stop-color="#E95814"/>
<stop offset="1" stop-color="#F08A5B"/>
</linearGradient>
</defs>
</svg>
