<svg width="40" height="40" viewBox="0 0 40 40" fill="none" xmlns="http://www.w3.org/2000/svg">
<circle cx="20" cy="20" r="20" fill="#F47920"/>
<path fill-rule="evenodd" clip-rule="evenodd" d="M17.9069 20.0703V27.8826C17.9069 27.9882 17.9949 28.0938 18.118 28.0938H21.0213C21.1268 28.0938 21.2324 28.0058 21.2324 27.8826V19.9296H23.3262C23.4318 19.9296 23.5198 19.8416 23.5374 19.736L23.7133 17.3606C23.7309 17.2375 23.6254 17.1319 23.5022 17.1319H21.2148V15.4428C21.2148 15.0381 21.5315 14.7213 21.9362 14.7213H23.555C23.6606 14.7213 23.7661 14.6334 23.7661 14.5102V12.1348C23.7661 12.0293 23.6782 11.9237 23.555 11.9237H20.8101C19.2089 11.9237 17.9069 13.2257 17.9069 14.8269V17.1319H16.4641C16.3585 17.1319 16.2529 17.2199 16.2529 17.343V19.736C16.2529 19.8416 16.3409 19.9472 16.4641 19.9472H17.9069V20.0703Z" fill="white"/>
</svg>
