<svg width="157" height="338" viewBox="0 0 157 338" fill="none" xmlns="http://www.w3.org/2000/svg">
<path fill-rule="evenodd" clip-rule="evenodd" d="M17.436 15.6046C9.42622 14.8849 3.22697 11.0319 3.58926 6.99883C3.70012 5.76385 4.41361 4.65526 5.57985 3.73202C2.24609 5.32795 0.239534 7.40191 0.388085 9.53706C0.674546 13.6455 8.83335 16.4232 18.6111 15.7408C18.7677 15.7297 18.9238 15.7181 19.079 15.7057C18.5389 15.688 17.9903 15.6543 17.436 15.6046Z" fill="#E1E2E4"/>
<path fill-rule="evenodd" clip-rule="evenodd" d="M35.7966 7.06667C35.5101 2.95867 27.3513 0.180973 17.5735 0.86298C17.417 0.874066 17.2609 0.885595 17.1057 0.898012C17.6467 0.915749 18.1948 0.94945 18.7491 0.999115C26.7589 1.71881 32.9586 5.57184 32.5958 9.60491C32.485 10.8399 31.7715 11.9485 30.6052 12.8717C33.939 11.2762 35.9456 9.20182 35.7966 7.06667Z" fill="#E1E2E4"/>
<path fill-rule="evenodd" clip-rule="evenodd" d="M17.436 40.3276C9.42622 39.6079 3.22697 35.7549 3.58926 31.7218C3.70012 30.4869 4.41361 29.3783 5.57985 28.455C2.24609 30.051 0.239534 32.1249 0.388085 34.2601C0.674546 38.3685 8.83335 41.1462 18.6111 40.4638C18.7677 40.4527 18.9238 40.4411 19.079 40.4287C18.5389 40.411 17.9903 40.3773 17.436 40.3276Z" fill="#E1E2E4"/>
<path fill-rule="evenodd" clip-rule="evenodd" d="M35.7966 31.7897C35.5101 27.6817 27.3513 24.904 17.5735 25.586C17.417 25.5971 17.2609 25.6086 17.1057 25.621C17.6467 25.6387 18.1948 25.6725 18.7491 25.7221C26.7589 26.4418 32.9586 30.2948 32.5958 34.3279C32.485 35.5629 31.7715 36.6715 30.6052 37.5947C33.939 35.9992 35.9456 33.9248 35.7966 31.7897Z" fill="#E1E2E4"/>
<path fill-rule="evenodd" clip-rule="evenodd" d="M17.436 65.0506C9.42622 64.3309 3.22697 60.4779 3.58926 56.4448C3.70012 55.2099 4.41361 54.1013 5.57985 53.178C2.24609 54.774 0.239534 56.8479 0.388085 58.9831C0.674546 63.0915 8.83335 65.8692 18.6111 65.1868C18.7677 65.1757 18.9238 65.1641 19.079 65.1517C18.5389 65.134 17.9903 65.1003 17.436 65.0506Z" fill="#E1E2E4"/>
<path fill-rule="evenodd" clip-rule="evenodd" d="M35.7966 56.5127C35.5101 52.4047 27.3513 49.627 17.5735 50.309C17.417 50.3201 17.2609 50.3316 17.1057 50.344C17.6467 50.3618 18.1948 50.3955 18.7491 50.4451C26.7589 51.1648 32.9586 55.0178 32.5958 59.0509C32.485 60.2859 31.7715 61.3945 30.6052 62.3177C33.939 60.7222 35.9456 58.6478 35.7966 56.5127Z" fill="#E1E2E4"/>
<path fill-rule="evenodd" clip-rule="evenodd" d="M17.436 89.7736C9.42622 89.0539 3.22697 85.2009 3.58926 81.1678C3.70012 79.9329 4.41361 78.8243 5.57985 77.901C2.24609 79.497 0.239534 81.5709 0.388085 83.7061C0.674546 87.8145 8.83335 90.5922 18.6111 89.9098C18.7677 89.8987 18.9238 89.8871 19.079 89.8747C18.5389 89.857 17.9903 89.8233 17.436 89.7736Z" fill="#E1E2E4"/>
<path fill-rule="evenodd" clip-rule="evenodd" d="M35.7966 81.2357C35.5101 77.1277 27.3513 74.35 17.5735 75.032C17.417 75.0431 17.2609 75.0546 17.1057 75.067C17.6467 75.0848 18.1948 75.1185 18.7491 75.1681C26.7589 75.8878 32.9586 79.7408 32.5958 83.7739C32.485 85.0089 31.7715 86.1175 30.6052 87.0407C33.939 85.4452 35.9456 83.3708 35.7966 81.2357Z" fill="#E1E2E4"/>
<path fill-rule="evenodd" clip-rule="evenodd" d="M17.436 114.497C9.42622 113.777 3.22697 109.924 3.58926 105.891C3.70012 104.656 4.41361 103.547 5.57985 102.624C2.24609 104.22 0.239534 106.294 0.388085 108.429C0.674546 112.538 8.83335 115.315 18.6111 114.633C18.7677 114.622 18.9238 114.61 19.079 114.598C18.5389 114.58 17.9903 114.546 17.436 114.497Z" fill="#E1E2E4"/>
<path fill-rule="evenodd" clip-rule="evenodd" d="M35.7966 105.959C35.5101 101.851 27.3513 99.073 17.5735 99.755C17.417 99.7661 17.2609 99.7776 17.1057 99.79C17.6467 99.8078 18.1948 99.8415 18.7491 99.8911C26.7589 100.611 32.9586 104.464 32.5958 108.497C32.485 109.732 31.7715 110.84 30.6052 111.764C33.939 110.168 35.9456 108.094 35.7966 105.959Z" fill="#E1E2E4"/>
<path fill-rule="evenodd" clip-rule="evenodd" d="M17.436 139.22C9.42622 138.5 3.22697 134.647 3.58926 130.614C3.70012 129.379 4.41361 128.27 5.57985 127.347C2.24609 128.943 0.239534 131.017 0.388085 133.152C0.674546 137.261 8.83335 140.038 18.6111 139.356C18.7677 139.345 18.9238 139.333 19.079 139.321C18.5389 139.303 17.9903 139.269 17.436 139.22Z" fill="#E1E2E4"/>
<path fill-rule="evenodd" clip-rule="evenodd" d="M35.7966 130.682C35.5101 126.574 27.3513 123.796 17.5735 124.478C17.417 124.489 17.2609 124.501 17.1057 124.513C17.6467 124.531 18.1948 124.564 18.7491 124.614C26.7589 125.334 32.9586 129.187 32.5958 133.22C32.485 134.455 31.7715 135.563 30.6052 136.487C33.939 134.891 35.9456 132.817 35.7966 130.682Z" fill="#E1E2E4"/>
<path fill-rule="evenodd" clip-rule="evenodd" d="M17.436 163.943C9.42622 163.223 3.22697 159.37 3.58926 155.337C3.70012 154.102 4.41361 152.993 5.57985 152.07C2.24609 153.666 0.239534 155.74 0.388085 157.875C0.674546 161.984 8.83335 164.761 18.6111 164.079C18.7677 164.068 18.9238 164.056 19.079 164.044C18.5389 164.026 17.9903 163.992 17.436 163.943Z" fill="#E1E2E4"/>
<path fill-rule="evenodd" clip-rule="evenodd" d="M35.7966 155.405C35.5101 151.297 27.3513 148.519 17.5735 149.201C17.417 149.212 17.2609 149.224 17.1057 149.236C17.6467 149.254 18.1948 149.287 18.7491 149.337C26.7589 150.057 32.9586 153.91 32.5958 157.943C32.485 159.178 31.7715 160.286 30.6052 161.21C33.939 159.614 35.9456 157.54 35.7966 155.405Z" fill="#E1E2E4"/>
<path fill-rule="evenodd" clip-rule="evenodd" d="M17.436 188.666C9.42622 187.946 3.22697 184.093 3.58926 180.06C3.70012 178.825 4.41361 177.716 5.57985 176.793C2.24609 178.389 0.239534 180.463 0.388085 182.598C0.674546 186.707 8.83335 189.484 18.6111 188.802C18.7677 188.791 18.9238 188.779 19.079 188.767C18.5389 188.749 17.9903 188.715 17.436 188.666Z" fill="#E1E2E4"/>
<path fill-rule="evenodd" clip-rule="evenodd" d="M35.7966 180.128C35.5101 176.02 27.3513 173.242 17.5735 173.924C17.417 173.935 17.2609 173.947 17.1057 173.959C17.6467 173.977 18.1948 174.01 18.7491 174.06C26.7589 174.78 32.9586 178.633 32.5958 182.666C32.485 183.901 31.7715 185.009 30.6052 185.933C33.939 184.337 35.9456 182.263 35.7966 180.128Z" fill="#E1E2E4"/>
<path fill-rule="evenodd" clip-rule="evenodd" d="M17.436 213.389C9.42622 212.669 3.22697 208.816 3.58926 204.783C3.70012 203.548 4.41361 202.439 5.57985 201.516C2.24609 203.112 0.239534 205.186 0.388085 207.321C0.674546 211.43 8.83335 214.207 18.6111 213.525C18.7677 213.514 18.9238 213.502 19.079 213.49C18.5389 213.472 17.9903 213.438 17.436 213.389Z" fill="#E1E2E4"/>
<path fill-rule="evenodd" clip-rule="evenodd" d="M35.7966 204.851C35.5101 200.743 27.3513 197.965 17.5735 198.647C17.417 198.658 17.2609 198.67 17.1057 198.682C17.6467 198.7 18.1948 198.733 18.7491 198.783C26.7589 199.503 32.9586 203.356 32.5958 207.389C32.485 208.624 31.7715 209.732 30.6052 210.656C33.939 209.06 35.9456 206.986 35.7966 204.851Z" fill="#E1E2E4"/>
<path fill-rule="evenodd" clip-rule="evenodd" d="M17.436 238.112C9.42622 237.392 3.22697 233.539 3.58926 229.506C3.70012 228.271 4.41361 227.162 5.57985 226.239C2.24609 227.835 0.239534 229.909 0.388085 232.044C0.674546 236.153 8.83335 238.93 18.6111 238.248C18.7677 238.237 18.9238 238.225 19.079 238.213C18.5389 238.195 17.9903 238.161 17.436 238.112Z" fill="#E1E2E4"/>
<path fill-rule="evenodd" clip-rule="evenodd" d="M35.7966 229.574C35.5101 225.466 27.3513 222.688 17.5735 223.37C17.417 223.381 17.2609 223.393 17.1057 223.405C17.6467 223.423 18.1948 223.456 18.7491 223.506C26.7589 224.226 32.9586 228.079 32.5958 232.112C32.485 233.347 31.7715 234.455 30.6052 235.379C33.939 233.783 35.9456 231.709 35.7966 229.574Z" fill="#E1E2E4"/>
<path fill-rule="evenodd" clip-rule="evenodd" d="M17.436 262.835C9.42622 262.115 3.22697 258.262 3.58926 254.229C3.70012 252.994 4.41361 251.885 5.57985 250.962C2.24609 252.558 0.239534 254.632 0.388085 256.767C0.674546 260.876 8.83335 263.653 18.6111 262.971C18.7677 262.96 18.9238 262.948 19.079 262.936C18.5389 262.918 17.9903 262.884 17.436 262.835Z" fill="#E1E2E4"/>
<path fill-rule="evenodd" clip-rule="evenodd" d="M35.7966 254.297C35.5101 250.189 27.3513 247.411 17.5735 248.093C17.417 248.104 17.2609 248.116 17.1057 248.128C17.6467 248.146 18.1948 248.179 18.7491 248.229C26.7589 248.949 32.9586 252.802 32.5958 256.835C32.485 258.07 31.7715 259.178 30.6052 260.102C33.939 258.506 35.9456 256.432 35.7966 254.297Z" fill="#E1E2E4"/>
<path fill-rule="evenodd" clip-rule="evenodd" d="M17.436 287.558C9.42622 286.838 3.22697 282.985 3.58926 278.952C3.70012 277.717 4.41361 276.608 5.57985 275.685C2.24609 277.281 0.239534 279.355 0.388085 281.49C0.674546 285.599 8.83335 288.376 18.6111 287.694C18.7677 287.683 18.9238 287.671 19.079 287.659C18.5389 287.641 17.9903 287.607 17.436 287.558Z" fill="#E1E2E4"/>
<path fill-rule="evenodd" clip-rule="evenodd" d="M35.7966 279.02C35.5101 274.912 27.3513 272.134 17.5735 272.816C17.417 272.827 17.2609 272.839 17.1057 272.851C17.6467 272.869 18.1948 272.902 18.7491 272.952C26.7589 273.672 32.9586 277.525 32.5958 281.558C32.485 282.793 31.7715 283.901 30.6052 284.825C33.939 283.229 35.9456 281.155 35.7966 279.02Z" fill="#E1E2E4"/>
<path fill-rule="evenodd" clip-rule="evenodd" d="M17.436 312.281C9.42622 311.561 3.22697 307.708 3.58926 303.675C3.70012 302.44 4.41361 301.331 5.57985 300.408C2.24609 302.004 0.239534 304.078 0.388085 306.213C0.674546 310.322 8.83335 313.099 18.6111 312.417C18.7677 312.406 18.9238 312.394 19.079 312.382C18.5389 312.364 17.9903 312.33 17.436 312.281Z" fill="#E1E2E4"/>
<path fill-rule="evenodd" clip-rule="evenodd" d="M35.7966 303.743C35.5101 299.635 27.3513 296.857 17.5735 297.539C17.417 297.55 17.2609 297.562 17.1057 297.574C17.6467 297.592 18.1948 297.625 18.7491 297.675C26.7589 298.395 32.9586 302.248 32.5958 306.281C32.485 307.516 31.7715 308.625 30.6052 309.548C33.939 307.952 35.9456 305.878 35.7966 303.743Z" fill="#E1E2E4"/>
<path fill-rule="evenodd" clip-rule="evenodd" d="M17.436 337.004C9.42622 336.284 3.22697 332.431 3.58926 328.398C3.70012 327.163 4.41361 326.054 5.57985 325.131C2.24609 326.727 0.239534 328.801 0.388085 330.936C0.674546 335.045 8.83335 337.822 18.6111 337.14C18.7677 337.129 18.9238 337.117 19.079 337.105C18.5389 337.087 17.9903 337.053 17.436 337.004Z" fill="#E1E2E4"/>
<path fill-rule="evenodd" clip-rule="evenodd" d="M35.7966 328.466C35.5101 324.358 27.3513 321.58 17.5735 322.262C17.417 322.273 17.2609 322.285 17.1057 322.297C17.6467 322.315 18.1948 322.348 18.7491 322.398C26.7589 323.118 32.9586 326.971 32.5958 331.004C32.485 332.239 31.7715 333.348 30.6052 334.271C33.939 332.675 35.9456 330.601 35.7966 328.466Z" fill="#E1E2E4"/>
<path fill-rule="evenodd" clip-rule="evenodd" d="M63.192 15.6046C55.1822 14.8849 48.983 11.0319 49.3453 6.99883C49.4561 5.76385 50.1696 4.65526 51.3358 3.73202C48.0021 5.32795 45.9955 7.40191 46.1441 9.53706C46.4305 13.6455 54.5893 16.4232 64.3671 15.7408C64.5237 15.7297 64.6798 15.7181 64.835 15.7057C64.2949 15.688 63.7463 15.6543 63.192 15.6046Z" fill="#E1E2E4"/>
<path fill-rule="evenodd" clip-rule="evenodd" d="M81.5526 7.06667C81.2661 2.95867 73.1073 0.180973 63.3295 0.86298C63.173 0.874066 63.0169 0.885595 62.8617 0.898012C63.4027 0.915749 63.9508 0.94945 64.5051 0.999115C72.5149 1.71881 78.7146 5.57184 78.3518 9.60491C78.241 10.8399 77.5275 11.9485 76.3612 12.8717C79.695 11.2762 81.7016 9.20182 81.5526 7.06667Z" fill="#E1E2E4"/>
<path fill-rule="evenodd" clip-rule="evenodd" d="M63.192 40.3276C55.1822 39.6079 48.983 35.7549 49.3453 31.7218C49.4561 30.4869 50.1696 29.3783 51.3358 28.455C48.0021 30.051 45.9955 32.1249 46.1441 34.2601C46.4305 38.3685 54.5893 41.1462 64.3671 40.4638C64.5237 40.4527 64.6798 40.4411 64.835 40.4287C64.2949 40.411 63.7463 40.3773 63.192 40.3276Z" fill="#E1E2E4"/>
<path fill-rule="evenodd" clip-rule="evenodd" d="M81.5526 31.7897C81.2661 27.6817 73.1073 24.904 63.3295 25.586C63.173 25.5971 63.0169 25.6086 62.8617 25.621C63.4027 25.6387 63.9508 25.6725 64.5051 25.7221C72.5149 26.4418 78.7146 30.2948 78.3518 34.3279C78.241 35.5629 77.5275 36.6715 76.3612 37.5947C79.695 35.9992 81.7016 33.9248 81.5526 31.7897Z" fill="#E1E2E4"/>
<path fill-rule="evenodd" clip-rule="evenodd" d="M63.192 65.0506C55.1822 64.3309 48.983 60.4779 49.3453 56.4448C49.4561 55.2099 50.1696 54.1013 51.3358 53.178C48.0021 54.774 45.9955 56.8479 46.1441 58.9831C46.4305 63.0915 54.5893 65.8692 64.3671 65.1868C64.5237 65.1757 64.6798 65.1641 64.835 65.1517C64.2949 65.134 63.7463 65.1003 63.192 65.0506Z" fill="#E1E2E4"/>
<path fill-rule="evenodd" clip-rule="evenodd" d="M81.5526 56.5127C81.2661 52.4047 73.1073 49.627 63.3295 50.309C63.173 50.3201 63.0169 50.3316 62.8617 50.344C63.4027 50.3618 63.9508 50.3955 64.5051 50.4451C72.5149 51.1648 78.7146 55.0178 78.3518 59.0509C78.241 60.2859 77.5275 61.3945 76.3612 62.3177C79.695 60.7222 81.7016 58.6478 81.5526 56.5127Z" fill="#E1E2E4"/>
<path fill-rule="evenodd" clip-rule="evenodd" d="M63.192 89.7736C55.1822 89.0539 48.983 85.2009 49.3453 81.1678C49.4561 79.9329 50.1696 78.8243 51.3358 77.901C48.0021 79.497 45.9955 81.5709 46.1441 83.7061C46.4305 87.8145 54.5893 90.5922 64.3671 89.9098C64.5237 89.8987 64.6798 89.8871 64.835 89.8747C64.2949 89.857 63.7463 89.8233 63.192 89.7736Z" fill="#E1E2E4"/>
<path fill-rule="evenodd" clip-rule="evenodd" d="M81.5526 81.2357C81.2661 77.1277 73.1073 74.35 63.3295 75.032C63.173 75.0431 63.0169 75.0546 62.8617 75.067C63.4027 75.0848 63.9508 75.1185 64.5051 75.1681C72.5149 75.8878 78.7146 79.7408 78.3518 83.7739C78.241 85.0089 77.5275 86.1175 76.3612 87.0407C79.695 85.4452 81.7016 83.3708 81.5526 81.2357Z" fill="#E1E2E4"/>
<path fill-rule="evenodd" clip-rule="evenodd" d="M63.192 114.497C55.1822 113.777 48.983 109.924 49.3453 105.891C49.4561 104.656 50.1696 103.547 51.3358 102.624C48.0021 104.22 45.9955 106.294 46.1441 108.429C46.4305 112.538 54.5893 115.315 64.3671 114.633C64.5237 114.622 64.6798 114.61 64.835 114.598C64.2949 114.58 63.7463 114.546 63.192 114.497Z" fill="#E1E2E4"/>
<path fill-rule="evenodd" clip-rule="evenodd" d="M81.5526 105.959C81.2661 101.851 73.1073 99.073 63.3295 99.755C63.173 99.7661 63.0169 99.7776 62.8617 99.79C63.4027 99.8078 63.9508 99.8415 64.5051 99.8911C72.5149 100.611 78.7146 104.464 78.3518 108.497C78.241 109.732 77.5275 110.84 76.3612 111.764C79.695 110.168 81.7016 108.094 81.5526 105.959Z" fill="#E1E2E4"/>
<path fill-rule="evenodd" clip-rule="evenodd" d="M63.192 139.22C55.1822 138.5 48.983 134.647 49.3453 130.614C49.4561 129.379 50.1696 128.27 51.3358 127.347C48.0021 128.943 45.9955 131.017 46.1441 133.152C46.4305 137.261 54.5893 140.038 64.3671 139.356C64.5237 139.345 64.6798 139.333 64.835 139.321C64.2949 139.303 63.7463 139.269 63.192 139.22Z" fill="#E1E2E4"/>
<path fill-rule="evenodd" clip-rule="evenodd" d="M81.5526 130.682C81.2661 126.574 73.1073 123.796 63.3295 124.478C63.173 124.489 63.0169 124.501 62.8617 124.513C63.4027 124.531 63.9508 124.564 64.5051 124.614C72.5149 125.334 78.7146 129.187 78.3518 133.22C78.241 134.455 77.5275 135.563 76.3612 136.487C79.695 134.891 81.7016 132.817 81.5526 130.682Z" fill="#E1E2E4"/>
<path fill-rule="evenodd" clip-rule="evenodd" d="M63.192 163.943C55.1822 163.223 48.983 159.37 49.3453 155.337C49.4561 154.102 50.1696 152.993 51.3358 152.07C48.0021 153.666 45.9955 155.74 46.1441 157.875C46.4305 161.984 54.5893 164.761 64.3671 164.079C64.5237 164.068 64.6798 164.056 64.835 164.044C64.2949 164.026 63.7463 163.992 63.192 163.943Z" fill="#E1E2E4"/>
<path fill-rule="evenodd" clip-rule="evenodd" d="M81.5526 155.405C81.2661 151.297 73.1073 148.519 63.3295 149.201C63.173 149.212 63.0169 149.224 62.8617 149.236C63.4027 149.254 63.9508 149.287 64.5051 149.337C72.5149 150.057 78.7146 153.91 78.3518 157.943C78.241 159.178 77.5275 160.286 76.3612 161.21C79.695 159.614 81.7016 157.54 81.5526 155.405Z" fill="#E1E2E4"/>
<path fill-rule="evenodd" clip-rule="evenodd" d="M63.192 188.666C55.1822 187.946 48.983 184.093 49.3453 180.06C49.4561 178.825 50.1696 177.716 51.3358 176.793C48.0021 178.389 45.9955 180.463 46.1441 182.598C46.4305 186.707 54.5893 189.484 64.3671 188.802C64.5237 188.791 64.6798 188.779 64.835 188.767C64.2949 188.749 63.7463 188.715 63.192 188.666Z" fill="#E1E2E4"/>
<path fill-rule="evenodd" clip-rule="evenodd" d="M81.5526 180.128C81.2661 176.02 73.1073 173.242 63.3295 173.924C63.173 173.935 63.0169 173.947 62.8617 173.959C63.4027 173.977 63.9508 174.01 64.5051 174.06C72.5149 174.78 78.7146 178.633 78.3518 182.666C78.241 183.901 77.5275 185.009 76.3612 185.933C79.695 184.337 81.7016 182.263 81.5526 180.128Z" fill="#E1E2E4"/>
<path fill-rule="evenodd" clip-rule="evenodd" d="M63.192 213.389C55.1822 212.669 48.983 208.816 49.3453 204.783C49.4561 203.548 50.1696 202.439 51.3358 201.516C48.0021 203.112 45.9955 205.186 46.1441 207.321C46.4305 211.43 54.5893 214.207 64.3671 213.525C64.5237 213.514 64.6798 213.502 64.835 213.49C64.2949 213.472 63.7463 213.438 63.192 213.389Z" fill="#E1E2E4"/>
<path fill-rule="evenodd" clip-rule="evenodd" d="M81.5526 204.851C81.2661 200.743 73.1073 197.965 63.3295 198.647C63.173 198.658 63.0169 198.67 62.8617 198.682C63.4027 198.7 63.9508 198.733 64.5051 198.783C72.5149 199.503 78.7146 203.356 78.3518 207.389C78.241 208.624 77.5275 209.732 76.3612 210.656C79.695 209.06 81.7016 206.986 81.5526 204.851Z" fill="#E1E2E4"/>
<path fill-rule="evenodd" clip-rule="evenodd" d="M63.192 238.112C55.1822 237.392 48.983 233.539 49.3453 229.506C49.4561 228.271 50.1696 227.162 51.3358 226.239C48.0021 227.835 45.9955 229.909 46.1441 232.044C46.4305 236.153 54.5893 238.93 64.3671 238.248C64.5237 238.237 64.6798 238.225 64.835 238.213C64.2949 238.195 63.7463 238.161 63.192 238.112Z" fill="#E1E2E4"/>
<path fill-rule="evenodd" clip-rule="evenodd" d="M81.5526 229.574C81.2661 225.466 73.1073 222.688 63.3295 223.37C63.173 223.381 63.0169 223.393 62.8617 223.405C63.4027 223.423 63.9508 223.456 64.5051 223.506C72.5149 224.226 78.7146 228.079 78.3518 232.112C78.241 233.347 77.5275 234.455 76.3612 235.379C79.695 233.783 81.7016 231.709 81.5526 229.574Z" fill="#E1E2E4"/>
<path fill-rule="evenodd" clip-rule="evenodd" d="M63.192 262.835C55.1822 262.115 48.983 258.262 49.3453 254.229C49.4561 252.994 50.1696 251.885 51.3358 250.962C48.0021 252.558 45.9955 254.632 46.1441 256.767C46.4305 260.876 54.5893 263.653 64.3671 262.971C64.5237 262.96 64.6798 262.948 64.835 262.936C64.2949 262.918 63.7463 262.884 63.192 262.835Z" fill="#E1E2E4"/>
<path fill-rule="evenodd" clip-rule="evenodd" d="M81.5526 254.297C81.2661 250.189 73.1073 247.411 63.3295 248.093C63.173 248.104 63.0169 248.116 62.8617 248.128C63.4027 248.146 63.9508 248.179 64.5051 248.229C72.5149 248.949 78.7146 252.802 78.3518 256.835C78.241 258.07 77.5275 259.178 76.3612 260.102C79.695 258.506 81.7016 256.432 81.5526 254.297Z" fill="#E1E2E4"/>
<path fill-rule="evenodd" clip-rule="evenodd" d="M63.192 287.558C55.1822 286.838 48.983 282.985 49.3453 278.952C49.4561 277.717 50.1696 276.608 51.3358 275.685C48.0021 277.281 45.9955 279.355 46.1441 281.49C46.4305 285.599 54.5893 288.376 64.3671 287.694C64.5237 287.683 64.6798 287.671 64.835 287.659C64.2949 287.641 63.7463 287.607 63.192 287.558Z" fill="#E1E2E4"/>
<path fill-rule="evenodd" clip-rule="evenodd" d="M81.5526 279.02C81.2661 274.912 73.1073 272.134 63.3295 272.816C63.173 272.827 63.0169 272.839 62.8617 272.851C63.4027 272.869 63.9508 272.902 64.5051 272.952C72.5149 273.672 78.7146 277.525 78.3518 281.558C78.241 282.793 77.5275 283.901 76.3612 284.825C79.695 283.229 81.7016 281.155 81.5526 279.02Z" fill="#E1E2E4"/>
<path fill-rule="evenodd" clip-rule="evenodd" d="M63.192 312.281C55.1822 311.561 48.983 307.708 49.3453 303.675C49.4561 302.44 50.1696 301.331 51.3358 300.408C48.0021 302.004 45.9955 304.078 46.1441 306.213C46.4305 310.322 54.5893 313.099 64.3671 312.417C64.5237 312.406 64.6798 312.394 64.835 312.382C64.2949 312.364 63.7463 312.33 63.192 312.281Z" fill="#E1E2E4"/>
<path fill-rule="evenodd" clip-rule="evenodd" d="M81.5526 303.743C81.2661 299.635 73.1073 296.857 63.3295 297.539C63.173 297.55 63.0169 297.562 62.8617 297.574C63.4027 297.592 63.9508 297.625 64.5051 297.675C72.5149 298.395 78.7146 302.248 78.3518 306.281C78.241 307.516 77.5275 308.625 76.3612 309.548C79.695 307.952 81.7016 305.878 81.5526 303.743Z" fill="#E1E2E4"/>
<path fill-rule="evenodd" clip-rule="evenodd" d="M63.192 337.004C55.1822 336.284 48.983 332.431 49.3453 328.398C49.4561 327.163 50.1696 326.054 51.3358 325.131C48.0021 326.727 45.9955 328.801 46.1441 330.936C46.4305 335.045 54.5893 337.822 64.3671 337.14C64.5237 337.129 64.6798 337.117 64.835 337.105C64.2949 337.087 63.7463 337.053 63.192 337.004Z" fill="#E1E2E4"/>
<path fill-rule="evenodd" clip-rule="evenodd" d="M81.5526 328.466C81.2661 324.358 73.1073 321.58 63.3295 322.262C63.173 322.273 63.0169 322.285 62.8617 322.297C63.4027 322.315 63.9508 322.348 64.5051 322.398C72.5149 323.118 78.7146 326.971 78.3518 331.004C78.241 332.239 77.5275 333.348 76.3612 334.271C79.695 332.675 81.7016 330.601 81.5526 328.466Z" fill="#E1E2E4"/>
<path fill-rule="evenodd" clip-rule="evenodd" d="M108.948 15.6046C100.938 14.8849 94.739 11.0319 95.1013 6.99883C95.2121 5.76385 95.9256 4.65526 97.0919 3.73202C93.7581 5.32795 91.7515 7.40191 91.9001 9.53706C92.1865 13.6455 100.345 16.4232 110.123 15.7408C110.28 15.7297 110.436 15.7181 110.591 15.7057C110.051 15.688 109.502 15.6543 108.948 15.6046Z" fill="#E1E2E4"/>
<path fill-rule="evenodd" clip-rule="evenodd" d="M127.309 7.06667C127.022 2.95867 118.863 0.180973 109.085 0.86298C108.929 0.874066 108.773 0.885595 108.618 0.898012C109.159 0.915749 109.707 0.94945 110.261 0.999115C118.271 1.71881 124.471 5.57184 124.108 9.60491C123.997 10.8399 123.283 11.9485 122.117 12.8717C125.451 11.2762 127.458 9.20182 127.309 7.06667Z" fill="#E1E2E4"/>
<path fill-rule="evenodd" clip-rule="evenodd" d="M108.948 40.3276C100.938 39.6079 94.739 35.7549 95.1013 31.7218C95.2121 30.4869 95.9256 29.3783 97.0919 28.455C93.7581 30.051 91.7515 32.1249 91.9001 34.2601C92.1865 38.3685 100.345 41.1462 110.123 40.4638C110.28 40.4527 110.436 40.4411 110.591 40.4287C110.051 40.411 109.502 40.3773 108.948 40.3276Z" fill="#E1E2E4"/>
<path fill-rule="evenodd" clip-rule="evenodd" d="M127.309 31.7897C127.022 27.6817 118.863 24.904 109.085 25.586C108.929 25.5971 108.773 25.6086 108.618 25.621C109.159 25.6387 109.707 25.6725 110.261 25.7221C118.271 26.4418 124.471 30.2948 124.108 34.3279C123.997 35.5629 123.283 36.6715 122.117 37.5947C125.451 35.9992 127.458 33.9248 127.309 31.7897Z" fill="#E1E2E4"/>
<path fill-rule="evenodd" clip-rule="evenodd" d="M108.948 65.0506C100.938 64.3309 94.739 60.4779 95.1013 56.4448C95.2121 55.2099 95.9256 54.1013 97.0919 53.178C93.7581 54.774 91.7515 56.8479 91.9001 58.9831C92.1865 63.0915 100.345 65.8692 110.123 65.1868C110.28 65.1757 110.436 65.1641 110.591 65.1517C110.051 65.134 109.502 65.1003 108.948 65.0506Z" fill="#E1E2E4"/>
<path fill-rule="evenodd" clip-rule="evenodd" d="M127.309 56.5127C127.022 52.4047 118.863 49.627 109.085 50.309C108.929 50.3201 108.773 50.3316 108.618 50.344C109.159 50.3618 109.707 50.3955 110.261 50.4451C118.271 51.1648 124.471 55.0178 124.108 59.0509C123.997 60.2859 123.283 61.3945 122.117 62.3177C125.451 60.7222 127.458 58.6478 127.309 56.5127Z" fill="#E1E2E4"/>
<path fill-rule="evenodd" clip-rule="evenodd" d="M108.948 89.7736C100.938 89.0539 94.739 85.2009 95.1013 81.1678C95.2121 79.9329 95.9256 78.8243 97.0919 77.901C93.7581 79.497 91.7515 81.5709 91.9001 83.7061C92.1865 87.8145 100.345 90.5922 110.123 89.9098C110.28 89.8987 110.436 89.8871 110.591 89.8747C110.051 89.857 109.502 89.8233 108.948 89.7736Z" fill="#E1E2E4"/>
<path fill-rule="evenodd" clip-rule="evenodd" d="M127.309 81.2357C127.022 77.1277 118.863 74.35 109.085 75.032C108.929 75.0431 108.773 75.0546 108.618 75.067C109.159 75.0848 109.707 75.1185 110.261 75.1681C118.271 75.8878 124.471 79.7408 124.108 83.7739C123.997 85.0089 123.283 86.1175 122.117 87.0407C125.451 85.4452 127.458 83.3708 127.309 81.2357Z" fill="#E1E2E4"/>
<path fill-rule="evenodd" clip-rule="evenodd" d="M108.948 114.497C100.938 113.777 94.739 109.924 95.1013 105.891C95.2121 104.656 95.9256 103.547 97.0919 102.624C93.7581 104.22 91.7515 106.294 91.9001 108.429C92.1865 112.538 100.345 115.315 110.123 114.633C110.28 114.622 110.436 114.61 110.591 114.598C110.051 114.58 109.502 114.546 108.948 114.497Z" fill="#E1E2E4"/>
<path fill-rule="evenodd" clip-rule="evenodd" d="M127.309 105.959C127.022 101.851 118.863 99.073 109.085 99.755C108.929 99.7661 108.773 99.7776 108.618 99.79C109.159 99.8078 109.707 99.8415 110.261 99.8911C118.271 100.611 124.471 104.464 124.108 108.497C123.997 109.732 123.283 110.84 122.117 111.764C125.451 110.168 127.458 108.094 127.309 105.959Z" fill="#E1E2E4"/>
<path fill-rule="evenodd" clip-rule="evenodd" d="M108.948 139.22C100.938 138.5 94.739 134.647 95.1013 130.614C95.2121 129.379 95.9256 128.27 97.0919 127.347C93.7581 128.943 91.7515 131.017 91.9001 133.152C92.1865 137.261 100.345 140.038 110.123 139.356C110.28 139.345 110.436 139.333 110.591 139.321C110.051 139.303 109.502 139.269 108.948 139.22Z" fill="#E1E2E4"/>
<path fill-rule="evenodd" clip-rule="evenodd" d="M127.309 130.682C127.022 126.574 118.863 123.796 109.085 124.478C108.929 124.489 108.773 124.501 108.618 124.513C109.159 124.531 109.707 124.564 110.261 124.614C118.271 125.334 124.471 129.187 124.108 133.22C123.997 134.455 123.283 135.563 122.117 136.487C125.451 134.891 127.458 132.817 127.309 130.682Z" fill="#E1E2E4"/>
<path fill-rule="evenodd" clip-rule="evenodd" d="M108.948 163.943C100.938 163.223 94.739 159.37 95.1013 155.337C95.2121 154.102 95.9256 152.993 97.0919 152.07C93.7581 153.666 91.7515 155.74 91.9001 157.875C92.1865 161.984 100.345 164.761 110.123 164.079C110.28 164.068 110.436 164.056 110.591 164.044C110.051 164.026 109.502 163.992 108.948 163.943Z" fill="#E1E2E4"/>
<path fill-rule="evenodd" clip-rule="evenodd" d="M127.309 155.405C127.022 151.297 118.863 148.519 109.085 149.201C108.929 149.212 108.773 149.224 108.618 149.236C109.159 149.254 109.707 149.287 110.261 149.337C118.271 150.057 124.471 153.91 124.108 157.943C123.997 159.178 123.283 160.286 122.117 161.21C125.451 159.614 127.458 157.54 127.309 155.405Z" fill="#E1E2E4"/>
<path fill-rule="evenodd" clip-rule="evenodd" d="M108.948 188.666C100.938 187.946 94.739 184.093 95.1013 180.06C95.2121 178.825 95.9256 177.716 97.0919 176.793C93.7581 178.389 91.7515 180.463 91.9001 182.598C92.1865 186.707 100.345 189.484 110.123 188.802C110.28 188.791 110.436 188.779 110.591 188.767C110.051 188.749 109.502 188.715 108.948 188.666Z" fill="#E1E2E4"/>
<path fill-rule="evenodd" clip-rule="evenodd" d="M127.309 180.128C127.022 176.02 118.863 173.242 109.085 173.924C108.929 173.935 108.773 173.947 108.618 173.959C109.159 173.977 109.707 174.01 110.261 174.06C118.271 174.78 124.471 178.633 124.108 182.666C123.997 183.901 123.283 185.009 122.117 185.933C125.451 184.337 127.458 182.263 127.309 180.128Z" fill="#E1E2E4"/>
<path fill-rule="evenodd" clip-rule="evenodd" d="M108.948 213.389C100.938 212.669 94.739 208.816 95.1013 204.783C95.2121 203.548 95.9256 202.439 97.0919 201.516C93.7581 203.112 91.7515 205.186 91.9001 207.321C92.1865 211.43 100.345 214.207 110.123 213.525C110.28 213.514 110.436 213.502 110.591 213.49C110.051 213.472 109.502 213.438 108.948 213.389Z" fill="#E1E2E4"/>
<path fill-rule="evenodd" clip-rule="evenodd" d="M127.309 204.851C127.022 200.743 118.863 197.965 109.085 198.647C108.929 198.658 108.773 198.67 108.618 198.682C109.159 198.7 109.707 198.733 110.261 198.783C118.271 199.503 124.471 203.356 124.108 207.389C123.997 208.624 123.283 209.732 122.117 210.656C125.451 209.06 127.458 206.986 127.309 204.851Z" fill="#E1E2E4"/>
<path fill-rule="evenodd" clip-rule="evenodd" d="M108.948 238.112C100.938 237.392 94.739 233.539 95.1013 229.506C95.2121 228.271 95.9256 227.162 97.0919 226.239C93.7581 227.835 91.7515 229.909 91.9001 232.044C92.1865 236.153 100.345 238.93 110.123 238.248C110.28 238.237 110.436 238.225 110.591 238.213C110.051 238.195 109.502 238.161 108.948 238.112Z" fill="#E1E2E4"/>
<path fill-rule="evenodd" clip-rule="evenodd" d="M127.309 229.574C127.022 225.466 118.863 222.688 109.085 223.37C108.929 223.381 108.773 223.393 108.618 223.405C109.159 223.423 109.707 223.456 110.261 223.506C118.271 224.226 124.471 228.079 124.108 232.112C123.997 233.347 123.283 234.455 122.117 235.379C125.451 233.783 127.458 231.709 127.309 229.574Z" fill="#E1E2E4"/>
<path fill-rule="evenodd" clip-rule="evenodd" d="M108.948 262.835C100.938 262.115 94.739 258.262 95.1013 254.229C95.2121 252.994 95.9256 251.885 97.0919 250.962C93.7581 252.558 91.7515 254.632 91.9001 256.767C92.1865 260.876 100.345 263.653 110.123 262.971C110.28 262.96 110.436 262.948 110.591 262.936C110.051 262.918 109.502 262.884 108.948 262.835Z" fill="#E1E2E4"/>
<path fill-rule="evenodd" clip-rule="evenodd" d="M127.309 254.297C127.022 250.189 118.863 247.411 109.085 248.093C108.929 248.104 108.773 248.116 108.618 248.128C109.159 248.146 109.707 248.179 110.261 248.229C118.271 248.949 124.471 252.802 124.108 256.835C123.997 258.07 123.283 259.178 122.117 260.102C125.451 258.506 127.458 256.432 127.309 254.297Z" fill="#E1E2E4"/>
<path fill-rule="evenodd" clip-rule="evenodd" d="M108.948 287.558C100.938 286.838 94.739 282.985 95.1013 278.952C95.2121 277.717 95.9256 276.608 97.0919 275.685C93.7581 277.281 91.7515 279.355 91.9001 281.49C92.1865 285.599 100.345 288.376 110.123 287.694C110.28 287.683 110.436 287.671 110.591 287.659C110.051 287.641 109.502 287.607 108.948 287.558Z" fill="#E1E2E4"/>
<path fill-rule="evenodd" clip-rule="evenodd" d="M127.309 279.02C127.022 274.912 118.863 272.134 109.085 272.816C108.929 272.827 108.773 272.839 108.618 272.851C109.159 272.869 109.707 272.902 110.261 272.952C118.271 273.672 124.471 277.525 124.108 281.558C123.997 282.793 123.283 283.901 122.117 284.825C125.451 283.229 127.458 281.155 127.309 279.02Z" fill="#E1E2E4"/>
<path fill-rule="evenodd" clip-rule="evenodd" d="M108.948 312.281C100.938 311.561 94.739 307.708 95.1013 303.675C95.2121 302.44 95.9256 301.331 97.0919 300.408C93.7581 302.004 91.7515 304.078 91.9001 306.213C92.1865 310.322 100.345 313.099 110.123 312.417C110.28 312.406 110.436 312.394 110.591 312.382C110.051 312.364 109.502 312.33 108.948 312.281Z" fill="#E1E2E4"/>
<path fill-rule="evenodd" clip-rule="evenodd" d="M127.309 303.743C127.022 299.635 118.863 296.857 109.085 297.539C108.929 297.55 108.773 297.562 108.618 297.574C109.159 297.592 109.707 297.625 110.261 297.675C118.271 298.395 124.471 302.248 124.108 306.281C123.997 307.516 123.283 308.625 122.117 309.548C125.451 307.952 127.458 305.878 127.309 303.743Z" fill="#E1E2E4"/>
<path fill-rule="evenodd" clip-rule="evenodd" d="M108.948 337.004C100.938 336.284 94.739 332.431 95.1013 328.398C95.2121 327.163 95.9256 326.054 97.0919 325.131C93.7581 326.727 91.7515 328.801 91.9001 330.936C92.1865 335.045 100.345 337.822 110.123 337.14C110.28 337.129 110.436 337.117 110.591 337.105C110.051 337.087 109.502 337.053 108.948 337.004Z" fill="#E1E2E4"/>
<path fill-rule="evenodd" clip-rule="evenodd" d="M127.309 328.466C127.022 324.358 118.863 321.58 109.085 322.262C108.929 322.273 108.773 322.285 108.618 322.297C109.159 322.315 109.707 322.348 110.261 322.398C118.271 323.118 124.471 326.971 124.108 331.004C123.997 332.239 123.283 333.348 122.117 334.271C125.451 332.675 127.458 330.601 127.309 328.466Z" fill="#E1E2E4"/>
<path fill-rule="evenodd" clip-rule="evenodd" d="M154.704 15.6046C146.694 14.8849 140.495 11.0319 140.857 6.99883C140.968 5.76385 141.682 4.65526 142.848 3.73202C139.514 5.32795 137.508 7.40191 137.656 9.53706C137.943 13.6455 146.101 16.4232 155.879 15.7408C156.036 15.7297 156.192 15.7181 156.347 15.7057C155.807 15.688 155.258 15.6543 154.704 15.6046Z" fill="#E1E2E4"/>
<path fill-rule="evenodd" clip-rule="evenodd" d="M173.065 7.06667C172.778 2.95867 164.619 0.180973 154.841 0.86298C154.685 0.874066 154.529 0.885595 154.374 0.898012C154.915 0.915749 155.463 0.94945 156.017 0.999115C164.027 1.71881 170.227 5.57184 169.864 9.60491C169.753 10.8399 169.039 11.9485 167.873 12.8717C171.207 11.2762 173.214 9.20182 173.065 7.06667Z" fill="#E1E2E4"/>
<path fill-rule="evenodd" clip-rule="evenodd" d="M154.704 40.3276C146.694 39.6079 140.495 35.7549 140.857 31.7218C140.968 30.4869 141.682 29.3783 142.848 28.455C139.514 30.051 137.508 32.1249 137.656 34.2601C137.943 38.3685 146.101 41.1462 155.879 40.4638C156.036 40.4527 156.192 40.4411 156.347 40.4287C155.807 40.411 155.258 40.3773 154.704 40.3276Z" fill="#E1E2E4"/>
<path fill-rule="evenodd" clip-rule="evenodd" d="M173.065 31.7897C172.778 27.6817 164.619 24.904 154.841 25.586C154.685 25.5971 154.529 25.6086 154.374 25.621C154.915 25.6387 155.463 25.6725 156.017 25.7221C164.027 26.4418 170.227 30.2948 169.864 34.3279C169.753 35.5629 169.039 36.6715 167.873 37.5947C171.207 35.9992 173.214 33.9248 173.065 31.7897Z" fill="#E1E2E4"/>
<path fill-rule="evenodd" clip-rule="evenodd" d="M154.704 65.0506C146.694 64.3309 140.495 60.4779 140.857 56.4448C140.968 55.2099 141.682 54.1013 142.848 53.178C139.514 54.774 137.508 56.8479 137.656 58.9831C137.943 63.0915 146.101 65.8692 155.879 65.1868C156.036 65.1757 156.192 65.1641 156.347 65.1517C155.807 65.134 155.258 65.1003 154.704 65.0506Z" fill="#E1E2E4"/>
<path fill-rule="evenodd" clip-rule="evenodd" d="M173.065 56.5127C172.778 52.4047 164.619 49.627 154.841 50.309C154.685 50.3201 154.529 50.3316 154.374 50.344C154.915 50.3618 155.463 50.3955 156.017 50.4451C164.027 51.1648 170.227 55.0178 169.864 59.0509C169.753 60.2859 169.039 61.3945 167.873 62.3177C171.207 60.7222 173.214 58.6478 173.065 56.5127Z" fill="#E1E2E4"/>
<path fill-rule="evenodd" clip-rule="evenodd" d="M154.704 89.7736C146.694 89.0539 140.495 85.2009 140.857 81.1678C140.968 79.9329 141.682 78.8243 142.848 77.901C139.514 79.497 137.508 81.5709 137.656 83.7061C137.943 87.8145 146.101 90.5922 155.879 89.9098C156.036 89.8987 156.192 89.8871 156.347 89.8747C155.807 89.857 155.258 89.8233 154.704 89.7736Z" fill="#E1E2E4"/>
<path fill-rule="evenodd" clip-rule="evenodd" d="M173.065 81.2357C172.778 77.1277 164.619 74.35 154.841 75.032C154.685 75.0431 154.529 75.0546 154.374 75.067C154.915 75.0848 155.463 75.1185 156.017 75.1681C164.027 75.8878 170.227 79.7408 169.864 83.7739C169.753 85.0089 169.039 86.1175 167.873 87.0407C171.207 85.4452 173.214 83.3708 173.065 81.2357Z" fill="#E1E2E4"/>
<path fill-rule="evenodd" clip-rule="evenodd" d="M154.704 114.497C146.694 113.777 140.495 109.924 140.857 105.891C140.968 104.656 141.682 103.547 142.848 102.624C139.514 104.22 137.508 106.294 137.656 108.429C137.943 112.538 146.101 115.315 155.879 114.633C156.036 114.622 156.192 114.61 156.347 114.598C155.807 114.58 155.258 114.546 154.704 114.497Z" fill="#E1E2E4"/>
<path fill-rule="evenodd" clip-rule="evenodd" d="M173.065 105.959C172.778 101.851 164.619 99.073 154.841 99.755C154.685 99.7661 154.529 99.7776 154.374 99.79C154.915 99.8078 155.463 99.8415 156.017 99.8911C164.027 100.611 170.227 104.464 169.864 108.497C169.753 109.732 169.039 110.84 167.873 111.764C171.207 110.168 173.214 108.094 173.065 105.959Z" fill="#E1E2E4"/>
<path fill-rule="evenodd" clip-rule="evenodd" d="M154.704 139.22C146.694 138.5 140.495 134.647 140.857 130.614C140.968 129.379 141.682 128.27 142.848 127.347C139.514 128.943 137.508 131.017 137.656 133.152C137.943 137.261 146.101 140.038 155.879 139.356C156.036 139.345 156.192 139.333 156.347 139.321C155.807 139.303 155.258 139.269 154.704 139.22Z" fill="#E1E2E4"/>
<path fill-rule="evenodd" clip-rule="evenodd" d="M173.065 130.682C172.778 126.574 164.619 123.796 154.841 124.478C154.685 124.489 154.529 124.501 154.374 124.513C154.915 124.531 155.463 124.564 156.017 124.614C164.027 125.334 170.227 129.187 169.864 133.22C169.753 134.455 169.039 135.563 167.873 136.487C171.207 134.891 173.214 132.817 173.065 130.682Z" fill="#E1E2E4"/>
<path fill-rule="evenodd" clip-rule="evenodd" d="M154.704 163.943C146.694 163.223 140.495 159.37 140.857 155.337C140.968 154.102 141.682 152.993 142.848 152.07C139.514 153.666 137.508 155.74 137.656 157.875C137.943 161.984 146.101 164.761 155.879 164.079C156.036 164.068 156.192 164.056 156.347 164.044C155.807 164.026 155.258 163.992 154.704 163.943Z" fill="#E1E2E4"/>
<path fill-rule="evenodd" clip-rule="evenodd" d="M173.065 155.405C172.778 151.297 164.619 148.519 154.841 149.201C154.685 149.212 154.529 149.224 154.374 149.236C154.915 149.254 155.463 149.287 156.017 149.337C164.027 150.057 170.227 153.91 169.864 157.943C169.753 159.178 169.039 160.286 167.873 161.21C171.207 159.614 173.214 157.54 173.065 155.405Z" fill="#E1E2E4"/>
<path fill-rule="evenodd" clip-rule="evenodd" d="M154.704 188.666C146.694 187.946 140.495 184.093 140.857 180.06C140.968 178.825 141.682 177.716 142.848 176.793C139.514 178.389 137.508 180.463 137.656 182.598C137.943 186.707 146.101 189.484 155.879 188.802C156.036 188.791 156.192 188.779 156.347 188.767C155.807 188.749 155.258 188.715 154.704 188.666Z" fill="#E1E2E4"/>
<path fill-rule="evenodd" clip-rule="evenodd" d="M173.065 180.128C172.778 176.02 164.619 173.242 154.841 173.924C154.685 173.935 154.529 173.947 154.374 173.959C154.915 173.977 155.463 174.01 156.017 174.06C164.027 174.78 170.227 178.633 169.864 182.666C169.753 183.901 169.039 185.009 167.873 185.933C171.207 184.337 173.214 182.263 173.065 180.128Z" fill="#E1E2E4"/>
<path fill-rule="evenodd" clip-rule="evenodd" d="M154.704 213.389C146.694 212.669 140.495 208.816 140.857 204.783C140.968 203.548 141.682 202.439 142.848 201.516C139.514 203.112 137.508 205.186 137.656 207.321C137.943 211.43 146.101 214.207 155.879 213.525C156.036 213.514 156.192 213.502 156.347 213.49C155.807 213.472 155.258 213.438 154.704 213.389Z" fill="#E1E2E4"/>
<path fill-rule="evenodd" clip-rule="evenodd" d="M173.065 204.851C172.778 200.743 164.619 197.965 154.841 198.647C154.685 198.658 154.529 198.67 154.374 198.682C154.915 198.7 155.463 198.733 156.017 198.783C164.027 199.503 170.227 203.356 169.864 207.389C169.753 208.624 169.039 209.732 167.873 210.656C171.207 209.06 173.214 206.986 173.065 204.851Z" fill="#E1E2E4"/>
<path fill-rule="evenodd" clip-rule="evenodd" d="M154.704 238.112C146.694 237.392 140.495 233.539 140.857 229.506C140.968 228.271 141.682 227.162 142.848 226.239C139.514 227.835 137.508 229.909 137.656 232.044C137.943 236.153 146.101 238.93 155.879 238.248C156.036 238.237 156.192 238.225 156.347 238.213C155.807 238.195 155.258 238.161 154.704 238.112Z" fill="#E1E2E4"/>
<path fill-rule="evenodd" clip-rule="evenodd" d="M173.065 229.574C172.778 225.466 164.619 222.688 154.841 223.37C154.685 223.381 154.529 223.393 154.374 223.405C154.915 223.423 155.463 223.456 156.017 223.506C164.027 224.226 170.227 228.079 169.864 232.112C169.753 233.347 169.039 234.455 167.873 235.379C171.207 233.783 173.214 231.709 173.065 229.574Z" fill="#E1E2E4"/>
<path fill-rule="evenodd" clip-rule="evenodd" d="M154.704 262.835C146.694 262.115 140.495 258.262 140.857 254.229C140.968 252.994 141.682 251.885 142.848 250.962C139.514 252.558 137.508 254.632 137.656 256.767C137.943 260.876 146.101 263.653 155.879 262.971C156.036 262.96 156.192 262.948 156.347 262.936C155.807 262.918 155.258 262.884 154.704 262.835Z" fill="#E1E2E4"/>
<path fill-rule="evenodd" clip-rule="evenodd" d="M173.065 254.297C172.778 250.189 164.619 247.411 154.841 248.093C154.685 248.104 154.529 248.116 154.374 248.128C154.915 248.146 155.463 248.179 156.017 248.229C164.027 248.949 170.227 252.802 169.864 256.835C169.753 258.07 169.039 259.178 167.873 260.102C171.207 258.506 173.214 256.432 173.065 254.297Z" fill="#E1E2E4"/>
<path fill-rule="evenodd" clip-rule="evenodd" d="M154.704 287.558C146.694 286.838 140.495 282.985 140.857 278.952C140.968 277.717 141.682 276.608 142.848 275.685C139.514 277.281 137.508 279.355 137.656 281.49C137.943 285.599 146.101 288.376 155.879 287.694C156.036 287.683 156.192 287.671 156.347 287.659C155.807 287.641 155.258 287.607 154.704 287.558Z" fill="#E1E2E4"/>
<path fill-rule="evenodd" clip-rule="evenodd" d="M173.065 279.02C172.778 274.912 164.619 272.134 154.841 272.816C154.685 272.827 154.529 272.839 154.374 272.851C154.915 272.869 155.463 272.902 156.017 272.952C164.027 273.672 170.227 277.525 169.864 281.558C169.753 282.793 169.039 283.901 167.873 284.825C171.207 283.229 173.214 281.155 173.065 279.02Z" fill="#E1E2E4"/>
<path fill-rule="evenodd" clip-rule="evenodd" d="M154.704 312.281C146.694 311.561 140.495 307.708 140.857 303.675C140.968 302.44 141.682 301.331 142.848 300.408C139.514 302.004 137.508 304.078 137.656 306.213C137.943 310.322 146.101 313.099 155.879 312.417C156.036 312.406 156.192 312.394 156.347 312.382C155.807 312.364 155.258 312.33 154.704 312.281Z" fill="#E1E2E4"/>
<path fill-rule="evenodd" clip-rule="evenodd" d="M173.065 303.743C172.778 299.635 164.619 296.857 154.841 297.539C154.685 297.55 154.529 297.562 154.374 297.574C154.915 297.592 155.463 297.625 156.017 297.675C164.027 298.395 170.227 302.248 169.864 306.281C169.753 307.516 169.039 308.625 167.873 309.548C171.207 307.952 173.214 305.878 173.065 303.743Z" fill="#E1E2E4"/>
<path fill-rule="evenodd" clip-rule="evenodd" d="M154.704 337.004C146.694 336.284 140.495 332.431 140.857 328.398C140.968 327.163 141.682 326.054 142.848 325.131C139.514 326.727 137.508 328.801 137.656 330.936C137.943 335.045 146.101 337.822 155.879 337.14C156.036 337.129 156.192 337.117 156.347 337.105C155.807 337.087 155.258 337.053 154.704 337.004Z" fill="#E1E2E4"/>
<path fill-rule="evenodd" clip-rule="evenodd" d="M173.065 328.466C172.778 324.358 164.619 321.58 154.841 322.262C154.685 322.273 154.529 322.285 154.374 322.297C154.915 322.315 155.463 322.348 156.017 322.398C164.027 323.118 170.227 326.971 169.864 331.004C169.753 332.239 169.039 333.348 167.873 334.271C171.207 332.675 173.214 330.601 173.065 328.466Z" fill="#E1E2E4"/>
<path fill-rule="evenodd" clip-rule="evenodd" d="M200.46 15.6046C192.45 14.8849 186.251 11.0319 186.613 6.99883C186.724 5.76385 187.438 4.65526 188.604 3.73202C185.27 5.32795 183.264 7.40191 183.412 9.53706C183.699 13.6455 191.857 16.4232 201.635 15.7408C201.792 15.7297 201.948 15.7181 202.103 15.7057C201.563 15.688 201.014 15.6543 200.46 15.6046Z" fill="#E1E2E4"/>
<path fill-rule="evenodd" clip-rule="evenodd" d="M218.821 7.06667C218.534 2.95867 210.375 0.180973 200.598 0.86298C200.441 0.874066 200.285 0.885595 200.13 0.898012C200.671 0.915749 201.219 0.94945 201.773 0.999115C209.783 1.71881 215.983 5.57184 215.62 9.60491C215.509 10.8399 214.795 11.9485 213.629 12.8717C216.963 11.2762 218.97 9.20182 218.821 7.06667Z" fill="#E1E2E4"/>
<path fill-rule="evenodd" clip-rule="evenodd" d="M200.46 40.3276C192.45 39.6079 186.251 35.7549 186.613 31.7218C186.724 30.4869 187.438 29.3783 188.604 28.455C185.27 30.051 183.264 32.1249 183.412 34.2601C183.699 38.3685 191.857 41.1462 201.635 40.4638C201.792 40.4527 201.948 40.4411 202.103 40.4287C201.563 40.411 201.014 40.3773 200.46 40.3276Z" fill="#E1E2E4"/>
<path fill-rule="evenodd" clip-rule="evenodd" d="M218.821 31.7897C218.534 27.6817 210.375 24.904 200.598 25.586C200.441 25.5971 200.285 25.6086 200.13 25.621C200.671 25.6387 201.219 25.6725 201.773 25.7221C209.783 26.4418 215.983 30.2948 215.62 34.3279C215.509 35.5629 214.795 36.6715 213.629 37.5947C216.963 35.9992 218.97 33.9248 218.821 31.7897Z" fill="#E1E2E4"/>
<path fill-rule="evenodd" clip-rule="evenodd" d="M200.46 65.0506C192.45 64.3309 186.251 60.4779 186.613 56.4448C186.724 55.2099 187.438 54.1013 188.604 53.178C185.27 54.774 183.264 56.8479 183.412 58.9831C183.699 63.0915 191.857 65.8692 201.635 65.1868C201.792 65.1757 201.948 65.1641 202.103 65.1517C201.563 65.134 201.014 65.1003 200.46 65.0506Z" fill="#E1E2E4"/>
<path fill-rule="evenodd" clip-rule="evenodd" d="M218.821 56.5127C218.534 52.4047 210.375 49.627 200.598 50.309C200.441 50.3201 200.285 50.3316 200.13 50.344C200.671 50.3618 201.219 50.3955 201.773 50.4451C209.783 51.1648 215.983 55.0178 215.62 59.0509C215.509 60.2859 214.795 61.3945 213.629 62.3177C216.963 60.7222 218.97 58.6478 218.821 56.5127Z" fill="#E1E2E4"/>
<path fill-rule="evenodd" clip-rule="evenodd" d="M200.46 89.7736C192.45 89.0539 186.251 85.2009 186.613 81.1678C186.724 79.9329 187.438 78.8243 188.604 77.901C185.27 79.497 183.264 81.5709 183.412 83.7061C183.699 87.8145 191.857 90.5922 201.635 89.9098C201.792 89.8987 201.948 89.8871 202.103 89.8747C201.563 89.857 201.014 89.8233 200.46 89.7736Z" fill="#E1E2E4"/>
<path fill-rule="evenodd" clip-rule="evenodd" d="M218.821 81.2357C218.534 77.1277 210.375 74.35 200.598 75.032C200.441 75.0431 200.285 75.0546 200.13 75.067C200.671 75.0848 201.219 75.1185 201.773 75.1681C209.783 75.8878 215.983 79.7408 215.62 83.7739C215.509 85.0089 214.795 86.1175 213.629 87.0407C216.963 85.4452 218.97 83.3708 218.821 81.2357Z" fill="#E1E2E4"/>
<path fill-rule="evenodd" clip-rule="evenodd" d="M200.46 114.497C192.45 113.777 186.251 109.924 186.613 105.891C186.724 104.656 187.438 103.547 188.604 102.624C185.27 104.22 183.264 106.294 183.412 108.429C183.699 112.538 191.857 115.315 201.635 114.633C201.792 114.622 201.948 114.61 202.103 114.598C201.563 114.58 201.014 114.546 200.46 114.497Z" fill="#E1E2E4"/>
<path fill-rule="evenodd" clip-rule="evenodd" d="M218.821 105.959C218.534 101.851 210.375 99.073 200.598 99.755C200.441 99.7661 200.285 99.7776 200.13 99.79C200.671 99.8078 201.219 99.8415 201.773 99.8911C209.783 100.611 215.983 104.464 215.62 108.497C215.509 109.732 214.795 110.84 213.629 111.764C216.963 110.168 218.97 108.094 218.821 105.959Z" fill="#E1E2E4"/>
<path fill-rule="evenodd" clip-rule="evenodd" d="M200.46 139.22C192.45 138.5 186.251 134.647 186.613 130.614C186.724 129.379 187.438 128.27 188.604 127.347C185.27 128.943 183.264 131.017 183.412 133.152C183.699 137.261 191.857 140.038 201.635 139.356C201.792 139.345 201.948 139.333 202.103 139.321C201.563 139.303 201.014 139.269 200.46 139.22Z" fill="#E1E2E4"/>
<path fill-rule="evenodd" clip-rule="evenodd" d="M218.821 130.682C218.534 126.574 210.375 123.796 200.598 124.478C200.441 124.489 200.285 124.501 200.13 124.513C200.671 124.531 201.219 124.564 201.773 124.614C209.783 125.334 215.983 129.187 215.62 133.22C215.509 134.455 214.795 135.563 213.629 136.487C216.963 134.891 218.97 132.817 218.821 130.682Z" fill="#E1E2E4"/>
<path fill-rule="evenodd" clip-rule="evenodd" d="M200.46 163.943C192.45 163.223 186.251 159.37 186.613 155.337C186.724 154.102 187.438 152.993 188.604 152.07C185.27 153.666 183.264 155.74 183.412 157.875C183.699 161.984 191.857 164.761 201.635 164.079C201.792 164.068 201.948 164.056 202.103 164.044C201.563 164.026 201.014 163.992 200.46 163.943Z" fill="#E1E2E4"/>
<path fill-rule="evenodd" clip-rule="evenodd" d="M218.821 155.405C218.534 151.297 210.375 148.519 200.598 149.201C200.441 149.212 200.285 149.224 200.13 149.236C200.671 149.254 201.219 149.287 201.773 149.337C209.783 150.057 215.983 153.91 215.62 157.943C215.509 159.178 214.795 160.286 213.629 161.21C216.963 159.614 218.97 157.54 218.821 155.405Z" fill="#E1E2E4"/>
<path fill-rule="evenodd" clip-rule="evenodd" d="M200.46 188.666C192.45 187.946 186.251 184.093 186.613 180.06C186.724 178.825 187.438 177.716 188.604 176.793C185.27 178.389 183.264 180.463 183.412 182.598C183.699 186.707 191.857 189.484 201.635 188.802C201.792 188.791 201.948 188.779 202.103 188.767C201.563 188.749 201.014 188.715 200.46 188.666Z" fill="#E1E2E4"/>
<path fill-rule="evenodd" clip-rule="evenodd" d="M218.821 180.128C218.534 176.02 210.375 173.242 200.598 173.924C200.441 173.935 200.285 173.947 200.13 173.959C200.671 173.977 201.219 174.01 201.773 174.06C209.783 174.78 215.983 178.633 215.62 182.666C215.509 183.901 214.795 185.009 213.629 185.933C216.963 184.337 218.97 182.263 218.821 180.128Z" fill="#E1E2E4"/>
<path fill-rule="evenodd" clip-rule="evenodd" d="M200.46 213.389C192.45 212.669 186.251 208.816 186.613 204.783C186.724 203.548 187.438 202.439 188.604 201.516C185.27 203.112 183.264 205.186 183.412 207.321C183.699 211.43 191.857 214.207 201.635 213.525C201.792 213.514 201.948 213.502 202.103 213.49C201.563 213.472 201.014 213.438 200.46 213.389Z" fill="#E1E2E4"/>
<path fill-rule="evenodd" clip-rule="evenodd" d="M218.821 204.851C218.534 200.743 210.375 197.965 200.598 198.647C200.441 198.658 200.285 198.67 200.13 198.682C200.671 198.7 201.219 198.733 201.773 198.783C209.783 199.503 215.983 203.356 215.62 207.389C215.509 208.624 214.795 209.732 213.629 210.656C216.963 209.06 218.97 206.986 218.821 204.851Z" fill="#E1E2E4"/>
<path fill-rule="evenodd" clip-rule="evenodd" d="M200.46 238.112C192.45 237.392 186.251 233.539 186.613 229.506C186.724 228.271 187.438 227.162 188.604 226.239C185.27 227.835 183.264 229.909 183.412 232.044C183.699 236.153 191.857 238.93 201.635 238.248C201.792 238.237 201.948 238.225 202.103 238.213C201.563 238.195 201.014 238.161 200.46 238.112Z" fill="#E1E2E4"/>
<path fill-rule="evenodd" clip-rule="evenodd" d="M218.821 229.574C218.534 225.466 210.375 222.688 200.598 223.37C200.441 223.381 200.285 223.393 200.13 223.405C200.671 223.423 201.219 223.456 201.773 223.506C209.783 224.226 215.983 228.079 215.62 232.112C215.509 233.347 214.795 234.455 213.629 235.379C216.963 233.783 218.97 231.709 218.821 229.574Z" fill="#E1E2E4"/>
<path fill-rule="evenodd" clip-rule="evenodd" d="M200.46 262.835C192.45 262.115 186.251 258.262 186.613 254.229C186.724 252.994 187.438 251.885 188.604 250.962C185.27 252.558 183.264 254.632 183.412 256.767C183.699 260.876 191.857 263.653 201.635 262.971C201.792 262.96 201.948 262.948 202.103 262.936C201.563 262.918 201.014 262.884 200.46 262.835Z" fill="#E1E2E4"/>
<path fill-rule="evenodd" clip-rule="evenodd" d="M218.821 254.297C218.534 250.189 210.375 247.411 200.598 248.093C200.441 248.104 200.285 248.116 200.13 248.128C200.671 248.146 201.219 248.179 201.773 248.229C209.783 248.949 215.983 252.802 215.62 256.835C215.509 258.07 214.795 259.178 213.629 260.102C216.963 258.506 218.97 256.432 218.821 254.297Z" fill="#E1E2E4"/>
<path fill-rule="evenodd" clip-rule="evenodd" d="M200.46 287.558C192.45 286.838 186.251 282.985 186.613 278.952C186.724 277.717 187.438 276.608 188.604 275.685C185.27 277.281 183.264 279.355 183.412 281.49C183.699 285.599 191.857 288.376 201.635 287.694C201.792 287.683 201.948 287.671 202.103 287.659C201.563 287.641 201.014 287.607 200.46 287.558Z" fill="#E1E2E4"/>
<path fill-rule="evenodd" clip-rule="evenodd" d="M218.821 279.02C218.534 274.912 210.375 272.134 200.598 272.816C200.441 272.827 200.285 272.839 200.13 272.851C200.671 272.869 201.219 272.902 201.773 272.952C209.783 273.672 215.983 277.525 215.62 281.558C215.509 282.793 214.795 283.901 213.629 284.825C216.963 283.229 218.97 281.155 218.821 279.02Z" fill="#E1E2E4"/>
<path fill-rule="evenodd" clip-rule="evenodd" d="M200.46 312.281C192.45 311.561 186.251 307.708 186.613 303.675C186.724 302.44 187.438 301.331 188.604 300.408C185.27 302.004 183.264 304.078 183.412 306.213C183.699 310.322 191.857 313.099 201.635 312.417C201.792 312.406 201.948 312.394 202.103 312.382C201.563 312.364 201.014 312.33 200.46 312.281Z" fill="#E1E2E4"/>
<path fill-rule="evenodd" clip-rule="evenodd" d="M218.821 303.743C218.534 299.635 210.375 296.857 200.598 297.539C200.441 297.55 200.285 297.562 200.13 297.574C200.671 297.592 201.219 297.625 201.773 297.675C209.783 298.395 215.983 302.248 215.62 306.281C215.509 307.516 214.795 308.625 213.629 309.548C216.963 307.952 218.97 305.878 218.821 303.743Z" fill="#E1E2E4"/>
<path fill-rule="evenodd" clip-rule="evenodd" d="M200.46 337.004C192.45 336.284 186.251 332.431 186.613 328.398C186.724 327.163 187.438 326.054 188.604 325.131C185.27 326.727 183.264 328.801 183.412 330.936C183.699 335.045 191.857 337.822 201.635 337.14C201.792 337.129 201.948 337.117 202.103 337.105C201.563 337.087 201.014 337.053 200.46 337.004Z" fill="#E1E2E4"/>
<path fill-rule="evenodd" clip-rule="evenodd" d="M218.821 328.466C218.534 324.358 210.375 321.58 200.598 322.262C200.441 322.273 200.285 322.285 200.13 322.297C200.671 322.315 201.219 322.348 201.773 322.398C209.783 323.118 215.983 326.971 215.62 331.004C215.509 332.239 214.795 333.348 213.629 334.271C216.963 332.675 218.97 330.601 218.821 328.466Z" fill="#E1E2E4"/>
<path fill-rule="evenodd" clip-rule="evenodd" d="M246.216 15.6046C238.206 14.8849 232.007 11.0319 232.369 6.99883C232.48 5.76385 233.194 4.65526 234.36 3.73202C231.026 5.32795 229.02 7.40191 229.168 9.53706C229.455 13.6455 237.613 16.4232 247.391 15.7408C247.548 15.7297 247.704 15.7181 247.859 15.7057C247.319 15.688 246.77 15.6543 246.216 15.6046Z" fill="#E1E2E4"/>
<path fill-rule="evenodd" clip-rule="evenodd" d="M264.577 7.06667C264.29 2.95867 256.131 0.180973 246.354 0.86298C246.197 0.874066 246.041 0.885595 245.886 0.898012C246.427 0.915749 246.975 0.94945 247.529 0.999115C255.539 1.71881 261.739 5.57184 261.376 9.60491C261.265 10.8399 260.551 11.9485 259.385 12.8717C262.719 11.2762 264.726 9.20182 264.577 7.06667Z" fill="#E1E2E4"/>
<path fill-rule="evenodd" clip-rule="evenodd" d="M246.216 40.3276C238.206 39.6079 232.007 35.7549 232.369 31.7218C232.48 30.4869 233.194 29.3783 234.36 28.455C231.026 30.051 229.02 32.1249 229.168 34.2601C229.455 38.3685 237.613 41.1462 247.391 40.4638C247.548 40.4527 247.704 40.4411 247.859 40.4287C247.319 40.411 246.77 40.3773 246.216 40.3276Z" fill="#E1E2E4"/>
<path fill-rule="evenodd" clip-rule="evenodd" d="M264.577 31.7897C264.29 27.6817 256.131 24.904 246.354 25.586C246.197 25.5971 246.041 25.6086 245.886 25.621C246.427 25.6387 246.975 25.6725 247.529 25.7221C255.539 26.4418 261.739 30.2948 261.376 34.3279C261.265 35.5629 260.551 36.6715 259.385 37.5947C262.719 35.9992 264.726 33.9248 264.577 31.7897Z" fill="#E1E2E4"/>
<path fill-rule="evenodd" clip-rule="evenodd" d="M246.216 65.0506C238.206 64.3309 232.007 60.4779 232.369 56.4448C232.48 55.2099 233.194 54.1013 234.36 53.178C231.026 54.774 229.02 56.8479 229.168 58.9831C229.455 63.0915 237.613 65.8692 247.391 65.1868C247.548 65.1757 247.704 65.1641 247.859 65.1517C247.319 65.134 246.77 65.1003 246.216 65.0506Z" fill="#E1E2E4"/>
<path fill-rule="evenodd" clip-rule="evenodd" d="M264.577 56.5127C264.29 52.4047 256.131 49.627 246.354 50.309C246.197 50.3201 246.041 50.3316 245.886 50.344C246.427 50.3618 246.975 50.3955 247.529 50.4451C255.539 51.1648 261.739 55.0178 261.376 59.0509C261.265 60.2859 260.551 61.3945 259.385 62.3177C262.719 60.7222 264.726 58.6478 264.577 56.5127Z" fill="#E1E2E4"/>
<path fill-rule="evenodd" clip-rule="evenodd" d="M246.216 89.7736C238.206 89.0539 232.007 85.2009 232.369 81.1678C232.48 79.9329 233.194 78.8243 234.36 77.901C231.026 79.497 229.02 81.5709 229.168 83.7061C229.455 87.8145 237.613 90.5922 247.391 89.9098C247.548 89.8987 247.704 89.8871 247.859 89.8747C247.319 89.857 246.77 89.8233 246.216 89.7736Z" fill="#E1E2E4"/>
<path fill-rule="evenodd" clip-rule="evenodd" d="M264.577 81.2357C264.29 77.1277 256.131 74.35 246.354 75.032C246.197 75.0431 246.041 75.0546 245.886 75.067C246.427 75.0848 246.975 75.1185 247.529 75.1681C255.539 75.8878 261.739 79.7408 261.376 83.7739C261.265 85.0089 260.551 86.1175 259.385 87.0407C262.719 85.4452 264.726 83.3708 264.577 81.2357Z" fill="#E1E2E4"/>
<path fill-rule="evenodd" clip-rule="evenodd" d="M246.216 114.497C238.206 113.777 232.007 109.924 232.369 105.891C232.48 104.656 233.194 103.547 234.36 102.624C231.026 104.22 229.02 106.294 229.168 108.429C229.455 112.538 237.613 115.315 247.391 114.633C247.548 114.622 247.704 114.61 247.859 114.598C247.319 114.58 246.77 114.546 246.216 114.497Z" fill="#E1E2E4"/>
<path fill-rule="evenodd" clip-rule="evenodd" d="M264.577 105.959C264.29 101.851 256.131 99.073 246.354 99.755C246.197 99.7661 246.041 99.7776 245.886 99.79C246.427 99.8078 246.975 99.8415 247.529 99.8911C255.539 100.611 261.739 104.464 261.376 108.497C261.265 109.732 260.551 110.84 259.385 111.764C262.719 110.168 264.726 108.094 264.577 105.959Z" fill="#E1E2E4"/>
<path fill-rule="evenodd" clip-rule="evenodd" d="M246.216 139.22C238.206 138.5 232.007 134.647 232.369 130.614C232.48 129.379 233.194 128.27 234.36 127.347C231.026 128.943 229.02 131.017 229.168 133.152C229.455 137.261 237.613 140.038 247.391 139.356C247.548 139.345 247.704 139.333 247.859 139.321C247.319 139.303 246.77 139.269 246.216 139.22Z" fill="#E1E2E4"/>
<path fill-rule="evenodd" clip-rule="evenodd" d="M264.577 130.682C264.29 126.574 256.131 123.796 246.354 124.478C246.197 124.489 246.041 124.501 245.886 124.513C246.427 124.531 246.975 124.564 247.529 124.614C255.539 125.334 261.739 129.187 261.376 133.22C261.265 134.455 260.551 135.563 259.385 136.487C262.719 134.891 264.726 132.817 264.577 130.682Z" fill="#E1E2E4"/>
<path fill-rule="evenodd" clip-rule="evenodd" d="M246.216 163.943C238.206 163.223 232.007 159.37 232.369 155.337C232.48 154.102 233.194 152.993 234.36 152.07C231.026 153.666 229.02 155.74 229.168 157.875C229.455 161.984 237.613 164.761 247.391 164.079C247.548 164.068 247.704 164.056 247.859 164.044C247.319 164.026 246.77 163.992 246.216 163.943Z" fill="#E1E2E4"/>
<path fill-rule="evenodd" clip-rule="evenodd" d="M264.577 155.405C264.29 151.297 256.131 148.519 246.354 149.201C246.197 149.212 246.041 149.224 245.886 149.236C246.427 149.254 246.975 149.287 247.529 149.337C255.539 150.057 261.739 153.91 261.376 157.943C261.265 159.178 260.551 160.286 259.385 161.21C262.719 159.614 264.726 157.54 264.577 155.405Z" fill="#E1E2E4"/>
<path fill-rule="evenodd" clip-rule="evenodd" d="M246.216 188.666C238.206 187.946 232.007 184.093 232.369 180.06C232.48 178.825 233.194 177.716 234.36 176.793C231.026 178.389 229.02 180.463 229.168 182.598C229.455 186.707 237.613 189.484 247.391 188.802C247.548 188.791 247.704 188.779 247.859 188.767C247.319 188.749 246.77 188.715 246.216 188.666Z" fill="#E1E2E4"/>
<path fill-rule="evenodd" clip-rule="evenodd" d="M264.577 180.128C264.29 176.02 256.131 173.242 246.354 173.924C246.197 173.935 246.041 173.947 245.886 173.959C246.427 173.977 246.975 174.01 247.529 174.06C255.539 174.78 261.739 178.633 261.376 182.666C261.265 183.901 260.551 185.009 259.385 185.933C262.719 184.337 264.726 182.263 264.577 180.128Z" fill="#E1E2E4"/>
<path fill-rule="evenodd" clip-rule="evenodd" d="M246.216 213.389C238.206 212.669 232.007 208.816 232.369 204.783C232.48 203.548 233.194 202.439 234.36 201.516C231.026 203.112 229.02 205.186 229.168 207.321C229.455 211.43 237.613 214.207 247.391 213.525C247.548 213.514 247.704 213.502 247.859 213.49C247.319 213.472 246.77 213.438 246.216 213.389Z" fill="#E1E2E4"/>
<path fill-rule="evenodd" clip-rule="evenodd" d="M264.577 204.851C264.29 200.743 256.131 197.965 246.354 198.647C246.197 198.658 246.041 198.67 245.886 198.682C246.427 198.7 246.975 198.733 247.529 198.783C255.539 199.503 261.739 203.356 261.376 207.389C261.265 208.624 260.551 209.732 259.385 210.656C262.719 209.06 264.726 206.986 264.577 204.851Z" fill="#E1E2E4"/>
<path fill-rule="evenodd" clip-rule="evenodd" d="M246.216 238.112C238.206 237.392 232.007 233.539 232.369 229.506C232.48 228.271 233.194 227.162 234.36 226.239C231.026 227.835 229.02 229.909 229.168 232.044C229.455 236.153 237.613 238.93 247.391 238.248C247.548 238.237 247.704 238.225 247.859 238.213C247.319 238.195 246.77 238.161 246.216 238.112Z" fill="#E1E2E4"/>
<path fill-rule="evenodd" clip-rule="evenodd" d="M264.577 229.574C264.29 225.466 256.131 222.688 246.354 223.37C246.197 223.381 246.041 223.393 245.886 223.405C246.427 223.423 246.975 223.456 247.529 223.506C255.539 224.226 261.739 228.079 261.376 232.112C261.265 233.347 260.551 234.455 259.385 235.379C262.719 233.783 264.726 231.709 264.577 229.574Z" fill="#E1E2E4"/>
<path fill-rule="evenodd" clip-rule="evenodd" d="M246.216 262.835C238.206 262.115 232.007 258.262 232.369 254.229C232.48 252.994 233.194 251.885 234.36 250.962C231.026 252.558 229.02 254.632 229.168 256.767C229.455 260.876 237.613 263.653 247.391 262.971C247.548 262.96 247.704 262.948 247.859 262.936C247.319 262.918 246.77 262.884 246.216 262.835Z" fill="#E1E2E4"/>
<path fill-rule="evenodd" clip-rule="evenodd" d="M264.577 254.297C264.29 250.189 256.131 247.411 246.354 248.093C246.197 248.104 246.041 248.116 245.886 248.128C246.427 248.146 246.975 248.179 247.529 248.229C255.539 248.949 261.739 252.802 261.376 256.835C261.265 258.07 260.551 259.178 259.385 260.102C262.719 258.506 264.726 256.432 264.577 254.297Z" fill="#E1E2E4"/>
<path fill-rule="evenodd" clip-rule="evenodd" d="M246.216 287.558C238.206 286.838 232.007 282.985 232.369 278.952C232.48 277.717 233.194 276.608 234.36 275.685C231.026 277.281 229.02 279.355 229.168 281.49C229.455 285.599 237.613 288.376 247.391 287.694C247.548 287.683 247.704 287.671 247.859 287.659C247.319 287.641 246.77 287.607 246.216 287.558Z" fill="#E1E2E4"/>
<path fill-rule="evenodd" clip-rule="evenodd" d="M264.577 279.02C264.29 274.912 256.131 272.134 246.354 272.816C246.197 272.827 246.041 272.839 245.886 272.851C246.427 272.869 246.975 272.902 247.529 272.952C255.539 273.672 261.739 277.525 261.376 281.558C261.265 282.793 260.551 283.901 259.385 284.825C262.719 283.229 264.726 281.155 264.577 279.02Z" fill="#E1E2E4"/>
<path fill-rule="evenodd" clip-rule="evenodd" d="M246.216 312.281C238.206 311.561 232.007 307.708 232.369 303.675C232.48 302.44 233.194 301.331 234.36 300.408C231.026 302.004 229.02 304.078 229.168 306.213C229.455 310.322 237.613 313.099 247.391 312.417C247.548 312.406 247.704 312.394 247.859 312.382C247.319 312.364 246.77 312.33 246.216 312.281Z" fill="#E1E2E4"/>
<path fill-rule="evenodd" clip-rule="evenodd" d="M264.577 303.743C264.29 299.635 256.131 296.857 246.354 297.539C246.197 297.55 246.041 297.562 245.886 297.574C246.427 297.592 246.975 297.625 247.529 297.675C255.539 298.395 261.739 302.248 261.376 306.281C261.265 307.516 260.551 308.625 259.385 309.548C262.719 307.952 264.726 305.878 264.577 303.743Z" fill="#E1E2E4"/>
<path fill-rule="evenodd" clip-rule="evenodd" d="M246.216 337.004C238.206 336.284 232.007 332.431 232.369 328.398C232.48 327.163 233.194 326.054 234.36 325.131C231.026 326.727 229.02 328.801 229.168 330.936C229.455 335.045 237.613 337.822 247.391 337.14C247.548 337.129 247.704 337.117 247.859 337.105C247.319 337.087 246.77 337.053 246.216 337.004Z" fill="#E1E2E4"/>
<path fill-rule="evenodd" clip-rule="evenodd" d="M264.577 328.466C264.29 324.358 256.131 321.58 246.354 322.262C246.197 322.273 246.041 322.285 245.886 322.297C246.427 322.315 246.975 322.348 247.529 322.398C255.539 323.118 261.739 326.971 261.376 331.004C261.265 332.239 260.551 333.348 259.385 334.271C262.719 332.675 264.726 330.601 264.577 328.466Z" fill="#E1E2E4"/>
<path fill-rule="evenodd" clip-rule="evenodd" d="M291.972 15.6046C283.962 14.8849 277.763 11.0319 278.125 6.99883C278.236 5.76385 278.95 4.65526 280.116 3.73202C276.782 5.32795 274.776 7.40191 274.924 9.53706C275.211 13.6455 283.369 16.4232 293.147 15.7408C293.304 15.7297 293.46 15.7181 293.615 15.7057C293.075 15.688 292.526 15.6543 291.972 15.6046Z" fill="#E1E2E4"/>
<path fill-rule="evenodd" clip-rule="evenodd" d="M310.333 7.06667C310.046 2.95867 301.887 0.180973 292.109 0.86298C291.953 0.874066 291.797 0.885595 291.642 0.898012C292.183 0.915749 292.731 0.94945 293.285 0.999115C301.295 1.71881 307.495 5.57184 307.132 9.60491C307.021 10.8399 306.307 11.9485 305.141 12.8717C308.475 11.2762 310.482 9.20182 310.333 7.06667Z" fill="#E1E2E4"/>
<path fill-rule="evenodd" clip-rule="evenodd" d="M291.972 40.3276C283.962 39.6079 277.763 35.7549 278.125 31.7218C278.236 30.4869 278.95 29.3783 280.116 28.455C276.782 30.051 274.776 32.1249 274.924 34.2601C275.211 38.3685 283.369 41.1462 293.147 40.4638C293.304 40.4527 293.46 40.4411 293.615 40.4287C293.075 40.411 292.526 40.3773 291.972 40.3276Z" fill="#E1E2E4"/>
<path fill-rule="evenodd" clip-rule="evenodd" d="M310.333 31.7897C310.046 27.6817 301.887 24.904 292.109 25.586C291.953 25.5971 291.797 25.6086 291.642 25.621C292.183 25.6387 292.731 25.6725 293.285 25.7221C301.295 26.4418 307.495 30.2948 307.132 34.3279C307.021 35.5629 306.307 36.6715 305.141 37.5947C308.475 35.9992 310.482 33.9248 310.333 31.7897Z" fill="#E1E2E4"/>
<path fill-rule="evenodd" clip-rule="evenodd" d="M291.972 65.0506C283.962 64.3309 277.763 60.4779 278.125 56.4448C278.236 55.2099 278.95 54.1013 280.116 53.178C276.782 54.774 274.776 56.8479 274.924 58.9831C275.211 63.0915 283.369 65.8692 293.147 65.1868C293.304 65.1757 293.46 65.1641 293.615 65.1517C293.075 65.134 292.526 65.1003 291.972 65.0506Z" fill="#E1E2E4"/>
<path fill-rule="evenodd" clip-rule="evenodd" d="M310.333 56.5127C310.046 52.4047 301.887 49.627 292.109 50.309C291.953 50.3201 291.797 50.3316 291.642 50.344C292.183 50.3618 292.731 50.3955 293.285 50.4451C301.295 51.1648 307.495 55.0178 307.132 59.0509C307.021 60.2859 306.307 61.3945 305.141 62.3177C308.475 60.7222 310.482 58.6478 310.333 56.5127Z" fill="#E1E2E4"/>
<path fill-rule="evenodd" clip-rule="evenodd" d="M291.972 89.7736C283.962 89.0539 277.763 85.2009 278.125 81.1678C278.236 79.9329 278.95 78.8243 280.116 77.901C276.782 79.497 274.776 81.5709 274.924 83.7061C275.211 87.8145 283.369 90.5922 293.147 89.9098C293.304 89.8987 293.46 89.8871 293.615 89.8747C293.075 89.857 292.526 89.8233 291.972 89.7736Z" fill="#E1E2E4"/>
<path fill-rule="evenodd" clip-rule="evenodd" d="M310.333 81.2357C310.046 77.1277 301.887 74.35 292.109 75.032C291.953 75.0431 291.797 75.0546 291.642 75.067C292.183 75.0848 292.731 75.1185 293.285 75.1681C301.295 75.8878 307.495 79.7408 307.132 83.7739C307.021 85.0089 306.307 86.1175 305.141 87.0407C308.475 85.4452 310.482 83.3708 310.333 81.2357Z" fill="#E1E2E4"/>
<path fill-rule="evenodd" clip-rule="evenodd" d="M291.972 114.497C283.962 113.777 277.763 109.924 278.125 105.891C278.236 104.656 278.95 103.547 280.116 102.624C276.782 104.22 274.776 106.294 274.924 108.429C275.211 112.538 283.369 115.315 293.147 114.633C293.304 114.622 293.46 114.61 293.615 114.598C293.075 114.58 292.526 114.546 291.972 114.497Z" fill="#E1E2E4"/>
<path fill-rule="evenodd" clip-rule="evenodd" d="M310.333 105.959C310.046 101.851 301.887 99.073 292.109 99.755C291.953 99.7661 291.797 99.7776 291.642 99.79C292.183 99.8078 292.731 99.8415 293.285 99.8911C301.295 100.611 307.495 104.464 307.132 108.497C307.021 109.732 306.307 110.84 305.141 111.764C308.475 110.168 310.482 108.094 310.333 105.959Z" fill="#E1E2E4"/>
<path fill-rule="evenodd" clip-rule="evenodd" d="M291.972 139.22C283.962 138.5 277.763 134.647 278.125 130.614C278.236 129.379 278.95 128.27 280.116 127.347C276.782 128.943 274.776 131.017 274.924 133.152C275.211 137.261 283.369 140.038 293.147 139.356C293.304 139.345 293.46 139.333 293.615 139.321C293.075 139.303 292.526 139.269 291.972 139.22Z" fill="#E1E2E4"/>
<path fill-rule="evenodd" clip-rule="evenodd" d="M310.333 130.682C310.046 126.574 301.887 123.796 292.109 124.478C291.953 124.489 291.797 124.501 291.642 124.513C292.183 124.531 292.731 124.564 293.285 124.614C301.295 125.334 307.495 129.187 307.132 133.22C307.021 134.455 306.307 135.563 305.141 136.487C308.475 134.891 310.482 132.817 310.333 130.682Z" fill="#E1E2E4"/>
<path fill-rule="evenodd" clip-rule="evenodd" d="M291.972 163.943C283.962 163.223 277.763 159.37 278.125 155.337C278.236 154.102 278.95 152.993 280.116 152.07C276.782 153.666 274.776 155.74 274.924 157.875C275.211 161.984 283.369 164.761 293.147 164.079C293.304 164.068 293.46 164.056 293.615 164.044C293.075 164.026 292.526 163.992 291.972 163.943Z" fill="#E1E2E4"/>
<path fill-rule="evenodd" clip-rule="evenodd" d="M310.333 155.405C310.046 151.297 301.887 148.519 292.109 149.201C291.953 149.212 291.797 149.224 291.642 149.236C292.183 149.254 292.731 149.287 293.285 149.337C301.295 150.057 307.495 153.91 307.132 157.943C307.021 159.178 306.307 160.286 305.141 161.21C308.475 159.614 310.482 157.54 310.333 155.405Z" fill="#E1E2E4"/>
<path fill-rule="evenodd" clip-rule="evenodd" d="M291.972 188.666C283.962 187.946 277.763 184.093 278.125 180.06C278.236 178.825 278.95 177.716 280.116 176.793C276.782 178.389 274.776 180.463 274.924 182.598C275.211 186.707 283.369 189.484 293.147 188.802C293.304 188.791 293.46 188.779 293.615 188.767C293.075 188.749 292.526 188.715 291.972 188.666Z" fill="#E1E2E4"/>
<path fill-rule="evenodd" clip-rule="evenodd" d="M310.333 180.128C310.046 176.02 301.887 173.242 292.109 173.924C291.953 173.935 291.797 173.947 291.642 173.959C292.183 173.977 292.731 174.01 293.285 174.06C301.295 174.78 307.495 178.633 307.132 182.666C307.021 183.901 306.307 185.009 305.141 185.933C308.475 184.337 310.482 182.263 310.333 180.128Z" fill="#E1E2E4"/>
<path fill-rule="evenodd" clip-rule="evenodd" d="M291.972 213.389C283.962 212.669 277.763 208.816 278.125 204.783C278.236 203.548 278.95 202.439 280.116 201.516C276.782 203.112 274.776 205.186 274.924 207.321C275.211 211.43 283.369 214.207 293.147 213.525C293.304 213.514 293.46 213.502 293.615 213.49C293.075 213.472 292.526 213.438 291.972 213.389Z" fill="#E1E2E4"/>
<path fill-rule="evenodd" clip-rule="evenodd" d="M310.333 204.851C310.046 200.743 301.887 197.965 292.109 198.647C291.953 198.658 291.797 198.67 291.642 198.682C292.183 198.7 292.731 198.733 293.285 198.783C301.295 199.503 307.495 203.356 307.132 207.389C307.021 208.624 306.307 209.732 305.141 210.656C308.475 209.06 310.482 206.986 310.333 204.851Z" fill="#E1E2E4"/>
<path fill-rule="evenodd" clip-rule="evenodd" d="M291.972 238.112C283.962 237.392 277.763 233.539 278.125 229.506C278.236 228.271 278.95 227.162 280.116 226.239C276.782 227.835 274.776 229.909 274.924 232.044C275.211 236.153 283.369 238.93 293.147 238.248C293.304 238.237 293.46 238.225 293.615 238.213C293.075 238.195 292.526 238.161 291.972 238.112Z" fill="#E1E2E4"/>
<path fill-rule="evenodd" clip-rule="evenodd" d="M310.333 229.574C310.046 225.466 301.887 222.688 292.109 223.37C291.953 223.381 291.797 223.393 291.642 223.405C292.183 223.423 292.731 223.456 293.285 223.506C301.295 224.226 307.495 228.079 307.132 232.112C307.021 233.347 306.307 234.455 305.141 235.379C308.475 233.783 310.482 231.709 310.333 229.574Z" fill="#E1E2E4"/>
<path fill-rule="evenodd" clip-rule="evenodd" d="M291.972 262.835C283.962 262.115 277.763 258.262 278.125 254.229C278.236 252.994 278.95 251.885 280.116 250.962C276.782 252.558 274.776 254.632 274.924 256.767C275.211 260.876 283.369 263.653 293.147 262.971C293.304 262.96 293.46 262.948 293.615 262.936C293.075 262.918 292.526 262.884 291.972 262.835Z" fill="#E1E2E4"/>
<path fill-rule="evenodd" clip-rule="evenodd" d="M310.333 254.297C310.046 250.189 301.887 247.411 292.109 248.093C291.953 248.104 291.797 248.116 291.642 248.128C292.183 248.146 292.731 248.179 293.285 248.229C301.295 248.949 307.495 252.802 307.132 256.835C307.021 258.07 306.307 259.178 305.141 260.102C308.475 258.506 310.482 256.432 310.333 254.297Z" fill="#E1E2E4"/>
<path fill-rule="evenodd" clip-rule="evenodd" d="M291.972 287.558C283.962 286.838 277.763 282.985 278.125 278.952C278.236 277.717 278.95 276.608 280.116 275.685C276.782 277.281 274.776 279.355 274.924 281.49C275.211 285.599 283.369 288.376 293.147 287.694C293.304 287.683 293.46 287.671 293.615 287.659C293.075 287.641 292.526 287.607 291.972 287.558Z" fill="#E1E2E4"/>
<path fill-rule="evenodd" clip-rule="evenodd" d="M310.333 279.02C310.046 274.912 301.887 272.134 292.109 272.816C291.953 272.827 291.797 272.839 291.642 272.851C292.183 272.869 292.731 272.902 293.285 272.952C301.295 273.672 307.495 277.525 307.132 281.558C307.021 282.793 306.307 283.901 305.141 284.825C308.475 283.229 310.482 281.155 310.333 279.02Z" fill="#E1E2E4"/>
<path fill-rule="evenodd" clip-rule="evenodd" d="M291.972 312.281C283.962 311.561 277.763 307.708 278.125 303.675C278.236 302.44 278.95 301.331 280.116 300.408C276.782 302.004 274.776 304.078 274.924 306.213C275.211 310.322 283.369 313.099 293.147 312.417C293.304 312.406 293.46 312.394 293.615 312.382C293.075 312.364 292.526 312.33 291.972 312.281Z" fill="#E1E2E4"/>
<path fill-rule="evenodd" clip-rule="evenodd" d="M310.333 303.743C310.046 299.635 301.887 296.857 292.109 297.539C291.953 297.55 291.797 297.562 291.642 297.574C292.183 297.592 292.731 297.625 293.285 297.675C301.295 298.395 307.495 302.248 307.132 306.281C307.021 307.516 306.307 308.625 305.141 309.548C308.475 307.952 310.482 305.878 310.333 303.743Z" fill="#E1E2E4"/>
<path fill-rule="evenodd" clip-rule="evenodd" d="M291.972 337.004C283.962 336.284 277.763 332.431 278.125 328.398C278.236 327.163 278.95 326.054 280.116 325.131C276.782 326.727 274.776 328.801 274.924 330.936C275.211 335.045 283.369 337.822 293.147 337.14C293.304 337.129 293.46 337.117 293.615 337.105C293.075 337.087 292.526 337.053 291.972 337.004Z" fill="#E1E2E4"/>
<path fill-rule="evenodd" clip-rule="evenodd" d="M310.333 328.466C310.046 324.358 301.887 321.58 292.109 322.262C291.953 322.273 291.797 322.285 291.642 322.297C292.183 322.315 292.731 322.348 293.285 322.398C301.295 323.118 307.495 326.971 307.132 331.004C307.021 332.239 306.307 333.348 305.141 334.271C308.475 332.675 310.482 330.601 310.333 328.466Z" fill="#E1E2E4"/>
<path fill-rule="evenodd" clip-rule="evenodd" d="M337.728 15.6046C329.718 14.8849 323.519 11.0319 323.881 6.99883C323.992 5.76385 324.706 4.65526 325.872 3.73202C322.538 5.32795 320.532 7.40191 320.68 9.53706C320.967 13.6455 329.125 16.4232 338.903 15.7408C339.06 15.7297 339.216 15.7181 339.371 15.7057C338.831 15.688 338.282 15.6543 337.728 15.6046Z" fill="#E1E2E4"/>
<path fill-rule="evenodd" clip-rule="evenodd" d="M356.089 7.06667C355.802 2.95867 347.643 0.180973 337.866 0.86298C337.709 0.874066 337.553 0.885595 337.398 0.898012C337.939 0.915749 338.487 0.94945 339.041 0.999115C347.051 1.71881 353.251 5.57184 352.888 9.60491C352.777 10.8399 352.063 11.9485 350.897 12.8717C354.231 11.2762 356.238 9.20182 356.089 7.06667Z" fill="#E1E2E4"/>
<path fill-rule="evenodd" clip-rule="evenodd" d="M337.728 40.3276C329.718 39.6079 323.519 35.7549 323.881 31.7218C323.992 30.4869 324.706 29.3783 325.872 28.455C322.538 30.051 320.532 32.1249 320.68 34.2601C320.967 38.3685 329.125 41.1462 338.903 40.4638C339.06 40.4527 339.216 40.4411 339.371 40.4287C338.831 40.411 338.282 40.3773 337.728 40.3276Z" fill="#E1E2E4"/>
<path fill-rule="evenodd" clip-rule="evenodd" d="M356.089 31.7897C355.802 27.6817 347.643 24.904 337.866 25.586C337.709 25.5971 337.553 25.6086 337.398 25.621C337.939 25.6387 338.487 25.6725 339.041 25.7221C347.051 26.4418 353.251 30.2948 352.888 34.3279C352.777 35.5629 352.063 36.6715 350.897 37.5947C354.231 35.9992 356.238 33.9248 356.089 31.7897Z" fill="#E1E2E4"/>
<path fill-rule="evenodd" clip-rule="evenodd" d="M337.728 65.0506C329.718 64.3309 323.519 60.4779 323.881 56.4448C323.992 55.2099 324.706 54.1013 325.872 53.178C322.538 54.774 320.532 56.8479 320.68 58.9831C320.967 63.0915 329.125 65.8692 338.903 65.1868C339.06 65.1757 339.216 65.1641 339.371 65.1517C338.831 65.134 338.282 65.1003 337.728 65.0506Z" fill="#E1E2E4"/>
<path fill-rule="evenodd" clip-rule="evenodd" d="M356.089 56.5127C355.802 52.4047 347.643 49.627 337.866 50.309C337.709 50.3201 337.553 50.3316 337.398 50.344C337.939 50.3618 338.487 50.3955 339.041 50.4451C347.051 51.1648 353.251 55.0178 352.888 59.0509C352.777 60.2859 352.063 61.3945 350.897 62.3177C354.231 60.7222 356.238 58.6478 356.089 56.5127Z" fill="#E1E2E4"/>
<path fill-rule="evenodd" clip-rule="evenodd" d="M337.728 89.7736C329.718 89.0539 323.519 85.2009 323.881 81.1678C323.992 79.9329 324.706 78.8243 325.872 77.901C322.538 79.497 320.532 81.5709 320.68 83.7061C320.967 87.8145 329.125 90.5922 338.903 89.9098C339.06 89.8987 339.216 89.8871 339.371 89.8747C338.831 89.857 338.282 89.8233 337.728 89.7736Z" fill="#E1E2E4"/>
<path fill-rule="evenodd" clip-rule="evenodd" d="M356.089 81.2357C355.802 77.1277 347.643 74.35 337.866 75.032C337.709 75.0431 337.553 75.0546 337.398 75.067C337.939 75.0848 338.487 75.1185 339.041 75.1681C347.051 75.8878 353.251 79.7408 352.888 83.7739C352.777 85.0089 352.063 86.1175 350.897 87.0407C354.231 85.4452 356.238 83.3708 356.089 81.2357Z" fill="#E1E2E4"/>
<path fill-rule="evenodd" clip-rule="evenodd" d="M337.728 114.497C329.718 113.777 323.519 109.924 323.881 105.891C323.992 104.656 324.706 103.547 325.872 102.624C322.538 104.22 320.532 106.294 320.68 108.429C320.967 112.538 329.125 115.315 338.903 114.633C339.06 114.622 339.216 114.61 339.371 114.598C338.831 114.58 338.282 114.546 337.728 114.497Z" fill="#E1E2E4"/>
<path fill-rule="evenodd" clip-rule="evenodd" d="M356.089 105.959C355.802 101.851 347.643 99.073 337.866 99.755C337.709 99.7661 337.553 99.7776 337.398 99.79C337.939 99.8078 338.487 99.8415 339.041 99.8911C347.051 100.611 353.251 104.464 352.888 108.497C352.777 109.732 352.063 110.84 350.897 111.764C354.231 110.168 356.238 108.094 356.089 105.959Z" fill="#E1E2E4"/>
<path fill-rule="evenodd" clip-rule="evenodd" d="M337.728 139.22C329.718 138.5 323.519 134.647 323.881 130.614C323.992 129.379 324.706 128.27 325.872 127.347C322.538 128.943 320.532 131.017 320.68 133.152C320.967 137.261 329.125 140.038 338.903 139.356C339.06 139.345 339.216 139.333 339.371 139.321C338.831 139.303 338.282 139.269 337.728 139.22Z" fill="#E1E2E4"/>
<path fill-rule="evenodd" clip-rule="evenodd" d="M356.089 130.682C355.802 126.574 347.643 123.796 337.866 124.478C337.709 124.489 337.553 124.501 337.398 124.513C337.939 124.531 338.487 124.564 339.041 124.614C347.051 125.334 353.251 129.187 352.888 133.22C352.777 134.455 352.063 135.563 350.897 136.487C354.231 134.891 356.238 132.817 356.089 130.682Z" fill="#E1E2E4"/>
<path fill-rule="evenodd" clip-rule="evenodd" d="M337.728 163.943C329.718 163.223 323.519 159.37 323.881 155.337C323.992 154.102 324.706 152.993 325.872 152.07C322.538 153.666 320.532 155.74 320.68 157.875C320.967 161.984 329.125 164.761 338.903 164.079C339.06 164.068 339.216 164.056 339.371 164.044C338.831 164.026 338.282 163.992 337.728 163.943Z" fill="#E1E2E4"/>
<path fill-rule="evenodd" clip-rule="evenodd" d="M356.089 155.405C355.802 151.297 347.643 148.519 337.866 149.201C337.709 149.212 337.553 149.224 337.398 149.236C337.939 149.254 338.487 149.287 339.041 149.337C347.051 150.057 353.251 153.91 352.888 157.943C352.777 159.178 352.063 160.286 350.897 161.21C354.231 159.614 356.238 157.54 356.089 155.405Z" fill="#E1E2E4"/>
<path fill-rule="evenodd" clip-rule="evenodd" d="M337.728 188.666C329.718 187.946 323.519 184.093 323.881 180.06C323.992 178.825 324.706 177.716 325.872 176.793C322.538 178.389 320.532 180.463 320.68 182.598C320.967 186.707 329.125 189.484 338.903 188.802C339.06 188.791 339.216 188.779 339.371 188.767C338.831 188.749 338.282 188.715 337.728 188.666Z" fill="#E1E2E4"/>
<path fill-rule="evenodd" clip-rule="evenodd" d="M356.089 180.128C355.802 176.02 347.643 173.242 337.866 173.924C337.709 173.935 337.553 173.947 337.398 173.959C337.939 173.977 338.487 174.01 339.041 174.06C347.051 174.78 353.251 178.633 352.888 182.666C352.777 183.901 352.063 185.009 350.897 185.933C354.231 184.337 356.238 182.263 356.089 180.128Z" fill="#E1E2E4"/>
<path fill-rule="evenodd" clip-rule="evenodd" d="M337.728 213.389C329.718 212.669 323.519 208.816 323.881 204.783C323.992 203.548 324.706 202.439 325.872 201.516C322.538 203.112 320.532 205.186 320.68 207.321C320.967 211.43 329.125 214.207 338.903 213.525C339.06 213.514 339.216 213.502 339.371 213.49C338.831 213.472 338.282 213.438 337.728 213.389Z" fill="#E1E2E4"/>
<path fill-rule="evenodd" clip-rule="evenodd" d="M356.089 204.851C355.802 200.743 347.643 197.965 337.866 198.647C337.709 198.658 337.553 198.67 337.398 198.682C337.939 198.7 338.487 198.733 339.041 198.783C347.051 199.503 353.251 203.356 352.888 207.389C352.777 208.624 352.063 209.732 350.897 210.656C354.231 209.06 356.238 206.986 356.089 204.851Z" fill="#E1E2E4"/>
<path fill-rule="evenodd" clip-rule="evenodd" d="M337.728 238.112C329.718 237.392 323.519 233.539 323.881 229.506C323.992 228.271 324.706 227.162 325.872 226.239C322.538 227.835 320.532 229.909 320.68 232.044C320.967 236.153 329.125 238.93 338.903 238.248C339.06 238.237 339.216 238.225 339.371 238.213C338.831 238.195 338.282 238.161 337.728 238.112Z" fill="#E1E2E4"/>
<path fill-rule="evenodd" clip-rule="evenodd" d="M356.089 229.574C355.802 225.466 347.643 222.688 337.866 223.37C337.709 223.381 337.553 223.393 337.398 223.405C337.939 223.423 338.487 223.456 339.041 223.506C347.051 224.226 353.251 228.079 352.888 232.112C352.777 233.347 352.063 234.455 350.897 235.379C354.231 233.783 356.238 231.709 356.089 229.574Z" fill="#E1E2E4"/>
<path fill-rule="evenodd" clip-rule="evenodd" d="M337.728 262.835C329.718 262.115 323.519 258.262 323.881 254.229C323.992 252.994 324.706 251.885 325.872 250.962C322.538 252.558 320.532 254.632 320.68 256.767C320.967 260.876 329.125 263.653 338.903 262.971C339.06 262.96 339.216 262.948 339.371 262.936C338.831 262.918 338.282 262.884 337.728 262.835Z" fill="#E1E2E4"/>
<path fill-rule="evenodd" clip-rule="evenodd" d="M356.089 254.297C355.802 250.189 347.643 247.411 337.866 248.093C337.709 248.104 337.553 248.116 337.398 248.128C337.939 248.146 338.487 248.179 339.041 248.229C347.051 248.949 353.251 252.802 352.888 256.835C352.777 258.07 352.063 259.178 350.897 260.102C354.231 258.506 356.238 256.432 356.089 254.297Z" fill="#E1E2E4"/>
<path fill-rule="evenodd" clip-rule="evenodd" d="M337.728 287.558C329.718 286.838 323.519 282.985 323.881 278.952C323.992 277.717 324.706 276.608 325.872 275.685C322.538 277.281 320.532 279.355 320.68 281.49C320.967 285.599 329.125 288.376 338.903 287.694C339.06 287.683 339.216 287.671 339.371 287.659C338.831 287.641 338.282 287.607 337.728 287.558Z" fill="#E1E2E4"/>
<path fill-rule="evenodd" clip-rule="evenodd" d="M356.089 279.02C355.802 274.912 347.643 272.134 337.866 272.816C337.709 272.827 337.553 272.839 337.398 272.851C337.939 272.869 338.487 272.902 339.041 272.952C347.051 273.672 353.251 277.525 352.888 281.558C352.777 282.793 352.063 283.901 350.897 284.825C354.231 283.229 356.238 281.155 356.089 279.02Z" fill="#E1E2E4"/>
<path fill-rule="evenodd" clip-rule="evenodd" d="M337.728 312.281C329.718 311.561 323.519 307.708 323.881 303.675C323.992 302.44 324.706 301.331 325.872 300.408C322.538 302.004 320.532 304.078 320.68 306.213C320.967 310.322 329.125 313.099 338.903 312.417C339.06 312.406 339.216 312.394 339.371 312.382C338.831 312.364 338.282 312.33 337.728 312.281Z" fill="#E1E2E4"/>
<path fill-rule="evenodd" clip-rule="evenodd" d="M356.089 303.743C355.802 299.635 347.643 296.857 337.866 297.539C337.709 297.55 337.553 297.562 337.398 297.574C337.939 297.592 338.487 297.625 339.041 297.675C347.051 298.395 353.251 302.248 352.888 306.281C352.777 307.516 352.063 308.625 350.897 309.548C354.231 307.952 356.238 305.878 356.089 303.743Z" fill="#E1E2E4"/>
<path fill-rule="evenodd" clip-rule="evenodd" d="M337.728 337.004C329.718 336.284 323.519 332.431 323.881 328.398C323.992 327.163 324.706 326.054 325.872 325.131C322.538 326.727 320.532 328.801 320.68 330.936C320.967 335.045 329.125 337.822 338.903 337.14C339.06 337.129 339.216 337.117 339.371 337.105C338.831 337.087 338.282 337.053 337.728 337.004Z" fill="#E1E2E4"/>
<path fill-rule="evenodd" clip-rule="evenodd" d="M356.089 328.466C355.802 324.358 347.643 321.58 337.866 322.262C337.709 322.273 337.553 322.285 337.398 322.297C337.939 322.315 338.487 322.348 339.041 322.398C347.051 323.118 353.251 326.971 352.888 331.004C352.777 332.239 352.063 333.348 350.897 334.271C354.231 332.675 356.238 330.601 356.089 328.466Z" fill="#E1E2E4"/>
</svg>
