<svg width="152" height="64" viewBox="0 0 152 64" fill="none" xmlns="http://www.w3.org/2000/svg">
<path d="M0.5 12C0.5 5.64873 5.64873 0.5 12 0.5H140C146.351 0.5 151.5 5.64873 151.5 12V52C151.5 58.3513 146.351 63.5 140 63.5H12C5.64873 63.5 0.5 58.3513 0.5 52V12Z" fill="#F7F7F8" stroke="#E1E2E4"/>
<path d="M76.2118 29.9049C73.8576 29.9049 71.9938 31.6609 71.9938 34.0999C71.9938 36.4413 73.8576 38.295 76.2118 38.295C78.5661 38.295 80.4298 36.5389 80.4298 34.0999C80.4298 31.5634 78.5661 29.9049 76.2118 29.9049ZM76.2118 36.5389C74.9366 36.5389 73.8576 35.4657 73.8576 34.0023C73.8576 32.539 74.9366 31.4658 76.2118 31.4658C77.487 31.4658 78.5661 32.4414 78.5661 34.0023C78.5661 35.4657 77.487 36.5389 76.2118 36.5389ZM67.0891 29.9049C64.7349 29.9049 62.8711 31.6609 62.8711 34.0999C62.8711 36.4413 64.7349 38.295 67.0891 38.295C69.4434 38.295 71.3071 36.5389 71.3071 34.0999C71.3071 31.5634 69.4434 29.9049 67.0891 29.9049ZM67.0891 36.5389C65.8139 36.5389 64.7349 35.4657 64.7349 34.0023C64.7349 32.539 65.8139 31.4658 67.0891 31.4658C68.3643 31.4658 69.4434 32.4414 69.4434 34.0023C69.4434 35.4657 68.3643 36.5389 67.0891 36.5389ZM56.2007 31.1731V32.9292H60.4188C60.3207 33.9048 59.9283 34.6853 59.4378 35.1731C58.8493 35.7584 57.8683 36.4413 56.2007 36.4413C53.5522 36.4413 51.5903 34.3926 51.5903 31.7585C51.5903 29.1244 53.6503 27.0756 56.2007 27.0756C57.574 27.0756 58.6531 27.661 59.4378 28.3439L60.713 27.0756C59.634 26.1001 58.2607 25.3196 56.2988 25.3196C52.7675 25.3196 49.7266 28.2464 49.7266 31.7585C49.7266 35.2706 52.7675 38.1974 56.2988 38.1974C58.2607 38.1974 59.634 37.612 60.8111 36.3438C61.9883 35.1731 62.3806 33.5146 62.3806 32.2463C62.3806 31.856 62.3806 31.4658 62.2825 31.1731H56.2007ZM100.735 32.539C100.343 31.5634 99.3619 29.9049 97.2038 29.9049C95.0458 29.9049 93.2801 31.5634 93.2801 34.0999C93.2801 36.4413 95.0458 38.295 97.4 38.295C99.2638 38.295 100.441 37.1242 100.833 36.4413L99.46 35.4657C98.9695 36.1487 98.3809 36.6364 97.4 36.6364C96.4191 36.6364 95.8305 36.2462 95.34 35.3682L100.931 33.0268L100.735 32.539ZM95.0458 33.9048C95.0458 32.3438 96.321 31.4658 97.2038 31.4658C97.8905 31.4658 98.5771 31.856 98.7733 32.3438L95.0458 33.9048ZM90.4354 37.9047H92.2991V25.7098H90.4354V37.9047ZM87.4926 30.7829C87.0021 30.2951 86.2174 29.8073 85.2364 29.8073C83.1765 29.8073 81.2146 31.6609 81.2146 34.0023C81.2146 36.3438 83.0784 38.0998 85.2364 38.0998C86.2174 38.0998 87.0021 37.612 87.3945 37.1242H87.4926V37.7096C87.4926 39.2705 86.6097 40.1486 85.2364 40.1486C84.1574 40.1486 83.3726 39.3681 83.1764 38.6852L81.607 39.3681C82.0974 40.4413 83.2745 41.8071 85.3345 41.8071C87.4926 41.8071 89.2583 40.5388 89.2583 37.5145V30.1H87.4926V30.7829ZM85.3345 36.5389C84.0593 36.5389 82.9803 35.4657 82.9803 34.0023C82.9803 32.539 84.0593 31.4658 85.3345 31.4658C86.6097 31.4658 87.5907 32.539 87.5907 34.0023C87.5907 35.4657 86.6097 36.5389 85.3345 36.5389ZM109.269 25.7098H104.855V37.9047H106.719V33.3194H109.269C111.329 33.3194 113.291 31.856 113.291 29.5146C113.291 27.1732 111.329 25.7098 109.269 25.7098ZM109.367 31.5634H106.719V27.3683H109.367C110.741 27.3683 111.525 28.539 111.525 29.4171C111.427 30.4902 110.643 31.5634 109.367 31.5634ZM120.648 29.8073C119.275 29.8073 117.902 30.3927 117.411 31.6609L119.079 32.3438C119.471 31.6609 120.06 31.4658 120.746 31.4658C121.727 31.4658 122.61 32.0512 122.708 33.0268V33.1243C122.414 32.9292 121.629 32.6365 120.844 32.6365C119.079 32.6365 117.313 33.6121 117.313 35.3682C117.313 37.0267 118.784 38.0998 120.354 38.0998C121.629 38.0998 122.218 37.5145 122.708 36.9291H122.806V37.9047H124.572V33.2219C124.376 31.0756 122.708 29.8073 120.648 29.8073ZM120.452 36.5389C119.863 36.5389 118.981 36.2462 118.981 35.4657C118.981 34.4901 120.06 34.1975 120.942 34.1975C121.727 34.1975 122.12 34.3926 122.61 34.5877C122.414 35.7584 121.433 36.5389 120.452 36.5389ZM130.752 30.1L128.692 35.3682H128.594L126.436 30.1H124.474L127.711 37.5145L125.847 41.612H127.711L132.714 30.1H130.752ZM114.272 37.9047H116.136V25.7098H114.272V37.9047Z" fill="#3E4149"/>
<path d="M19.3729 20.3291C19.0932 20.6088 19 21.075 19 21.6344V42.2394C19 42.7988 19.1865 43.265 19.4662 43.5447L19.5594 43.638L31.1206 32.0768V31.8903L19.3729 20.3291Z" fill="url(#paint0_linear_1_6080)"/>
<path d="M34.85 35.9929L31.0273 32.1702V31.8905L34.85 28.0679L34.9432 28.1611L39.5118 30.7717C40.8171 31.5176 40.8171 32.7296 39.5118 33.4755L34.85 35.9929Z" fill="url(#paint1_linear_1_6080)"/>
<path d="M34.9424 35.8993L31.0265 31.9834L19.3721 43.6378C19.8382 44.104 20.4909 44.104 21.33 43.7311L34.9424 35.8993Z" fill="url(#paint2_linear_1_6080)"/>
<path d="M34.9424 28.0675L21.33 20.3289C20.4909 19.8628 19.8382 19.956 19.3721 20.4222L31.0265 31.9834L34.9424 28.0675Z" fill="url(#paint3_linear_1_6080)"/>
<path opacity="0.2" d="M21.3309 20.4224L39.5118 30.7716C40.0712 31.1445 40.4441 31.5174 40.4441 31.9836C40.4441 31.5174 40.1644 31.0513 39.5118 30.6783L21.3309 20.3292C20.0256 19.5833 19 20.1427 19 21.6345V21.7277C19 20.3292 20.0256 19.6765 21.3309 20.4224Z" fill="white"/>
<defs>
<linearGradient id="paint0_linear_1_6080" x1="30.0018" y1="21.4572" x2="14.3541" y2="37.104" gradientUnits="userSpaceOnUse">
<stop stop-color="#00A0FF"/>
<stop offset="0.007" stop-color="#00A1FF"/>
<stop offset="0.26" stop-color="#00BEFF"/>
<stop offset="0.512" stop-color="#00D2FF"/>
<stop offset="0.76" stop-color="#00DFFF"/>
<stop offset="1" stop-color="#00E3FF"/>
</linearGradient>
<linearGradient id="paint1_linear_1_6080" x1="41.2217" y1="31.9847" x2="18.6615" y2="31.9847" gradientUnits="userSpaceOnUse">
<stop stop-color="#FFE000"/>
<stop offset="0.409" stop-color="#FFBD00"/>
<stop offset="0.775" stop-color="#FFA500"/>
<stop offset="1" stop-color="#FF9C00"/>
</linearGradient>
<linearGradient id="paint2_linear_1_6080" x1="32.8231" y1="34.1241" x2="11.6046" y2="55.3426" gradientUnits="userSpaceOnUse">
<stop stop-color="#FF3A44"/>
<stop offset="1" stop-color="#C31162"/>
</linearGradient>
<linearGradient id="paint3_linear_1_6080" x1="16.479" y1="13.5004" x2="25.9545" y2="22.9759" gradientUnits="userSpaceOnUse">
<stop stop-color="#32A071"/>
<stop offset="0.069" stop-color="#2DA771"/>
<stop offset="0.476" stop-color="#15CF74"/>
<stop offset="0.801" stop-color="#06E775"/>
<stop offset="1" stop-color="#00F076"/>
</linearGradient>
</defs>
</svg>
