<svg width="152" height="64" viewBox="0 0 152 64" fill="none" xmlns="http://www.w3.org/2000/svg">
<path d="M0 12C0 5.37258 5.37258 0 12 0H140C146.627 0 152 5.37258 152 12V52C152 58.6274 146.627 64 140 64H12C5.37258 64 0 58.6274 0 52V12Z" fill="white" fill-opacity="0.1"/>
<path d="M0.5 12C0.5 5.64873 5.64873 0.5 12 0.5H140C146.351 0.5 151.5 5.64873 151.5 12V52C151.5 58.3513 146.351 63.5 140 63.5H12C5.64873 63.5 0.5 58.3513 0.5 52V12Z" stroke="white" stroke-opacity="0.3"/>
<path d="M76.2113 29.9049C73.8571 29.9049 71.9933 31.6609 71.9933 34.0999C71.9933 36.4413 73.8571 38.295 76.2113 38.295C78.5656 38.295 80.4293 36.5389 80.4293 34.0999C80.4293 31.5634 78.5656 29.9049 76.2113 29.9049ZM76.2113 36.5389C74.9361 36.5389 73.8571 35.4657 73.8571 34.0023C73.8571 32.539 74.9361 31.4658 76.2113 31.4658C77.4865 31.4658 78.5656 32.4414 78.5656 34.0023C78.5656 35.4657 77.4865 36.5389 76.2113 36.5389ZM67.0886 29.9049C64.7344 29.9049 62.8706 31.6609 62.8706 34.0999C62.8706 36.4413 64.7344 38.295 67.0886 38.295C69.4429 38.295 71.3066 36.5389 71.3066 34.0999C71.3066 31.5634 69.4429 29.9049 67.0886 29.9049ZM67.0886 36.5389C65.8134 36.5389 64.7344 35.4657 64.7344 34.0023C64.7344 32.539 65.8134 31.4658 67.0886 31.4658C68.3638 31.4658 69.4429 32.4414 69.4429 34.0023C69.4429 35.4657 68.3638 36.5389 67.0886 36.5389ZM56.2002 31.1731V32.9292H60.4183C60.3202 33.9048 59.9278 34.6853 59.4373 35.1731C58.8488 35.7584 57.8678 36.4413 56.2002 36.4413C53.5517 36.4413 51.5899 34.3926 51.5899 31.7585C51.5899 29.1244 53.6498 27.0756 56.2002 27.0756C57.5736 27.0756 58.6526 27.661 59.4373 28.3439L60.7125 27.0756C59.6335 26.1001 58.2602 25.3196 56.2983 25.3196C52.767 25.3196 49.7261 28.2464 49.7261 31.7585C49.7261 35.2706 52.767 38.1974 56.2983 38.1974C58.2602 38.1974 59.6335 37.612 60.8106 36.3438C61.9878 35.1731 62.3801 33.5146 62.3801 32.2463C62.3801 31.856 62.3801 31.4658 62.282 31.1731H56.2002ZM100.735 32.539C100.342 31.5634 99.3614 29.9049 97.2033 29.9049C95.0453 29.9049 93.2796 31.5634 93.2796 34.0999C93.2796 36.4413 95.0453 38.295 97.3995 38.295C99.2633 38.295 100.44 37.1242 100.833 36.4413L99.4595 35.4657C98.969 36.1487 98.3805 36.6364 97.3995 36.6364C96.4186 36.6364 95.83 36.2462 95.3396 35.3682L100.931 33.0268L100.735 32.539ZM95.0453 33.9048C95.0453 32.3438 96.3205 31.4658 97.2033 31.4658C97.89 31.4658 98.5766 31.856 98.7728 32.3438L95.0453 33.9048ZM90.4349 37.9047H92.2987V25.7098H90.4349V37.9047ZM87.4921 30.7829C87.0016 30.2951 86.2169 29.8073 85.2359 29.8073C83.176 29.8073 81.2141 31.6609 81.2141 34.0023C81.2141 36.3438 83.0779 38.0998 85.2359 38.0998C86.2169 38.0998 87.0016 37.612 87.394 37.1242H87.4921V37.7096C87.4921 39.2705 86.6092 40.1486 85.2359 40.1486C84.1569 40.1486 83.3722 39.3681 83.176 38.6852L81.6065 39.3681C82.0969 40.4413 83.2741 41.8071 85.334 41.8071C87.4921 41.8071 89.2578 40.5388 89.2578 37.5145V30.1H87.4921V30.7829ZM85.334 36.5389C84.0588 36.5389 82.9798 35.4657 82.9798 34.0023C82.9798 32.539 84.0588 31.4658 85.334 31.4658C86.6092 31.4658 87.5902 32.539 87.5902 34.0023C87.5902 35.4657 86.6092 36.5389 85.334 36.5389ZM109.269 25.7098H104.855V37.9047H106.718V33.3194H109.269C111.329 33.3194 113.291 31.856 113.291 29.5146C113.291 27.1732 111.329 25.7098 109.269 25.7098ZM109.367 31.5634H106.718V27.3683H109.367C110.74 27.3683 111.525 28.539 111.525 29.4171C111.427 30.4902 110.642 31.5634 109.367 31.5634ZM120.648 29.8073C119.274 29.8073 117.901 30.3927 117.411 31.6609L119.078 32.3438C119.471 31.6609 120.059 31.4658 120.746 31.4658C121.727 31.4658 122.61 32.0512 122.708 33.0268V33.1243C122.413 32.9292 121.629 32.6365 120.844 32.6365C119.078 32.6365 117.313 33.6121 117.313 35.3682C117.313 37.0267 118.784 38.0998 120.353 38.0998C121.629 38.0998 122.217 37.5145 122.708 36.9291H122.806V37.9047H124.571V33.2219C124.375 31.0756 122.708 29.8073 120.648 29.8073ZM120.451 36.5389C119.863 36.5389 118.98 36.2462 118.98 35.4657C118.98 34.4901 120.059 34.1975 120.942 34.1975C121.727 34.1975 122.119 34.3926 122.61 34.5877C122.413 35.7584 121.432 36.5389 120.451 36.5389ZM130.751 30.1L128.691 35.3682H128.593L126.435 30.1H124.473L127.71 37.5145L125.847 41.612H127.71L132.713 30.1H130.751ZM114.272 37.9047H116.135V25.7098H114.272V37.9047Z" fill="white"/>
<path fill-rule="evenodd" clip-rule="evenodd" d="M20.2237 41.332L20.2239 32.065V32.0649L20.2237 22.9238L29.5015 32.0543L20.2237 41.332ZM19.0237 21.2633C19.0072 21.4026 19 21.5511 19 21.7069V21.7195V42.2964C19 42.3809 19.0043 42.4633 19.0125 42.5433C19.0156 42.5742 19.0194 42.6047 19.0237 42.6349L19.0237 43.1282C19.0237 43.8941 19.8494 44.3757 20.5161 43.9986L35.3277 35.62L39.4966 33.5389C39.9158 33.2993 40.2003 33.0117 40.35 32.7068C40.7326 32.2512 40.6405 31.5152 40.0736 31.1946L39.8193 31.0507C39.7225 30.9762 39.6149 30.9047 39.4966 30.8371L37.2872 29.6184L20.5161 20.1313C19.8494 19.7542 19.0237 20.2358 19.0237 21.0017L19.0237 21.2633ZM20.4734 21.4859L31.0652 31.9095L33.9358 29.1013L20.4734 21.4859ZM36.7019 30.666L35.0077 29.7314L32.5977 32.089L35.0166 34.4173L39.1686 32.0686C39.1619 32.0623 39.1548 32.0559 39.1473 32.0492L36.7019 30.666ZM33.9267 35.0338L31.0186 32.2346V32.2342L20.785 42.4678L33.9267 35.0338Z" fill="white"/>
</svg>
