<svg width="74" height="32" viewBox="0 0 74 32" fill="none" xmlns="http://www.w3.org/2000/svg">
<path d="M12 25C7.029 25 3 20.971 3 16C3 11.029 7.029 7 12 7C16.971 7 21 11.029 21 16C21 20.971 16.971 25 12 25Z" stroke="#A4A7AF" stroke-width="1.6" stroke-linecap="round" stroke-linejoin="round"/>
<path d="M12 17.25V17C12 16.183 12.505 15.74 13.011 15.4C13.505 15.067 14 14.633 14 13.833C14 12.728 13.105 11.833 12 11.833C10.895 11.833 10 12.728 10 13.833" stroke="#A4A7AF" stroke-width="1.6" stroke-linecap="round" stroke-linejoin="round"/>
<circle cx="12" cy="20.25" r="1" fill="#A4A7AF"/>
<path d="M32.8362 22H34.2922L35.3002 19.232H40.3722L41.3962 22H42.8522L38.5322 10.64H37.1402L32.8362 22ZM35.7482 18.016L37.8122 12.32H37.8442L39.9402 18.016H35.7482ZM44.7527 12.784C45.2807 12.784 45.6967 12.368 45.6967 11.856C45.6967 11.344 45.2807 10.928 44.7527 10.928C44.2247 10.928 43.8087 11.344 43.8087 11.856C43.8087 12.368 44.2247 12.784 44.7527 12.784ZM43.4407 25.264C44.6727 25.264 45.4087 24.336 45.4087 22.816V14.208H44.1127V22.816C44.1127 23.712 43.7607 24.096 43.1847 24.096C42.9287 24.096 42.5607 24.016 42.3047 23.856L42.0967 25.008C42.5927 25.216 42.9767 25.264 43.4407 25.264ZM50.1549 22.096C51.1789 22.096 52.1389 21.584 52.7309 20.656H52.7469V22H54.0429V14.208H52.7469V17.984C52.7469 19.84 51.6749 20.912 50.4269 20.912C49.1949 20.912 48.5229 20.24 48.5229 18.48V14.208H47.2269V18.848C47.2269 21.072 48.3629 22.096 50.1549 22.096ZM59.3793 22.096C60.6432 22.096 61.6353 21.504 62.1953 20.56H62.2112V22H63.4593V10.224H62.1632V15.6H62.1473C61.5553 14.656 60.5472 14.112 59.3632 14.112C57.1712 14.112 55.5552 15.856 55.5552 18.16C55.5552 20.528 57.2192 22.096 59.3793 22.096ZM59.5552 20.912C57.9712 20.912 56.8832 19.728 56.8832 18.16C56.8832 16.432 58.0832 15.296 59.5712 15.296C61.1392 15.296 62.2112 16.56 62.2112 18.16C62.2112 19.808 61.0272 20.912 59.5552 20.912ZM68.8398 22.096C70.1038 22.096 71.0638 21.52 71.6238 20.592H71.6398V22H72.8878V14.208H71.5918V15.584L71.5598 15.6C70.9998 14.656 69.9918 14.112 68.8398 14.112C66.6318 14.112 65.0478 15.856 65.0478 18.16C65.0478 20.528 66.6957 22.096 68.8398 22.096ZM69.0318 20.912C67.4318 20.912 66.3598 19.728 66.3598 18.16C66.3598 16.432 67.5598 15.296 69.0318 15.296C70.5678 15.296 71.6398 16.56 71.6398 18.16C71.6398 19.808 70.4718 20.912 69.0318 20.912Z" fill="#A4A7AF"/>
</svg>
