<svg width="32" height="32" viewBox="0 0 32 32" fill="none" xmlns="http://www.w3.org/2000/svg">
<path fill-rule="evenodd" clip-rule="evenodd" d="M16 26.9999C22.0757 26.9999 27 22.0756 27 15.9999C27 9.92416 22.0757 4.99988 16 4.99988C9.92429 4.99988 5 9.92416 5 15.9999C5 22.0756 9.92428 26.9999 16 26.9999ZM29 15.9999C29 23.1802 23.1803 28.9999 16 28.9999C8.81971 28.9999 3 23.1802 3 15.9999C3 8.81959 8.81972 2.99988 16 2.99988C23.1803 2.99988 29 8.81959 29 15.9999ZM16 22.9999C15.4477 22.9999 15 22.5522 15 21.9999L15 15.3332C15 14.7809 15.4477 14.3332 16 14.3332C16.5523 14.3332 17 14.7809 17 15.3332L17 21.9999C17 22.5522 16.5523 22.9999 16 22.9999ZM15.9999 8.73308C15.1899 8.73308 14.5332 9.38973 14.5332 10.1997C14.5332 11.0098 15.1899 11.6664 15.9999 11.6664C16.8099 11.6664 17.4665 11.0098 17.4665 10.1997C17.4665 9.38973 16.8099 8.73308 15.9999 8.73308Z" fill="url(#paint0_linear_1480_2938)"/>
<defs>
<linearGradient id="paint0_linear_1480_2938" x1="16" y1="28.9999" x2="16" y2="2.99988" gradientUnits="userSpaceOnUse">
<stop stop-color="#E95814"/>
<stop offset="1" stop-color="#F08A5B"/>
</linearGradient>
</defs>
</svg>
