<svg width="40" height="40" viewBox="0 0 40 40" fill="none" xmlns="http://www.w3.org/2000/svg">
<circle cx="20" cy="20" r="20" fill="#F47920"/>
<path d="M16.3633 11.8182C15.1578 11.8182 14.0016 12.2971 13.1492 13.1495C12.2968 14.002 11.8179 15.1581 11.8179 16.3636V23.6364C11.8179 24.8419 12.2968 25.9981 13.1492 26.8505C14.0016 27.7029 15.1578 28.1818 16.3633 28.1818H23.6361C24.8416 28.1818 25.9977 27.7029 26.8502 26.8505C27.7026 25.9981 28.1815 24.8419 28.1815 23.6364V16.3636C28.1815 15.1581 27.7026 14.002 26.8502 13.1495C25.9977 12.2971 24.8416 11.8182 23.6361 11.8182H16.3633ZM25.4542 13.6364C25.9542 13.6364 26.3633 14.0455 26.3633 14.5455C26.3633 15.0455 25.9542 15.4545 25.4542 15.4545C24.9542 15.4545 24.5451 15.0455 24.5451 14.5455C24.5451 14.0455 24.9542 13.6364 25.4542 13.6364ZM19.9997 15.4545C21.2052 15.4545 22.3614 15.9334 23.2138 16.7859C24.0662 17.6383 24.5451 18.7945 24.5451 20C24.5451 21.2055 24.0662 22.3617 23.2138 23.2141C22.3614 24.0666 21.2052 24.5455 19.9997 24.5455C18.7942 24.5455 17.638 24.0666 16.7856 23.2141C15.9331 22.3617 15.4542 21.2055 15.4542 20C15.4542 18.7945 15.9331 17.6383 16.7856 16.7859C17.638 15.9334 18.7942 15.4545 19.9997 15.4545ZM19.9997 17.2727C19.6414 17.2728 19.2867 17.3435 18.9557 17.4807C18.6248 17.618 18.3241 17.819 18.0708 18.0724C17.8176 18.3259 17.6167 18.6267 17.4797 18.9577C17.3427 19.2888 17.2723 19.6436 17.2724 20.0018C17.2725 20.3601 17.3432 20.7148 17.4804 21.0458C17.6176 21.3767 17.8187 21.6774 18.0721 21.9307C18.3255 22.1839 18.6264 22.3848 18.9574 22.5218C19.2885 22.6588 19.6432 22.7292 20.0015 22.7291C20.7251 22.7289 21.4189 22.4412 21.9304 21.9294C22.4418 21.4176 22.729 20.7236 22.7288 20C22.7285 19.2764 22.4409 18.5826 21.9291 18.0712C21.4173 17.5597 20.7232 17.2725 19.9997 17.2727Z" fill="white"/>
</svg>
