<svg width="40" height="40" viewBox="0 0 40 40" fill="none" xmlns="http://www.w3.org/2000/svg">
<circle cx="20" cy="20" r="20" fill="#F47920"/>
<g clip-path="url(#clip0_1_5646)">
<path d="M12.4243 12.6834C12.4243 12.1471 12.612 11.7047 12.9874 11.3562C13.3627 11.0076 13.8507 10.8333 14.4513 10.8333C15.0412 10.8333 15.5185 11.0049 15.8831 11.3481C16.2585 11.7021 16.4462 12.1632 16.4462 12.7317C16.4462 13.2465 16.2639 13.6754 15.8992 14.0187C15.5238 14.3726 15.0305 14.5495 14.4192 14.5495H14.4031C13.8132 14.5495 13.3359 14.3726 12.9713 14.0187C12.6066 13.6647 12.4243 13.2196 12.4243 12.6834ZM12.6335 26.76V16.0135H16.2049V26.76H12.6335ZM18.1836 26.76H21.7551V20.7593C21.7551 20.3839 21.798 20.0944 21.8838 19.8906C22.0339 19.5259 22.2618 19.2176 22.5675 18.9656C22.8732 18.7135 23.2566 18.5875 23.7178 18.5875C24.919 18.5875 25.5196 19.3972 25.5196 21.0167V26.76H29.091V20.5985C29.091 19.0111 28.7156 17.8073 27.9649 16.9868C27.2141 16.1663 26.222 15.7561 24.9887 15.7561C23.6051 15.7561 22.5273 16.3513 21.7551 17.5418V17.574H21.739L21.7551 17.5418V16.0135H18.1836C18.2051 16.3567 18.2158 17.4238 18.2158 19.2149C18.2158 21.006 18.2051 23.521 18.1836 26.76Z" fill="white"/>
</g>
<defs>
<clipPath id="clip0_1_5646">
<rect width="20" height="19.112" fill="white" transform="translate(9.09082 10)"/>
</clipPath>
</defs>
</svg>
