<svg width="96" height="48" viewBox="0 0 96 48" fill="none" xmlns="http://www.w3.org/2000/svg">
<path fill-rule="evenodd" clip-rule="evenodd" d="M46.2213 43.8289C24.5145 41.8785 7.71436 31.4366 8.69617 20.5069C8.9966 17.1601 10.9302 14.1558 14.0907 11.6538C5.05614 15.9788 -0.381673 21.5993 0.0209051 27.3856C0.797221 38.5196 22.9078 46.0472 49.4059 44.1978C49.8301 44.1677 50.2531 44.1365 50.6737 44.1029C49.21 44.0548 47.7235 43.9635 46.2213 43.8289Z" fill="url(#paint0_linear_1_5403)"/>
<path fill-rule="evenodd" clip-rule="evenodd" d="M95.979 20.6908C95.2027 9.55803 73.0921 2.0304 46.594 3.87866C46.1698 3.9087 45.7468 3.93995 45.3262 3.9736C46.7923 4.02167 48.2776 4.113 49.7798 4.24759C71.4866 6.198 88.2879 16.6398 87.3049 27.5695C87.0045 30.9163 85.0709 33.9206 81.9104 36.4226C90.945 32.0988 96.3828 26.4771 95.979 20.6908Z" fill="url(#paint1_linear_1_5403)"/>
<path d="M32.297 24.968C32.297 26.219 32.1047 27.333 31.7226 28.3112C31.3392 29.2894 30.7997 30.1114 30.1039 30.7772C29.4081 31.4429 28.5753 31.9477 27.6079 32.2901C26.6393 32.6326 25.5601 32.8045 24.3704 32.8045C23.1795 32.8045 22.1016 32.623 21.133 32.2601C20.1644 31.8972 19.3328 31.378 18.637 30.7015C17.9412 30.0261 17.4016 29.2041 17.0183 28.2355C16.6349 27.2669 16.4438 26.1782 16.4438 24.968C16.4438 23.7783 16.6349 22.6992 17.0183 21.7306C17.4016 20.762 17.9412 19.9412 18.637 19.2646C19.3328 18.5893 20.1656 18.0689 21.133 17.706C22.1016 17.3431 23.1795 17.1616 24.3704 17.1616C25.5601 17.1616 26.6393 17.3479 27.6079 17.7216C28.5765 18.0954 29.4081 18.6193 30.1039 19.2947C30.7997 19.9713 31.3392 20.792 31.7226 21.7606C32.1047 22.728 32.297 23.7976 32.297 24.968ZM21.7062 24.968C21.7062 26.1986 21.9429 27.142 22.4176 27.7969C22.8911 28.453 23.5521 28.7799 24.3993 28.7799C25.2465 28.7799 25.8966 28.447 26.3509 27.7813C26.8051 27.1155 27.0311 26.1782 27.0311 24.9668C27.0311 23.7567 26.7991 22.8242 26.3353 22.168C25.8714 21.5131 25.2153 21.185 24.368 21.185C23.5208 21.185 22.8647 21.5131 22.4008 22.168C21.9381 22.8242 21.7062 23.7567 21.7062 24.968Z" fill="#002FA7"/>
<path d="M40.8184 17.1614C41.6452 17.1614 42.4575 17.2779 43.2543 17.5099C44.051 17.7418 44.742 18.0903 45.3273 18.5542C45.9329 18.1504 46.6131 17.8175 47.3702 17.5555C48.1261 17.2936 49.0394 17.1626 50.1089 17.1626C50.8756 17.1626 51.6267 17.2635 52.3634 17.4654C53.1 17.6673 53.755 17.9846 54.3306 18.4184C54.905 18.8522 55.3641 19.4278 55.7078 20.1429C56.0503 20.8591 56.2221 21.7315 56.2221 22.7602V32.2911C56.0202 32.3512 55.703 32.4125 55.2691 32.4726C54.8353 32.5327 54.3859 32.5639 53.9232 32.5639C53.4798 32.5639 53.0808 32.5339 52.7275 32.4726C52.3742 32.4125 52.0774 32.2911 51.8346 32.1097C51.5931 31.9282 51.4056 31.6818 51.2746 31.3682C51.1436 31.0557 51.0775 30.6472 51.0775 30.1424V22.9104C51.0775 22.3048 50.9057 21.8661 50.5632 21.5945C50.2195 21.3218 49.7556 21.186 49.1716 21.186C48.8892 21.186 48.5863 21.2521 48.2643 21.383C47.941 21.514 47.6995 21.651 47.5384 21.7916C47.5589 21.8721 47.5685 21.9479 47.5685 22.0188C47.5685 22.0897 47.5685 22.1546 47.5685 22.2158V32.2923C47.3462 32.3524 47.0181 32.4137 46.5855 32.4738C46.1516 32.5339 45.713 32.5651 45.2696 32.5651C44.8261 32.5651 44.4272 32.5351 44.0739 32.4738C43.7205 32.4137 43.4237 32.2923 43.181 32.1109C42.9394 31.9294 42.752 31.683 42.621 31.3694C42.49 31.0569 42.4239 30.6484 42.4239 30.1436V22.9116C42.4239 22.306 42.2376 21.8673 41.8639 21.5958C41.4901 21.323 41.0419 21.1872 40.5179 21.1872C40.155 21.1872 39.8414 21.2424 39.5794 21.353C39.3174 21.4636 39.0951 21.5705 38.9136 21.6703V32.2911C38.7117 32.3512 38.3945 32.4125 37.9607 32.4726C37.5268 32.5327 37.0786 32.5639 36.6147 32.5639C36.1713 32.5639 35.7723 32.5339 35.419 32.4726C35.0657 32.4125 34.7689 32.2911 34.5261 32.1097C34.2846 31.9282 34.0971 31.6818 33.9661 31.3682C33.8351 31.0557 33.769 30.6472 33.769 30.1424V21.0045C33.769 20.4601 33.8844 20.0263 34.1175 19.703C34.3495 19.381 34.6667 19.0781 35.0705 18.7957C35.7555 18.3114 36.6087 17.9185 37.6278 17.6156C38.6444 17.3128 39.7092 17.1614 40.8184 17.1614Z" fill="#002FA7"/>
<path d="M67.1194 23.0018C67.1194 22.3769 66.9428 21.9178 66.5895 21.6246C66.2362 21.3326 65.7579 21.1859 65.1522 21.1859C64.7484 21.1859 64.3507 21.2364 63.9565 21.3374C63.5635 21.4383 63.2246 21.5897 62.9434 21.7916V32.2911C62.7415 32.3512 62.4243 32.4125 61.9905 32.4726C61.5566 32.5326 61.1072 32.5639 60.6445 32.5639C60.2011 32.5639 59.8021 32.5338 59.4488 32.4726C59.0955 32.4125 58.7987 32.2911 58.5559 32.1096C58.3144 31.9282 58.1269 31.6818 57.9959 31.3682C57.8649 31.0557 57.7988 30.6471 57.7988 30.1424V21.0646C57.7988 20.5202 57.9142 20.0767 58.1473 19.7331C58.3793 19.3906 58.6965 19.0781 59.1003 18.7945C59.7853 18.3102 60.6481 17.9172 61.6876 17.6144C62.7259 17.3116 63.8808 17.1602 65.1522 17.1602C67.4319 17.1602 69.1864 17.6589 70.417 18.6575C71.6476 19.6561 72.2628 21.0429 72.2628 22.8179V32.2887C72.061 32.3488 71.7437 32.4101 71.3099 32.4702C70.8761 32.5302 70.4278 32.5615 69.9639 32.5615C69.5205 32.5615 69.1215 32.5314 68.7682 32.4702C68.4149 32.4101 68.1181 32.2887 67.8753 32.1072C67.6338 31.9258 67.4463 31.6794 67.3153 31.3658C67.1843 31.0533 67.1182 30.6447 67.1182 30.14V23.0018H67.1194Z" fill="#002FA7"/>
<path d="M79.0342 32.291C78.8119 32.3307 78.4839 32.3859 78.0512 32.4568C77.6174 32.5278 77.1788 32.5626 76.7353 32.5626C76.2919 32.5626 75.8929 32.5326 75.5396 32.4713C75.1863 32.4112 74.8895 32.2898 74.6467 32.1083C74.4052 31.9269 74.2177 31.6805 74.0867 31.3669C73.9557 31.0544 73.8896 30.6458 73.8896 30.1411V17.827C74.112 17.7874 74.4388 17.7321 74.8727 17.6612C75.3065 17.5903 75.7451 17.5554 76.1886 17.5554C76.632 17.5554 77.031 17.5855 77.3843 17.6468C77.7376 17.7068 78.0344 17.8282 78.2772 18.0097C78.5187 18.1911 78.705 18.4387 78.8372 18.7511C78.9682 19.0636 79.0342 19.4722 79.0342 19.9769V32.291Z" fill="#002FA7"/>
<g opacity="0.5">
<path opacity="0.7" d="M40.8185 17.1614C40.1672 17.1614 39.5327 17.2203 38.9126 17.3248V21.6702C39.0941 21.5693 39.3164 21.4635 39.5784 21.353C39.8403 21.2424 40.1528 21.1872 40.5169 21.1872C40.9868 21.1872 41.393 21.3025 41.7415 21.5212V17.2167C41.435 17.1842 41.1286 17.1614 40.8185 17.1614Z" fill="url(#paint2_linear_1_5403)"/>
</g>
<g opacity="0.5">
<path opacity="0.5" d="M65.1533 17.1614C64.3745 17.1614 63.6463 17.2251 62.9541 17.338V21.7844C63.2341 21.5861 63.5682 21.4371 63.9575 21.3374C64.3505 21.2364 64.7495 21.186 65.1533 21.186C65.3792 21.186 65.5811 21.2136 65.7721 21.2545V17.1794C65.5679 17.171 65.3648 17.1614 65.1533 17.1614Z" fill="url(#paint3_linear_1_5403)"/>
</g>
<defs>
<linearGradient id="paint0_linear_1_5403" x1="25.3378" y1="11.6539" x2="25.3378" y2="44.4775" gradientUnits="userSpaceOnUse">
<stop stop-color="#F47920"/>
<stop offset="0.5098" stop-color="#F37720"/>
<stop offset="0.7014" stop-color="#F17021"/>
<stop offset="0.8392" stop-color="#EE6422"/>
<stop offset="0.9506" stop-color="#E95324"/>
<stop offset="1" stop-color="#E64925"/>
</linearGradient>
<linearGradient id="paint1_linear_1_5403" x1="70.6628" y1="3.59986" x2="70.6628" y2="36.4235" gradientUnits="userSpaceOnUse">
<stop stop-color="#F47920"/>
<stop offset="0.5098" stop-color="#F37720"/>
<stop offset="0.7014" stop-color="#F17021"/>
<stop offset="0.8392" stop-color="#EE6422"/>
<stop offset="0.9506" stop-color="#E95324"/>
<stop offset="1" stop-color="#E64925"/>
</linearGradient>
<linearGradient id="paint2_linear_1_5403" x1="38.9127" y1="19.4163" x2="41.741" y2="19.4163" gradientUnits="userSpaceOnUse">
<stop offset="0.0051282"/>
<stop offset="0.4292" stop-opacity="0.5716"/>
<stop offset="0.8178" stop-opacity="0.1789"/>
<stop offset="0.9949" stop-opacity="0"/>
</linearGradient>
<linearGradient id="paint3_linear_1_5403" x1="62.9542" y1="19.4734" x2="65.7717" y2="19.4734" gradientUnits="userSpaceOnUse">
<stop offset="0.0051282"/>
<stop offset="0.4292" stop-opacity="0.5716"/>
<stop offset="0.8178" stop-opacity="0.1789"/>
<stop offset="0.9949" stop-opacity="0"/>
</linearGradient>
</defs>
</svg>
