<svg width="200" height="200" viewBox="0 0 200 200" fill="none" xmlns="http://www.w3.org/2000/svg">
<rect opacity="0.3" x="20" y="20" width="160" height="160" rx="80" fill="#19DB66"/>
<rect opacity="0.3" x="10.5" y="10.5" width="179" height="179" rx="89.5" stroke="#DCFAE8"/>
<rect x="30" y="29.9999" width="140" height="140" rx="70" fill="white"/>
<rect x="146" y="29.9999" width="140" height="93.3334" rx="14" transform="rotate(90 146 29.9999)" fill="url(#paint0_linear_1_6202)"/>
<path fill-rule="evenodd" clip-rule="evenodd" d="M80.4071 56.6095C73.1715 55.9594 67.5715 52.4788 67.8987 48.8356C67.9989 47.72 68.6434 46.7185 69.6969 45.8845C66.6854 47.3262 64.8728 49.1997 65.007 51.1285C65.2657 54.8398 72.6359 57.349 81.4686 56.7325C81.61 56.7225 81.751 56.7121 81.8912 56.7009C81.4033 56.6848 80.9078 56.6544 80.4071 56.6095Z" fill="url(#paint1_linear_1_6202)"/>
<path fill-rule="evenodd" clip-rule="evenodd" d="M80.4071 56.6095C73.1715 55.9594 67.5715 52.4788 67.8987 48.8356C67.9989 47.72 68.6434 46.7185 69.6969 45.8845C66.6854 47.3262 64.8728 49.1997 65.007 51.1285C65.2657 54.8398 72.6359 57.349 81.4686 56.7325C81.61 56.7225 81.751 56.7121 81.8912 56.7009C81.4033 56.6848 80.9078 56.6544 80.4071 56.6095Z" fill="white"/>
<path fill-rule="evenodd" clip-rule="evenodd" d="M96.9927 48.8969C96.7339 45.186 89.3637 42.6768 80.531 43.2928C80.3896 43.3029 80.2486 43.3133 80.1084 43.3245C80.5971 43.3405 81.0922 43.371 81.5929 43.4158C88.8285 44.066 94.429 47.5466 94.1013 51.1898C94.0012 52.3054 93.3566 53.3068 92.3031 54.1408C95.3147 52.6996 97.1273 50.8257 96.9927 48.8969Z" fill="url(#paint2_linear_1_6202)"/>
<path fill-rule="evenodd" clip-rule="evenodd" d="M96.9927 48.8969C96.7339 45.186 89.3637 42.6768 80.531 43.2928C80.3896 43.3029 80.2486 43.3133 80.1084 43.3245C80.5971 43.3405 81.0922 43.371 81.5929 43.4158C88.8285 44.066 94.429 47.5466 94.1013 51.1898C94.0012 52.3054 93.3566 53.3068 92.3031 54.1408C95.3147 52.6996 97.1273 50.8257 96.9927 48.8969Z" fill="white"/>
<path d="M75.7658 50.3226C75.7658 50.7396 75.7017 51.1109 75.5744 51.437C75.4466 51.7631 75.2667 52.0371 75.0348 52.259C74.8029 52.4809 74.5253 52.6491 74.2028 52.7633C73.8799 52.8775 73.5202 52.9347 73.1236 52.9347C72.7267 52.9347 72.3674 52.8743 72.0445 52.7533C71.7216 52.6323 71.4444 52.4593 71.2125 52.2337C70.9806 52.0086 70.8007 51.7346 70.6729 51.4118C70.5451 51.0889 70.4814 50.726 70.4814 50.3226C70.4814 49.926 70.5451 49.5663 70.6729 49.2434C70.8007 48.9206 70.9806 48.647 71.2125 48.4215C71.4444 48.1963 71.722 48.0229 72.0445 47.9019C72.3674 47.7809 72.7267 47.7205 73.1236 47.7205C73.5202 47.7205 73.8799 47.7825 74.2028 47.9071C74.5257 48.0317 74.8029 48.2064 75.0348 48.4315C75.2667 48.657 75.4466 48.9306 75.5744 49.2535C75.7017 49.5759 75.7658 49.9324 75.7658 50.3226ZM72.2356 50.3226C72.2356 50.7328 72.3145 51.0472 72.4727 51.2656C72.6305 51.4843 72.8509 51.5932 73.1333 51.5932C73.4157 51.5932 73.6324 51.4823 73.7838 51.2603C73.9352 51.0384 74.0105 50.726 74.0105 50.3222C74.0105 49.9188 73.9332 49.608 73.7786 49.3893C73.624 49.1709 73.4052 49.0616 73.1228 49.0616C72.8404 49.0616 72.6217 49.1709 72.4671 49.3893C72.3129 49.608 72.2356 49.9188 72.2356 50.3226Z" fill="white"/>
<path d="M78.6066 47.7203C78.8822 47.7203 79.153 47.7592 79.4186 47.8365C79.6842 47.9138 79.9145 48.03 80.1096 48.1846C80.3115 48.05 80.5382 47.9391 80.7906 47.8517C81.0425 47.7644 81.347 47.7207 81.7035 47.7207C81.959 47.7207 82.2094 47.7544 82.4549 47.8217C82.7005 47.889 82.9188 47.9947 83.1107 48.1393C83.3022 48.2839 83.4552 48.4758 83.5697 48.7142C83.6839 48.9529 83.7412 49.2437 83.7412 49.5866V52.7636C83.6739 52.7836 83.5681 52.804 83.4235 52.8241C83.2789 52.8441 83.1291 52.8545 82.9749 52.8545C82.8271 52.8545 82.6941 52.8445 82.5763 52.8241C82.4585 52.804 82.3596 52.7636 82.2787 52.7031C82.1982 52.6426 82.1357 52.5605 82.092 52.4559C82.0484 52.3518 82.0263 52.2156 82.0263 52.0474V49.6367C82.0263 49.4348 81.969 49.2886 81.8549 49.1981C81.7403 49.1071 81.5857 49.0619 81.391 49.0619C81.2969 49.0619 81.1959 49.0839 81.0886 49.1276C80.9808 49.1712 80.9003 49.2169 80.8466 49.2638C80.8534 49.2906 80.8566 49.3158 80.8566 49.3395C80.8566 49.3631 80.8566 49.3847 80.8566 49.4052V52.764C80.7825 52.784 80.6732 52.8044 80.529 52.8245C80.3844 52.8445 80.2382 52.8549 80.0903 52.8549C79.9425 52.8549 79.8095 52.8449 79.6918 52.8245C79.574 52.8044 79.4751 52.764 79.3941 52.7035C79.3136 52.643 79.2511 52.5609 79.2075 52.4563C79.1638 52.3522 79.1418 52.216 79.1418 52.0478V49.6371C79.1418 49.4352 79.0797 49.289 78.9551 49.1985C78.8305 49.1075 78.6811 49.0623 78.5065 49.0623C78.3855 49.0623 78.2809 49.0807 78.1936 49.1175C78.1063 49.1544 78.0322 49.19 77.9717 49.2233V52.7636C77.9044 52.7836 77.7987 52.804 77.654 52.8241C77.5094 52.8441 77.36 52.8545 77.2054 52.8545C77.0576 52.8545 76.9246 52.8445 76.8068 52.8241C76.6891 52.804 76.5901 52.7636 76.5092 52.7031C76.4287 52.6426 76.3662 52.5605 76.3225 52.4559C76.2789 52.3518 76.2568 52.2156 76.2568 52.0474V49.0014C76.2568 48.8199 76.2953 48.6753 76.373 48.5676C76.4503 48.4602 76.5561 48.3593 76.6907 48.2651C76.919 48.1037 77.2034 47.9727 77.5431 47.8718C77.882 47.7708 78.2369 47.7203 78.6066 47.7203Z" fill="white"/>
<path d="M87.3735 49.6672C87.3735 49.4589 87.3146 49.3059 87.1968 49.2081C87.0791 49.1108 86.9196 49.0619 86.7177 49.0619C86.5831 49.0619 86.4505 49.0787 86.3192 49.1124C86.1882 49.146 86.0752 49.1965 85.9815 49.2638V52.7636C85.9142 52.7836 85.8084 52.8041 85.6638 52.8241C85.5192 52.8441 85.3694 52.8546 85.2152 52.8546C85.0674 52.8546 84.9344 52.8445 84.8166 52.8241C84.6988 52.8041 84.5999 52.7636 84.519 52.7031C84.4384 52.6426 84.376 52.5605 84.3323 52.456C84.2886 52.3518 84.2666 52.2156 84.2666 52.0474V49.0214C84.2666 48.84 84.3051 48.6922 84.3828 48.5776C84.4601 48.4634 84.5658 48.3593 84.7004 48.2648C84.9288 48.1033 85.2164 47.9723 85.5629 47.8714C85.909 47.7704 86.2939 47.72 86.7177 47.72C87.4776 47.72 88.0625 47.8862 88.4727 48.2191C88.8829 48.552 89.0879 49.0142 89.0879 49.6059V52.7628C89.0206 52.7828 88.9149 52.8033 88.7703 52.8233C88.6257 52.8433 88.4763 52.8537 88.3216 52.8537C88.1738 52.8537 88.0408 52.8437 87.9231 52.8233C87.8053 52.8033 87.7064 52.7628 87.6254 52.7023C87.5449 52.6418 87.4824 52.5597 87.4388 52.4552C87.3951 52.351 87.3731 52.2148 87.3731 52.0466V49.6672H87.3735Z" fill="white"/>
<path d="M91.3447 52.7637C91.2706 52.7769 91.1613 52.7953 91.0171 52.819C90.8725 52.8426 90.7263 52.8542 90.5784 52.8542C90.4306 52.8542 90.2976 52.8442 90.1799 52.8238C90.0621 52.8037 89.9632 52.7633 89.8822 52.7028C89.8017 52.6423 89.7392 52.5602 89.6956 52.4556C89.6519 52.3515 89.6299 52.2153 89.6299 52.047V47.9423C89.704 47.9291 89.8129 47.9107 89.9576 47.8871C90.1022 47.8634 90.2484 47.8518 90.3962 47.8518C90.544 47.8518 90.677 47.8618 90.7948 47.8823C90.9125 47.9023 91.0115 47.9427 91.0924 48.0032C91.1729 48.0637 91.235 48.1462 91.2791 48.2504C91.3227 48.3545 91.3447 48.4907 91.3447 48.659V52.7637Z" fill="white"/>
<g opacity="0.5">
<path opacity="0.2" d="M78.606 47.7203C78.3889 47.7203 78.1774 47.74 77.9707 47.7748V49.2233C78.0312 49.1896 78.1053 49.1544 78.1926 49.1175C78.2799 49.0807 78.3841 49.0623 78.5055 49.0623C78.6621 49.0623 78.7975 49.1007 78.9137 49.1736V47.7388C78.8115 47.7279 78.7094 47.7203 78.606 47.7203Z" fill="url(#paint3_linear_1_6202)"/>
</g>
<g opacity="0.5">
<path opacity="0.2" d="M86.7184 47.7203C86.4588 47.7203 86.2161 47.7416 85.9854 47.7792V49.2614C86.0787 49.1953 86.19 49.1456 86.3198 49.1123C86.4508 49.0787 86.5838 49.0619 86.7184 49.0619C86.7937 49.0619 86.861 49.0711 86.9247 49.0847V47.7263C86.8566 47.7235 86.7889 47.7203 86.7184 47.7203Z" fill="url(#paint4_linear_1_6202)"/>
</g>
<rect x="90" y="136.945" width="18.6667" height="18.6667" rx="4" fill="#BDC5D0"/>
<path d="M90 140.945C90 138.736 91.7909 136.945 94 136.945H99.3333V155.611H94C91.7909 155.611 90 153.821 90 151.611V140.945Z" fill="#DCE0E6"/>
<circle cx="139" cy="159" r="24" fill="#DCFAE8"/>
<circle cx="139" cy="159" r="19" fill="#19DB66"/>
<path d="M144.75 156.199L137.686 163.799L134.3 160.154" stroke="white" stroke-width="4" stroke-linecap="round" stroke-linejoin="round"/>
<defs>
<linearGradient id="paint0_linear_1_6202" x1="146" y1="123.333" x2="161.782" y2="12.3377" gradientUnits="userSpaceOnUse">
<stop stop-color="#013188"/>
<stop offset="1" stop-color="#2453A9"/>
</linearGradient>
<linearGradient id="paint1_linear_1_6202" x1="73.4456" y1="45.8845" x2="73.4456" y2="56.8256" gradientUnits="userSpaceOnUse">
<stop stop-color="white" stop-opacity="0.8"/>
<stop offset="1" stop-color="white" stop-opacity="0.6"/>
</linearGradient>
<linearGradient id="paint2_linear_1_6202" x1="88.554" y1="43.1998" x2="88.554" y2="54.1408" gradientUnits="userSpaceOnUse">
<stop stop-color="white" stop-opacity="0.8"/>
<stop offset="1" stop-color="white" stop-opacity="0.6"/>
</linearGradient>
<linearGradient id="paint3_linear_1_6202" x1="77.9707" y1="48.472" x2="78.9135" y2="48.472" gradientUnits="userSpaceOnUse">
<stop offset="0.0051282"/>
<stop offset="0.4292" stop-opacity="0.5716"/>
<stop offset="0.8178" stop-opacity="0.1789"/>
<stop offset="0.9949" stop-opacity="0"/>
</linearGradient>
<linearGradient id="paint4_linear_1_6202" x1="85.9854" y1="48.491" x2="86.9245" y2="48.491" gradientUnits="userSpaceOnUse">
<stop offset="0.0051282"/>
<stop offset="0.4292" stop-opacity="0.5716"/>
<stop offset="0.8178" stop-opacity="0.1789"/>
<stop offset="0.9949" stop-opacity="0"/>
</linearGradient>
</defs>
</svg>
