<svg width="24" height="24" viewBox="0 0 24 24" fill="none" xmlns="http://www.w3.org/2000/svg">
<path d="M5.7575 6.66008L2.8775 9.54008C1.7075 10.7101 1.7075 12.6101 2.8775 13.7801L5.7575 16.6601L9.2475 13.1701C10.8075 11.6101 13.3375 11.6101 14.9075 13.1701L18.3975 16.6601L21.2775 13.7801C22.4475 12.6101 22.4475 10.7101 21.2775 9.54008L18.3775 6.66008L14.8975 10.1401C13.3375 11.7001 10.8075 11.7001 9.2375 10.1401L5.7575 6.66008ZM5.7575 6.66008L6.40755 6L9.23755 3.17C10.8076 1.61 13.3376 1.61 14.8976 3.17L17.7276 6L18.3976 6.66L14.9076 10.15C13.3376 11.71 10.8076 11.71 9.24755 10.15L5.7575 6.66008ZM14.8974 13.17C13.3374 11.61 10.8074 11.61 9.23743 13.17L5.74743 16.66L9.23743 20.15C10.7974 21.71 13.3274 21.71 14.8974 20.15L18.3874 16.66L14.8974 13.17Z" stroke="url(#paint0_linear_1_5594)" stroke-width="1.8" stroke-miterlimit="10"/>
<defs>
<linearGradient id="paint0_linear_1_5594" x1="12.0775" y1="2" x2="12.0775" y2="21.32" gradientUnits="userSpaceOnUse">
<stop stop-color="#E95814"/>
<stop offset="1" stop-color="#F08A5B"/>
</linearGradient>
</defs>
</svg>
