<svg width="24" height="24" viewBox="0 0 24 24" fill="none" xmlns="http://www.w3.org/2000/svg">
<path d="M9.06752 13.5698L9.78752 13.0298L9.78677 13.0288L9.06752 13.5698ZM7.22852 11.1248L6.9422 10.2716C6.66803 10.3636 6.45477 10.5817 6.369 10.8579C6.28324 11.1341 6.33542 11.4347 6.50926 11.6658L7.22852 11.1248ZM8.57852 10.6718L8.29287 9.81834L8.2922 9.81856L8.57852 10.6718ZM9.30451 10.7748L8.79168 11.5144L8.79325 11.5155L9.30451 10.7748ZM10.4765 11.5838L9.96525 12.3245C10.2224 12.502 10.5532 12.5334 10.8391 12.4075L10.4765 11.5838ZM13.2955 10.3428L13.6581 11.1665C13.913 11.0543 14.1016 10.8304 14.1689 10.5602C14.2361 10.2899 14.1745 10.0038 14.002 9.78519L13.2955 10.3428ZM10.3505 6.61181L10.1633 5.7315C9.85898 5.79622 9.60968 6.01352 9.50401 6.30614C9.39835 6.59877 9.45131 6.92522 9.64407 7.16942L10.3505 6.61181ZM12.7485 6.10181L13.3034 5.39323C13.0937 5.22896 12.8219 5.16607 12.5613 5.2215L12.7485 6.10181ZM16.6215 9.13481L16.0666 9.84339C16.3189 10.0409 16.6571 10.0895 16.9547 9.97085L16.6215 9.13481ZM20.7515 7.48881L21.0847 8.32485L21.0848 8.32483L20.7515 7.48881ZM22.9915 8.84181L22.0964 8.93529L22.0965 8.93654L22.9915 8.84181ZM21.9985 10.5258L22.3494 11.3546L22.3494 11.3546L21.9985 10.5258ZM14.5955 13.6598L14.9448 14.4893L14.9464 14.4886L14.5955 13.6598ZM13.9975 13.7888L13.9757 12.8891L13.9751 12.8891L13.9975 13.7888ZM9.74352 13.8948L9.7211 12.995L9.71297 12.9953L9.74352 13.8948ZM19.5267 18.0905C19.8527 17.7153 19.8128 17.1469 19.4376 16.8209C19.0624 16.4949 18.4939 16.5347 18.1679 16.91L19.5267 18.0905ZM16.9572 5.49103C17.3537 5.79081 17.9181 5.71243 18.2179 5.31596C18.5177 4.91948 18.4393 4.35505 18.0428 4.05526L16.9572 5.49103ZM4.0519 13.0737C4.45272 12.7797 4.53936 12.2165 4.24541 11.8157C3.95146 11.4148 3.38824 11.3282 2.98741 11.6221L4.0519 13.0737ZM1.09666 16.2919L1.93119 15.9549C1.9292 15.95 1.92717 15.9451 1.9251 15.9402L1.09666 16.2919ZM9.4749 17.2043C9.93574 17.0181 10.1583 16.4935 9.97209 16.0327C9.78584 15.5718 9.26126 15.3492 8.80042 15.5355L9.4749 17.2043ZM9.78677 13.0288L7.94777 10.5838L6.50926 11.6658L8.34826 14.1108L9.78677 13.0288ZM7.51483 11.9781L8.86483 11.5251L8.2922 9.81856L6.9422 10.2716L7.51483 11.9781ZM8.86417 11.5253C8.84107 11.533 8.81396 11.5298 8.79168 11.5144L9.81735 10.0352C9.37107 9.72576 8.80597 9.64661 8.29287 9.81834L8.86417 11.5253ZM8.79325 11.5155L9.96525 12.3245L10.9878 10.8431L9.81578 10.0341L8.79325 11.5155ZM10.8391 12.4075L13.6581 11.1665L12.9329 9.51909L10.1139 10.7601L10.8391 12.4075ZM14.002 9.78519L11.057 6.05419L9.64407 7.16942L12.5891 10.9004L14.002 9.78519ZM10.5377 7.49212L12.9357 6.98212L12.5613 5.2215L10.1633 5.7315L10.5377 7.49212ZM12.1936 6.81039L16.0666 9.84339L17.1764 8.42623L13.3034 5.39323L12.1936 6.81039ZM16.9547 9.97085L21.0847 8.32485L20.4183 6.65276L16.2883 8.29876L16.9547 9.97085ZM21.0848 8.32483C21.5421 8.14255 22.0454 8.44758 22.0964 8.93529L23.8866 8.74832C23.7116 7.07203 21.983 6.02906 20.4183 6.65278L21.0848 8.32483ZM22.0965 8.93654C22.1308 9.26008 21.9491 9.56937 21.6476 9.69704L22.3494 11.3546C23.3799 10.9182 24.0043 9.85953 23.8865 8.74707L22.0965 8.93654ZM21.6477 9.69701L14.2447 12.831L14.9464 14.4886L22.3494 11.3546L21.6477 9.69701ZM14.2463 12.8303C14.1583 12.8674 14.0672 12.8868 13.9757 12.8891L14.0194 14.6885C14.3398 14.6808 14.6528 14.6122 14.9448 14.4893L14.2463 12.8303ZM13.9751 12.8891L9.7211 12.9951L9.76593 14.7945L14.0199 14.6885L13.9751 12.8891ZM9.71297 12.9953C9.74484 12.9942 9.77188 13.009 9.78752 13.0298L8.34752 14.1098C8.68115 14.5546 9.21219 14.8134 9.77406 14.7943L9.71297 12.9953ZM12.245 2.11196C6.91747 2.11196 2.6 6.43238 2.6 11.762H4.4C4.4 7.42555 7.91253 3.91196 12.245 3.91196V2.11196ZM2.6 11.762C2.6 17.0905 6.91741 21.412 12.245 21.412V19.612C7.91259 19.612 4.4 16.0974 4.4 11.762H2.6ZM12.245 21.412C15.1523 21.412 17.7598 20.1241 19.5267 18.0905L18.1679 16.91C16.7283 18.5669 14.6092 19.612 12.245 19.612V21.412ZM18.0428 4.05526C16.4305 2.83617 14.4222 2.11196 12.245 2.11196V3.91196C14.0164 3.91196 15.6462 4.49974 16.9572 5.49103L18.0428 4.05526ZM2.98741 11.6221C2.00037 12.346 1.18785 13.1455 0.678396 13.9561C0.181123 14.7474 -0.124282 15.719 0.26822 16.6436L1.9251 15.9402C1.8676 15.8048 1.84169 15.4879 2.20242 14.9139C2.55097 14.3593 3.17495 13.7168 4.0519 13.0737L2.98741 11.6221ZM0.262127 16.6289C0.539393 17.3155 1.11128 17.7568 1.74318 18.0184C2.37106 18.2783 3.12367 18.392 3.92155 18.3997C5.52165 18.4153 7.49104 18.0061 9.4749 17.2043L8.80042 15.5355C6.98128 16.2707 5.24917 16.6125 3.93902 16.5998C3.28177 16.5934 2.77707 16.4982 2.43166 16.3552C2.09029 16.2139 1.97292 16.0583 1.93119 15.9549L0.262127 16.6289Z" fill="url(#paint0_linear_1_5576)"/>
<defs>
<linearGradient id="paint0_linear_1_5576" x1="11.9955" y1="3.01196" x2="11.9955" y2="20.512" gradientUnits="userSpaceOnUse">
<stop stop-color="#E95814"/>
<stop offset="1" stop-color="#F08A5B"/>
</linearGradient>
</defs>
</svg>
