<svg width="134" height="28" viewBox="0 0 134 28" fill="none" xmlns="http://www.w3.org/2000/svg">
<path fill-rule="evenodd" clip-rule="evenodd" d="M7.51879 8.95342C7.51879 7.59193 8.62681 6.48335 9.99913 6.48335C11.3715 6.48335 12.4795 7.59193 12.4795 8.95342V11.415H7.51879V8.95342ZM5.71879 11.4155V8.95342C5.71879 6.59266 7.63786 4.68335 9.99913 4.68335C12.3604 4.68335 14.2795 6.59266 14.2795 8.95342V11.4155C15.6825 11.4446 16.8148 12.5877 16.8148 14V19.8976C16.8148 21.3282 15.6529 22.4827 14.2246 22.4827H5.77376C4.34547 22.4827 3.18359 21.3282 3.18359 19.8976V14C3.18359 12.5878 4.31578 11.4447 5.71879 11.4155ZM4.98359 14C4.98359 13.5687 5.33442 13.215 5.77376 13.215H14.2246C14.664 13.215 15.0148 13.5687 15.0148 14V19.8976C15.0148 20.329 14.664 20.6827 14.2246 20.6827H5.77376C5.33442 20.6827 4.98359 20.329 4.98359 19.8976V14Z" fill="#A4A7AF"/>
<path d="M29.2231 19H30.4971L31.3791 16.578H35.8171L36.7131 19H37.9871L34.2071 9.06H32.9891L29.2231 19ZM31.7711 15.514L33.5771 10.53H33.6051L35.4391 15.514H31.7711ZM39.1181 19H40.2521V15.612C40.2521 14.086 41.0921 13.134 42.2121 13.134C43.2341 13.134 43.7941 13.932 43.7941 15.388V19H44.9281V15.612C44.9281 14.086 45.7821 13.134 46.8461 13.134C47.8821 13.134 48.4001 13.932 48.4001 15.388V19H49.5341V15.08C49.5341 13.134 48.6941 12.098 47.1821 12.098C46.1181 12.098 45.1941 12.63 44.6761 13.554H44.6621C44.3121 12.616 43.5701 12.098 42.5481 12.098C41.6381 12.098 40.7841 12.588 40.2661 13.414H40.2521V12.182H39.1181V19ZM54.7948 19.084C56.6708 19.084 58.1128 17.712 58.1128 15.64C58.1128 13.624 56.7268 12.098 54.7948 12.098C53.7588 12.098 52.8908 12.56 52.3728 13.372H52.3588V8.696H51.2248V19H52.3028V17.768H52.3308C52.8348 18.58 53.6748 19.084 54.7948 19.084ZM54.6408 18.048C53.3388 18.048 52.3028 17.082 52.3028 15.64C52.3028 14.24 53.2408 13.134 54.6268 13.134C55.9148 13.134 56.9648 14.128 56.9648 15.64C56.9648 17.012 56.0128 18.048 54.6408 18.048ZM60.2024 10.936C60.6644 10.936 61.0284 10.572 61.0284 10.124C61.0284 9.676 60.6644 9.312 60.2024 9.312C59.7404 9.312 59.3764 9.676 59.3764 10.124C59.3764 10.572 59.7404 10.936 60.2024 10.936ZM59.6284 19H60.7624V12.182H59.6284V19ZM68.758 15.472C68.758 13.526 67.484 12.098 65.622 12.098C63.676 12.098 62.262 13.54 62.262 15.598C62.262 17.684 63.69 19.084 65.706 19.084C67.078 19.084 67.932 18.566 68.52 17.81L67.722 17.138C67.302 17.656 66.658 18.048 65.748 18.048C64.46 18.048 63.564 17.208 63.41 15.934H68.73C68.73 15.85 68.758 15.654 68.758 15.472ZM65.608 13.134C66.728 13.134 67.456 13.89 67.624 15.01H63.438C63.648 13.848 64.516 13.134 65.608 13.134ZM70.1406 19H71.2746V15.598C71.2746 14.058 72.1146 13.134 73.4026 13.134C74.3966 13.134 75.0826 13.68 75.0826 15.276V19H76.2166V14.954C76.2166 13.008 75.2366 12.098 73.7666 12.098C72.7166 12.098 71.8206 12.588 71.2886 13.414H71.2746V12.182H70.1406V19ZM79.845 19.084C80.657 19.084 81.119 18.888 81.497 18.664L81.203 17.67C80.867 17.852 80.447 18.02 80.041 18.02C79.397 18.02 79.215 17.628 79.215 16.802V13.162H81.469V12.182H79.215V9.732L78.081 9.858V12.182H77.199V13.162H78.081V16.97C78.081 18.342 78.641 19.084 79.845 19.084ZM88.4395 15.472C88.4395 13.526 87.1655 12.098 85.3035 12.098C83.3575 12.098 81.9435 13.54 81.9435 15.598C81.9435 17.684 83.3715 19.084 85.3875 19.084C86.7595 19.084 87.6135 18.566 88.2015 17.81L87.4035 17.138C86.9835 17.656 86.3395 18.048 85.4295 18.048C84.1415 18.048 83.2455 17.208 83.0915 15.934H88.4115C88.4115 15.85 88.4395 15.654 88.4395 15.472ZM85.2895 13.134C86.4095 13.134 87.1375 13.89 87.3055 15.01H83.1195C83.3295 13.848 84.1975 13.134 85.2895 13.134ZM95.4146 19.084C97.0526 19.084 97.8646 18.202 97.8646 17.138C97.8786 15.808 96.9266 15.556 95.4846 14.996C94.7426 14.73 94.1966 14.464 94.1966 13.932C94.1966 13.414 94.7146 13.106 95.2466 13.106C95.8346 13.106 96.4646 13.288 97.0526 13.834L97.6406 12.938C96.8846 12.322 96.1146 12.098 95.2886 12.098C94.0006 12.098 93.0486 12.882 93.0486 13.932C93.0486 15.178 93.9866 15.626 95.0926 16.018C96.0866 16.382 96.7166 16.55 96.7166 17.152C96.7166 17.67 96.2406 18.076 95.4146 18.076C94.4626 18.076 93.8606 17.768 93.3286 17.25L92.7546 18.118C93.4126 18.692 94.2806 19.084 95.4146 19.084ZM105.25 15.472C105.25 13.526 103.976 12.098 102.114 12.098C100.168 12.098 98.7539 13.54 98.7539 15.598C98.7539 17.684 100.182 19.084 102.198 19.084C103.57 19.084 104.424 18.566 105.012 17.81L104.214 17.138C103.794 17.656 103.15 18.048 102.24 18.048C100.952 18.048 100.056 17.208 99.9019 15.934H105.222C105.222 15.85 105.25 15.654 105.25 15.472ZM102.1 13.134C103.22 13.134 103.948 13.89 104.116 15.01H99.9299C100.14 13.848 101.008 13.134 102.1 13.134ZM109.643 21.856C112.023 21.856 113.003 20.456 113.003 18.496V12.182H111.869V13.274H111.841C111.295 12.532 110.413 12.098 109.447 12.098C107.529 12.098 106.185 13.554 106.185 15.5C106.185 17.53 107.627 18.874 109.489 18.874C110.539 18.874 111.351 18.412 111.855 17.684H111.883V18.776C111.883 19.924 111.141 20.82 109.601 20.82C108.621 20.82 107.935 20.554 107.151 20.106L106.871 21.114C107.683 21.604 108.621 21.856 109.643 21.856ZM109.629 17.824C108.341 17.824 107.333 16.914 107.333 15.472C107.333 14.142 108.257 13.148 109.643 13.148C110.917 13.148 111.911 14.072 111.911 15.444C111.911 16.802 111.001 17.824 109.629 17.824ZM117.155 19.084C118.051 19.084 118.891 18.636 119.409 17.824H119.423V19H120.557V12.182H119.423V15.486C119.423 17.11 118.485 18.048 117.393 18.048C116.315 18.048 115.727 17.46 115.727 15.92V12.182H114.593V16.242C114.593 18.188 115.587 19.084 117.155 19.084ZM122.328 19H123.462V15.71C123.462 14.338 124.232 13.344 125.534 13.344C125.646 13.344 125.814 13.358 125.982 13.372V12.112C125.884 12.098 125.8 12.098 125.702 12.098C124.764 12.098 123.98 12.602 123.49 13.428H123.462V12.182H122.328V19ZM129.859 19.084C131.875 19.084 133.373 17.67 133.373 15.598C133.373 13.526 131.875 12.098 129.859 12.098C127.745 12.098 126.331 13.638 126.331 15.598C126.331 17.558 127.745 19.084 129.859 19.084ZM129.859 18.048C128.445 18.048 127.493 16.956 127.493 15.598C127.493 14.24 128.431 13.134 129.859 13.134C131.175 13.134 132.211 14.142 132.211 15.598C132.211 17.054 131.161 18.048 129.859 18.048Z" fill="#A4A7AF"/>
</svg>
