<svg width="38" height="12" viewBox="0 0 38 12" fill="none" xmlns="http://www.w3.org/2000/svg">
<path fill-rule="evenodd" clip-rule="evenodd" d="M24.2633 0C25.4252 0 26.3648 0.259513 26.9573 0.494553L26.5488 3.00296L26.2771 2.87961C25.7336 2.64473 25.0162 2.41002 24.0397 2.43482C22.8539 2.43482 22.322 2.9412 22.3097 3.43559C22.3097 3.97941 22.9531 4.3378 24.0036 4.86931C25.7341 5.69729 26.5368 6.71054 26.5248 8.0329C26.5005 10.4428 24.4487 12 21.2971 12C19.9496 11.9875 18.6517 11.7027 17.9473 11.3818L18.3676 8.77416L18.7631 8.95976C19.7395 9.39272 20.3821 9.57766 21.5813 9.57766C22.446 9.57766 23.3732 9.21894 23.385 8.44073C23.385 7.93403 22.99 7.56299 21.828 6.99452C20.691 6.43821 19.1709 5.51152 19.1956 3.84309C19.2084 1.58171 21.2971 0 24.2633 0ZM13.0625 11.8312H16.0661L17.9446 0.214844H14.9412L13.0625 11.8312ZM30.9479 7.71591C31.1952 7.04857 32.147 4.46576 32.147 4.46576C32.142 4.47578 32.1813 4.36675 32.2398 4.20471L32.2398 4.20456C32.3261 3.96556 32.4539 3.61131 32.5422 3.35363L32.7521 4.35456C32.7521 4.35456 33.3209 7.13513 33.4444 7.71591H30.9479ZM34.6554 0.214844H32.3322C31.6157 0.214844 31.0714 0.424753 30.7623 1.17865L26.3008 11.831H29.4524C29.4524 11.831 29.9712 10.3973 30.0828 10.0885H33.9392C34.0254 10.4963 34.2976 11.831 34.2976 11.831H37.0786L34.6554 0.214844ZM7.61476 8.13606L10.5563 0.214844H13.7324L9.0112 11.8188H5.83496L3.14062 1.6604C5.04394 2.66182 6.74949 4.67583 7.29332 6.52954L7.61476 8.13606Z" fill="url(#paint0_linear_408_3986)"/>
<path d="M4.88196 0.213013H0.0494386L0 0.447724C3.76967 1.4117 6.26625 3.73532 7.29198 6.52821L6.24144 1.18947C6.06849 0.44756 5.53698 0.237486 4.88196 0.213013Z" fill="#F6BCA1"/>
<defs>
<linearGradient id="paint0_linear_408_3986" x1="20.1096" y1="0" x2="20.1096" y2="12" gradientUnits="userSpaceOnUse">
<stop stop-color="#E95814"/>
<stop offset="1" stop-color="#F08A5B"/>
</linearGradient>
</defs>
</svg>
