<svg width="40" height="40" viewBox="0 0 40 40" fill="none" xmlns="http://www.w3.org/2000/svg">
<circle cx="20" cy="20" r="20" fill="#F47920"/>
<path d="M29.4165 16.0833C29.4165 15.9167 29.1665 14.5833 28.5832 14C27.8332 13.1667 26.9998 13.0833 26.5832 13.0833H26.4998C23.9165 12.9167 20.0832 12.9167 19.9998 12.9167C19.9998 12.9167 16.0832 12.9167 13.4998 13.0833H13.4165C12.9998 13.0833 12.1665 13.1667 11.4165 14C10.8332 14.6667 10.5832 16 10.5832 16.1667C10.5832 16.25 10.4165 17.75 10.4165 19.3333V20.75C10.4165 22.3333 10.5832 23.8333 10.5832 23.9167C10.5832 24.0833 10.8332 25.4167 11.4165 26C12.0832 26.75 12.9165 26.8333 13.4165 26.9167H13.6665C15.1665 27.0833 19.7498 27.0833 19.9165 27.0833C19.9165 27.0833 23.8332 27.0833 26.4165 26.9167H26.4998C26.9165 26.8333 27.7498 26.75 28.4998 26C29.0832 25.3333 29.3332 24 29.3332 23.8333C29.3332 23.75 29.4998 22.25 29.4998 20.6667V19.25C29.5832 17.75 29.4165 16.1667 29.4165 16.0833ZM23.2498 20.1667L18.2498 22.8333C18.1665 22.8333 18.1665 22.9167 18.0832 22.9167C17.9998 22.9167 17.9165 22.9167 17.9165 22.8333C17.8332 22.75 17.7498 22.6667 17.7498 22.5V17.0833C17.7498 16.9167 17.8332 16.8333 17.9165 16.75C17.9998 16.6667 18.1665 16.6667 18.3332 16.75L23.3332 19.4167C23.4998 19.5 23.5832 19.5833 23.5832 19.75C23.5832 19.9167 23.4165 20.0833 23.2498 20.1667Z" fill="white"/>
</svg>
